%TF.GenerationSoftware,KiCad,Pcbnew,8.0.2-1*%
%TF.CreationDate,2025-03-04T20:19:02+09:00*%
%TF.ProjectId,test,74657374-2e6b-4696-9361-645f70636258,rev?*%
%TF.SameCoordinates,Original*%
%TF.FileFunction,Copper,L1,Top*%
%TF.FilePolarity,Positive*%
%FSLAX46Y46*%
G04 Gerber Fmt 4.6, Leading zero omitted, Abs format (unit mm)*
G04 Created by KiCad (PCBNEW 8.0.2-1) date 2025-03-04 20:19:02*
%MOMM*%
%LPD*%
G01*
G04 APERTURE LIST*
G04 Aperture macros list*
%AMRoundRect*
0 Rectangle with rounded corners*
0 $1 Rounding radius*
0 $2 $3 $4 $5 $6 $7 $8 $9 X,Y pos of 4 corners*
0 Add a 4 corners polygon primitive as box body*
4,1,4,$2,$3,$4,$5,$6,$7,$8,$9,$2,$3,0*
0 Add four circle primitives for the rounded corners*
1,1,$1+$1,$2,$3*
1,1,$1+$1,$4,$5*
1,1,$1+$1,$6,$7*
1,1,$1+$1,$8,$9*
0 Add four rect primitives between the rounded corners*
20,1,$1+$1,$2,$3,$4,$5,0*
20,1,$1+$1,$4,$5,$6,$7,0*
20,1,$1+$1,$6,$7,$8,$9,0*
20,1,$1+$1,$8,$9,$2,$3,0*%
%AMRotRect*
0 Rectangle, with rotation*
0 The origin of the aperture is its center*
0 $1 length*
0 $2 width*
0 $3 Rotation angle, in degrees counterclockwise*
0 Add horizontal line*
21,1,$1,$2,0,0,$3*%
G04 Aperture macros list end*
%TA.AperFunction,ComponentPad*%
%ADD10C,1.600000*%
%TD*%
%TA.AperFunction,ComponentPad*%
%ADD11O,1.600000X1.600000*%
%TD*%
%TA.AperFunction,SMDPad,CuDef*%
%ADD12RoundRect,0.250000X-0.312500X-0.625000X0.312500X-0.625000X0.312500X0.625000X-0.312500X0.625000X0*%
%TD*%
%TA.AperFunction,SMDPad,CuDef*%
%ADD13RoundRect,0.250000X-0.625000X0.312500X-0.625000X-0.312500X0.625000X-0.312500X0.625000X0.312500X0*%
%TD*%
%TA.AperFunction,ComponentPad*%
%ADD14C,1.700000*%
%TD*%
%TA.AperFunction,ComponentPad*%
%ADD15O,1.700000X1.700000*%
%TD*%
%TA.AperFunction,ComponentPad*%
%ADD16R,1.700000X1.700000*%
%TD*%
%TA.AperFunction,SMDPad,CuDef*%
%ADD17RoundRect,0.152400X1.063600X0.609600X-1.063600X0.609600X-1.063600X-0.609600X1.063600X-0.609600X0*%
%TD*%
%TA.AperFunction,ComponentPad*%
%ADD18C,1.524000*%
%TD*%
%TA.AperFunction,SMDPad,CuDef*%
%ADD19RoundRect,0.152400X-1.063600X-0.609600X1.063600X-0.609600X1.063600X0.609600X-1.063600X0.609600X0*%
%TD*%
%TA.AperFunction,ComponentPad*%
%ADD20C,1.500000*%
%TD*%
%TA.AperFunction,ComponentPad*%
%ADD21R,1.500000X1.500000*%
%TD*%
%TA.AperFunction,ComponentPad*%
%ADD22RotRect,1.800000X1.800000X225.000000*%
%TD*%
%TA.AperFunction,ComponentPad*%
%ADD23C,1.800000*%
%TD*%
%TA.AperFunction,ComponentPad*%
%ADD24RotRect,1.800000X1.800000X315.000000*%
%TD*%
%TA.AperFunction,ComponentPad*%
%ADD25R,1.800000X1.800000*%
%TD*%
%TA.AperFunction,ViaPad*%
%ADD26C,0.600000*%
%TD*%
%TA.AperFunction,Conductor*%
%ADD27C,0.200000*%
%TD*%
G04 APERTURE END LIST*
D10*
%TO.P,R1,1*%
%TO.N,Net-(U1-GPIO19{slash}D8{slash}SCK)*%
X139509500Y-107910000D03*
D11*
%TO.P,R1,2*%
%TO.N,Net-(D4-RA)*%
X139509500Y-118070000D03*
%TD*%
D12*
%TO.P,R8,1*%
%TO.N,Net-(U1-GPIO20{slash}D9{slash}MISO)*%
X143188500Y-105370000D03*
%TO.P,R8,2*%
%TO.N,Net-(D4-BA)*%
X146113500Y-105370000D03*
%TD*%
D13*
%TO.P,R7,1*%
%TO.N,Net-(U1-GPIO18{slash}D10{slash}MOSI)*%
X149669500Y-112351000D03*
%TO.P,R7,2*%
%TO.N,Net-(D4-GA)*%
X149669500Y-115276000D03*
%TD*%
%TO.P,R6,2*%
%TO.N,Net-(D4-RA)*%
X139509500Y-115276000D03*
%TO.P,R6,1*%
%TO.N,Net-(U1-GPIO19{slash}D8{slash}SCK)*%
X139509500Y-112351000D03*
%TD*%
D10*
%TO.P,R2,1*%
%TO.N,Net-(U1-GPIO18{slash}D10{slash}MOSI)*%
X149669500Y-107910000D03*
D11*
%TO.P,R2,2*%
%TO.N,Net-(D4-GA)*%
X149669500Y-118070000D03*
%TD*%
D10*
%TO.P,R3,1*%
%TO.N,Net-(U1-GPIO20{slash}D9{slash}MISO)*%
X139509500Y-105370000D03*
D11*
%TO.P,R3,2*%
%TO.N,Net-(D4-BA)*%
X149669500Y-105370000D03*
%TD*%
D10*
%TO.P,R4,1*%
%TO.N,Net-(D1-K)*%
X141589500Y-92670000D03*
D11*
%TO.P,R4,2*%
%TO.N,GND*%
X141589500Y-102830000D03*
%TD*%
%TO.P,R5,2*%
%TO.N,GND*%
X147589500Y-102779200D03*
D10*
%TO.P,R5,1*%
%TO.N,Net-(D2-K)*%
X147589500Y-92619200D03*
%TD*%
D14*
%TO.P,J9,1,Pin_1*%
%TO.N,unconnected-(J9-Pin_1-Pad1)*%
X126809500Y-102830000D03*
D15*
%TO.P,J9,2,Pin_2*%
%TO.N,unconnected-(J9-Pin_2-Pad2)*%
X126809500Y-105370000D03*
%TO.P,J9,3,Pin_3*%
%TO.N,unconnected-(J9-Pin_3-Pad3)*%
X126809500Y-107910000D03*
%TO.P,J9,4,Pin_4*%
%TO.N,unconnected-(J9-Pin_4-Pad4)*%
X126809500Y-110450000D03*
%TO.P,J9,5,Pin_5*%
%TO.N,unconnected-(J9-Pin_5-Pad5)*%
X126809500Y-112990000D03*
%TD*%
D14*
%TO.P,J7,1,Pin_1*%
%TO.N,unconnected-(J7-Pin_1-Pad1)*%
X129369500Y-102860000D03*
D15*
%TO.P,J7,2,Pin_2*%
%TO.N,unconnected-(J7-Pin_2-Pad2)*%
X129369500Y-105400000D03*
%TO.P,J7,3,Pin_3*%
%TO.N,unconnected-(J7-Pin_3-Pad3)*%
X129369500Y-107940000D03*
%TO.P,J7,4,Pin_4*%
%TO.N,unconnected-(J7-Pin_4-Pad4)*%
X129369500Y-110480000D03*
%TO.P,J7,5,Pin_5*%
%TO.N,unconnected-(J7-Pin_5-Pad5)*%
X129369500Y-113020000D03*
%TD*%
D16*
%TO.P,J4,1,Pin_1*%
%TO.N,unconnected-(J4-Pin_1-Pad1)*%
X144589500Y-81240000D03*
%TD*%
D14*
%TO.P,J8,1,Pin_1*%
%TO.N,unconnected-(J8-Pin_1-Pad1)*%
X124269500Y-102830000D03*
D15*
%TO.P,J8,2,Pin_2*%
%TO.N,unconnected-(J8-Pin_2-Pad2)*%
X124269500Y-105370000D03*
%TO.P,J8,3,Pin_3*%
%TO.N,unconnected-(J8-Pin_3-Pad3)*%
X124269500Y-107910000D03*
%TO.P,J8,4,Pin_4*%
%TO.N,unconnected-(J8-Pin_4-Pad4)*%
X124269500Y-110450000D03*
%TO.P,J8,5,Pin_5*%
%TO.N,unconnected-(J8-Pin_5-Pad5)*%
X124269500Y-112990000D03*
%TD*%
D17*
%TO.P,U1,14,VBUS*%
%TO.N,unconnected-(U1-VBUS-Pad14)*%
X136134500Y-114260000D03*
D18*
%TO.N,unconnected-(U1-VBUS-Pad14)_0*%
X136969500Y-114260000D03*
D17*
%TO.P,U1,13,GND*%
%TO.N,GND*%
X136134500Y-111720000D03*
D18*
X136969500Y-111720000D03*
D17*
%TO.P,U1,12,3V3*%
%TO.N,Net-(D1-A)*%
X136134500Y-109180000D03*
D18*
X136969500Y-109180000D03*
D17*
%TO.P,U1,11,GPIO18/D10/MOSI*%
%TO.N,Net-(U1-GPIO18{slash}D10{slash}MOSI)*%
X136134500Y-106640000D03*
D18*
X136969500Y-106640000D03*
D17*
%TO.P,U1,10,GPIO20/D9/MISO*%
%TO.N,Net-(U1-GPIO20{slash}D9{slash}MISO)*%
X136134500Y-104100000D03*
D18*
X136969500Y-104100000D03*
D17*
%TO.P,U1,9,GPIO19/D8/SCK*%
%TO.N,Net-(U1-GPIO19{slash}D8{slash}SCK)*%
X136134500Y-101560000D03*
D18*
X136969500Y-101560000D03*
D17*
%TO.P,U1,8,GPIO17/D7/RX*%
%TO.N,unconnected-(U1-GPIO17{slash}D7{slash}RX-Pad8)_0*%
X136134500Y-99020000D03*
D18*
%TO.N,unconnected-(U1-GPIO17{slash}D7{slash}RX-Pad8)*%
X136969500Y-99020000D03*
%TO.P,U1,7,GPIO16/D6/TX*%
%TO.N,unconnected-(U1-GPIO16{slash}D6{slash}TX-Pad7)_0*%
X152209500Y-99020000D03*
D19*
%TO.N,unconnected-(U1-GPIO16{slash}D6{slash}TX-Pad7)*%
X153044500Y-99020000D03*
D18*
%TO.P,U1,6,GPIO23/D5/SCL*%
%TO.N,Net-(J3-Pin_2)*%
X152209500Y-101560000D03*
D19*
X153044500Y-101560000D03*
D18*
%TO.P,U1,5,GPIO22/D4/SDA*%
%TO.N,Net-(J3-Pin_1)*%
X152209500Y-104100000D03*
D19*
X153044500Y-104100000D03*
D18*
%TO.P,U1,4,GPIO21/D3*%
%TO.N,Net-(Q2-B)*%
X152209500Y-106640000D03*
D19*
X153044500Y-106640000D03*
D18*
%TO.P,U1,3,GPIO2/A2/D2*%
%TO.N,Net-(Q1-B)*%
X152209500Y-109180000D03*
D19*
X153044500Y-109180000D03*
D18*
%TO.P,U1,2,GPIO1/A1/D1*%
%TO.N,Net-(D2-K)*%
X152209500Y-111720000D03*
D19*
X153044500Y-111720000D03*
D18*
%TO.P,U1,1,GPIO0/A0/D0*%
%TO.N,Net-(D1-K)*%
X152209500Y-114260000D03*
D19*
X153044500Y-114260000D03*
%TD*%
D16*
%TO.P,J6,1,Pin_1*%
%TO.N,unconnected-(J6-Pin_1-Pad1)*%
X129349500Y-120610000D03*
%TD*%
D20*
%TO.P,SW1,1,B*%
%TO.N,Net-(J2-Pin_1)*%
X162560000Y-111760000D03*
D10*
%TO.P,SW1,2,C*%
%TO.N,unconnected-(SW1-C-Pad2)*%
X162560000Y-109220000D03*
%TO.P,SW1,3,A*%
%TO.N,GND*%
X162560000Y-114300000D03*
%TD*%
D21*
%TO.P,Q2,1,E*%
%TO.N,GND*%
X157480000Y-87590000D03*
D20*
%TO.P,Q2,2,C*%
%TO.N,Net-(M2--)*%
X160020000Y-90130000D03*
%TO.P,Q2,3,B*%
%TO.N,Net-(Q2-B)*%
X157480000Y-92670000D03*
%TD*%
D16*
%TO.P,M2,1,+*%
%TO.N,+3.3V*%
X156019500Y-106640000D03*
D15*
%TO.P,M2,2,-*%
%TO.N,Net-(M2--)*%
X156019500Y-104100000D03*
%TD*%
D22*
%TO.P,D1,1,K*%
%TO.N,Net-(D1-K)*%
X142049500Y-86320000D03*
D23*
%TO.P,D1,2,A*%
%TO.N,Net-(D1-A)*%
X140253449Y-88116051D03*
%TD*%
D14*
%TO.P,M1,1,+*%
%TO.N,+3.3V*%
X133159500Y-106640000D03*
D16*
%TO.P,M1,2,-*%
%TO.N,Net-(M1--)*%
X133159500Y-104100000D03*
%TD*%
%TO.P,J2,1,Pin_1*%
%TO.N,Net-(J2-Pin_1)*%
X164909500Y-101560000D03*
D15*
%TO.P,J2,2,Pin_2*%
%TO.N,+3.3V*%
X164909500Y-104100000D03*
%TD*%
D21*
%TO.P,Q1,1,E*%
%TO.N,GND*%
X132080000Y-92670000D03*
D20*
%TO.P,Q1,2,C*%
%TO.N,Net-(M1--)*%
X129540000Y-90130000D03*
%TO.P,Q1,3,B*%
%TO.N,Net-(Q1-B)*%
X132080000Y-87590000D03*
%TD*%
D23*
%TO.P,D2,2,A*%
%TO.N,Net-(D1-A)*%
X148925551Y-88116051D03*
D24*
%TO.P,D2,1,K*%
%TO.N,Net-(D2-K)*%
X147129500Y-86320000D03*
%TD*%
D15*
%TO.P,J1,2,Pin_2*%
%TO.N,+3.3V*%
X153479500Y-123150000D03*
D16*
%TO.P,J1,1,Pin_1*%
%TO.N,GND*%
X153479500Y-120610000D03*
%TD*%
%TO.P,J5,1,Pin_1*%
%TO.N,unconnected-(J5-Pin_1-Pad1)*%
X159829500Y-120610000D03*
%TD*%
D14*
%TO.P,J3,1,Pin_1*%
%TO.N,Net-(J3-Pin_1)*%
X124269500Y-96480000D03*
D15*
%TO.P,J3,2,Pin_2*%
%TO.N,Net-(J3-Pin_2)*%
X126809500Y-96480000D03*
D16*
%TO.P,J3,3,Pin_3*%
%TO.N,GND*%
X129349500Y-96480000D03*
D15*
%TO.P,J3,4,Pin_4*%
%TO.N,Net-(D1-A)*%
X131889500Y-96480000D03*
%TD*%
D23*
%TO.P,D4,1,RA*%
%TO.N,Net-(D4-RA)*%
X141349500Y-119340000D03*
D25*
%TO.P,D4,4,K*%
%TO.N,GND*%
X143508500Y-119340000D03*
D23*
%TO.P,D4,3,BA*%
%TO.N,Net-(D4-BA)*%
X145667500Y-119340000D03*
%TO.P,D4,2,GA*%
%TO.N,Net-(D4-GA)*%
X147826500Y-119340000D03*
%TD*%
D26*
%TO.N,Net-(J3-Pin_1)*%
X128079500Y-100290000D03*
%TO.N,Net-(D1-K)*%
X139509500Y-93940000D03*
X139509500Y-97750000D03*
X142049500Y-114260000D03*
X147169500Y-114300000D03*
%TO.N,Net-(M1--)*%
X131889500Y-99020000D03*
%TO.N,+3.3V*%
X156019500Y-111720000D03*
%TO.N,Net-(D1-A)*%
X136969500Y-91400000D03*
%TD*%
D27*
%TO.N,Net-(Q1-B)*%
X152209500Y-109180000D02*
X150989500Y-107960000D01*
X150989500Y-107960000D02*
X150989500Y-103180000D01*
X143439500Y-95630000D02*
X142439500Y-95630000D01*
X150989500Y-103180000D02*
X143439500Y-95630000D01*
X142439500Y-95630000D02*
X134429500Y-87620000D01*
X134429500Y-87620000D02*
X134429500Y-87590000D01*
X134429500Y-87590000D02*
X132080000Y-87590000D01*
%TO.N,Net-(U1-GPIO18{slash}D10{slash}MOSI)*%
X136969500Y-106680000D02*
X148439500Y-106680000D01*
X148439500Y-106680000D02*
X149669500Y-107910000D01*
%TO.N,Net-(D1-A)*%
X136969500Y-109220000D02*
X135891870Y-109220000D01*
X135891870Y-109220000D02*
X134309500Y-107637630D01*
X134309500Y-107637630D02*
X134309500Y-98900000D01*
X134309500Y-98900000D02*
X131889500Y-96480000D01*
%TO.N,Net-(J3-Pin_1)*%
X128079500Y-100290000D02*
X126809500Y-100290000D01*
X126809500Y-100290000D02*
X124269500Y-97750000D01*
X124269500Y-97750000D02*
X124269500Y-96480000D01*
%TO.N,Net-(J3-Pin_2)*%
X136969500Y-83780000D02*
X135699500Y-85050000D01*
X150130971Y-101600000D02*
X149069500Y-100538529D01*
X130619500Y-85050000D02*
X126809500Y-88860000D01*
X149069500Y-100538529D02*
X149069500Y-97150000D01*
X143319500Y-83780000D02*
X136969500Y-83780000D01*
X145859500Y-93940000D02*
X145859500Y-88282442D01*
X145859500Y-88282442D02*
X145513279Y-87936221D01*
X149069500Y-97150000D02*
X145859500Y-93940000D01*
X145513279Y-87936221D02*
X145513279Y-85973779D01*
X152209500Y-101600000D02*
X150130971Y-101600000D01*
X145513279Y-85973779D02*
X143319500Y-83780000D01*
X135699500Y-85050000D02*
X130619500Y-85050000D01*
X126809500Y-88860000D02*
X126809500Y-96480000D01*
%TO.N,+3.3V*%
X156019500Y-106640000D02*
X156019500Y-111720000D01*
%TO.N,Net-(D1-K)*%
X139509500Y-95210000D02*
X139509500Y-93940000D01*
X139509500Y-97750000D02*
X139509500Y-95210000D01*
X147129500Y-114260000D02*
X142049500Y-114260000D01*
X147169500Y-114300000D02*
X147129500Y-114260000D01*
%TO.N,Net-(D4-RA)*%
X139509500Y-118070000D02*
X140779500Y-119340000D01*
X140779500Y-119340000D02*
X141349500Y-119340000D01*
X139509500Y-115276000D02*
X139509500Y-118070000D01*
%TO.N,Net-(U1-GPIO19{slash}D8{slash}SCK)*%
X139509500Y-112351000D02*
X139509500Y-107910000D01*
%TO.N,Net-(U1-GPIO20{slash}D9{slash}MISO)*%
X143188500Y-105370000D02*
X139509500Y-105370000D01*
%TO.N,Net-(D4-BA)*%
X149669500Y-105370000D02*
X146113500Y-105370000D01*
%TO.N,Net-(U1-GPIO18{slash}D10{slash}MOSI)*%
X149669500Y-112351000D02*
X149669500Y-107910000D01*
%TO.N,Net-(D4-GA)*%
X149669500Y-118070000D02*
X148399500Y-119340000D01*
X148399500Y-119340000D02*
X147826500Y-119340000D01*
X149669500Y-115276000D02*
X149669500Y-118070000D01*
%TO.N,Net-(M1--)*%
X131889500Y-102830000D02*
X131889500Y-99020000D01*
X133159500Y-104100000D02*
X131889500Y-102830000D01*
%TO.N,+3.3V*%
X133159500Y-118070000D02*
X140779500Y-125690000D01*
X133159500Y-106640000D02*
X133159500Y-118070000D01*
X150939500Y-125690000D02*
X153479500Y-123150000D01*
X140779500Y-125690000D02*
X150939500Y-125690000D01*
%TO.N,Net-(D2-K)*%
X153044500Y-111760000D02*
X152209500Y-111760000D01*
%TO.N,Net-(D4-RA)*%
X140041000Y-118070000D02*
X139509500Y-118070000D01*
%TO.N,+3.3V*%
X133159500Y-106640000D02*
X133159500Y-106400000D01*
%TO.N,Net-(Q2-B)*%
X154869500Y-104855000D02*
X153044500Y-106680000D01*
X154869500Y-95280500D02*
X154869500Y-104855000D01*
X157480000Y-92670000D02*
X154869500Y-95280500D01*
%TO.N,Net-(M2--)*%
X156019500Y-102830000D02*
X160020000Y-98829500D01*
X156019500Y-104100000D02*
X156019500Y-102830000D01*
X160020000Y-98829500D02*
X160020000Y-90130000D01*
%TO.N,Net-(J2-Pin_1)*%
X166059500Y-108260500D02*
X162560000Y-111760000D01*
X164909500Y-101560000D02*
X166059500Y-102710000D01*
X166059500Y-102710000D02*
X166059500Y-108260500D01*
%TO.N,Net-(D1-A)*%
X131889500Y-96480000D02*
X136969500Y-91400000D01*
%TO.N,+3.3V*%
X162369500Y-106640000D02*
X164909500Y-104100000D01*
X156019500Y-106640000D02*
X162369500Y-106640000D01*
%TD*%
%TA.AperFunction,Conductor*%
%TO.N,GND*%
G36*
X148206442Y-107300185D02*
G01*
X148227084Y-107316819D01*
X148377558Y-107467293D01*
X148411043Y-107528616D01*
X148409652Y-107587067D01*
X148383866Y-107683302D01*
X148383864Y-107683313D01*
X148364032Y-107909998D01*
X148364032Y-107910001D01*
X148383864Y-108136686D01*
X148383866Y-108136697D01*
X148442758Y-108356488D01*
X148442761Y-108356497D01*
X148538931Y-108562732D01*
X148538932Y-108562734D01*
X148669454Y-108749141D01*
X148830358Y-108910045D01*
X148830361Y-108910047D01*
X149016124Y-109040118D01*
X149059748Y-109094693D01*
X149069000Y-109141692D01*
X149069000Y-111168411D01*
X149049315Y-111235450D01*
X148996511Y-111281205D01*
X148957602Y-111291769D01*
X148891702Y-111298501D01*
X148891700Y-111298501D01*
X148725168Y-111353685D01*
X148725163Y-111353687D01*
X148575842Y-111445789D01*
X148451789Y-111569842D01*
X148359687Y-111719163D01*
X148359685Y-111719168D01*
X148346156Y-111759997D01*
X148304501Y-111885703D01*
X148304501Y-111885704D01*
X148304500Y-111885704D01*
X148294000Y-111988483D01*
X148294000Y-112713501D01*
X148294001Y-112713519D01*
X148304500Y-112816296D01*
X148304501Y-112816299D01*
X148344326Y-112936481D01*
X148359686Y-112982834D01*
X148451788Y-113132156D01*
X148575844Y-113256212D01*
X148725166Y-113348314D01*
X148891703Y-113403499D01*
X148994491Y-113414000D01*
X150344508Y-113413999D01*
X150447297Y-113403499D01*
X150613834Y-113348314D01*
X150763156Y-113256212D01*
X150887212Y-113132156D01*
X150979314Y-112982834D01*
X151034499Y-112816297D01*
X151045000Y-112713509D01*
X151044999Y-112640306D01*
X151064683Y-112573269D01*
X151117486Y-112527513D01*
X151186644Y-112517569D01*
X151250201Y-112546593D01*
X151256666Y-112552612D01*
X151394880Y-112690826D01*
X151465746Y-112740446D01*
X151482289Y-112754328D01*
X151577553Y-112849592D01*
X151634002Y-112882976D01*
X151634496Y-112883268D01*
X151682179Y-112934338D01*
X151694682Y-113003079D01*
X151668036Y-113067669D01*
X151634496Y-113096732D01*
X151577553Y-113130408D01*
X151577546Y-113130413D01*
X151482292Y-113225666D01*
X151465737Y-113239558D01*
X151394882Y-113289172D01*
X151238672Y-113445381D01*
X151111966Y-113626338D01*
X151111965Y-113626340D01*
X151018607Y-113826548D01*
X151018604Y-113826554D01*
X150961430Y-114039929D01*
X150961429Y-114039937D01*
X150941705Y-114265393D01*
X150940344Y-114265273D01*
X150922492Y-114326073D01*
X150869688Y-114371828D01*
X150800530Y-114381772D01*
X150753081Y-114364573D01*
X150613840Y-114278689D01*
X150613835Y-114278687D01*
X150613834Y-114278686D01*
X150447297Y-114223501D01*
X150447295Y-114223500D01*
X150344510Y-114213000D01*
X148994498Y-114213000D01*
X148994481Y-114213001D01*
X148891703Y-114223500D01*
X148891700Y-114223501D01*
X148725168Y-114278685D01*
X148725163Y-114278687D01*
X148575842Y-114370789D01*
X148451789Y-114494842D01*
X148359687Y-114644163D01*
X148359686Y-114644166D01*
X148304501Y-114810703D01*
X148304501Y-114810704D01*
X148304500Y-114810704D01*
X148294000Y-114913483D01*
X148294000Y-115638501D01*
X148294001Y-115638519D01*
X148304500Y-115741296D01*
X148304501Y-115741299D01*
X148344116Y-115860848D01*
X148359686Y-115907834D01*
X148451788Y-116057156D01*
X148575844Y-116181212D01*
X148725166Y-116273314D01*
X148891703Y-116328499D01*
X148957603Y-116335231D01*
X149022294Y-116361627D01*
X149062445Y-116418807D01*
X149069000Y-116458589D01*
X149069000Y-116838306D01*
X149049315Y-116905345D01*
X149016123Y-116939881D01*
X148830359Y-117069953D01*
X148669454Y-117230858D01*
X148538932Y-117417265D01*
X148538931Y-117417267D01*
X148442761Y-117623502D01*
X148442758Y-117623511D01*
X148383866Y-117843302D01*
X148383864Y-117843312D01*
X148380076Y-117886610D01*
X148354622Y-117951679D01*
X148298031Y-117992656D01*
X148228269Y-117996533D01*
X148216286Y-117993083D01*
X148171481Y-117977701D01*
X147975286Y-117944963D01*
X147942549Y-117939500D01*
X147710451Y-117939500D01*
X147669096Y-117946401D01*
X147481515Y-117977702D01*
X147262004Y-118053061D01*
X147261995Y-118053064D01*
X147057871Y-118163531D01*
X147057865Y-118163535D01*
X146874722Y-118306081D01*
X146874718Y-118306084D01*
X146838230Y-118345722D01*
X146778343Y-118381713D01*
X146708504Y-118379612D01*
X146655770Y-118345722D01*
X146619281Y-118306084D01*
X146619277Y-118306081D01*
X146436134Y-118163535D01*
X146436128Y-118163531D01*
X146232004Y-118053064D01*
X146231995Y-118053061D01*
X146012484Y-117977702D01*
X145824904Y-117946401D01*
X145783549Y-117939500D01*
X145551451Y-117939500D01*
X145510096Y-117946401D01*
X145322515Y-117977702D01*
X145103004Y-118053061D01*
X145102990Y-118053067D01*
X144941229Y-118140607D01*
X144872901Y-118155202D01*
X144807529Y-118130539D01*
X144782945Y-118105863D01*
X144765686Y-118082809D01*
X144650593Y-117996649D01*
X144650586Y-117996645D01*
X144515879Y-117946403D01*
X144515872Y-117946401D01*
X144456344Y-117940000D01*
X143758500Y-117940000D01*
X143758500Y-118964722D01*
X143682194Y-118920667D01*
X143567744Y-118890000D01*
X143449256Y-118890000D01*
X143334806Y-118920667D01*
X143258500Y-118964722D01*
X143258500Y-117940000D01*
X142560655Y-117940000D01*
X142501127Y-117946401D01*
X142501120Y-117946403D01*
X142366413Y-117996645D01*
X142366406Y-117996649D01*
X142251312Y-118082809D01*
X142251310Y-118082811D01*
X142234052Y-118105865D01*
X142178117Y-118147735D01*
X142108426Y-118152718D01*
X142075770Y-118140607D01*
X141914009Y-118053067D01*
X141914006Y-118053066D01*
X141914003Y-118053064D01*
X141913997Y-118053062D01*
X141913995Y-118053061D01*
X141694484Y-117977702D01*
X141506904Y-117946401D01*
X141465549Y-117939500D01*
X141233451Y-117939500D01*
X141195295Y-117945867D01*
X141004514Y-117977702D01*
X140962623Y-117992083D01*
X140892824Y-117995231D01*
X140832404Y-117960144D01*
X140800545Y-117897960D01*
X140798836Y-117885618D01*
X140795135Y-117843308D01*
X140736239Y-117623504D01*
X140640068Y-117417266D01*
X140509547Y-117230861D01*
X140509545Y-117230858D01*
X140348640Y-117069953D01*
X140162877Y-116939881D01*
X140119252Y-116885304D01*
X140110000Y-116838306D01*
X140110000Y-116458588D01*
X140129685Y-116391549D01*
X140182489Y-116345794D01*
X140221397Y-116335230D01*
X140287297Y-116328499D01*
X140453834Y-116273314D01*
X140603156Y-116181212D01*
X140727212Y-116057156D01*
X140819314Y-115907834D01*
X140874499Y-115741297D01*
X140885000Y-115638509D01*
X140884999Y-114913492D01*
X140882973Y-114893662D01*
X140874499Y-114810703D01*
X140874498Y-114810700D01*
X140853168Y-114746331D01*
X140819314Y-114644166D01*
X140727212Y-114494844D01*
X140603156Y-114370788D01*
X140453834Y-114278686D01*
X140397431Y-114259996D01*
X141243935Y-114259996D01*
X141243935Y-114260003D01*
X141264130Y-114439249D01*
X141264131Y-114439254D01*
X141323711Y-114609523D01*
X141380562Y-114700000D01*
X141419684Y-114762262D01*
X141547238Y-114889816D01*
X141699978Y-114985789D01*
X141870245Y-115045368D01*
X141870250Y-115045369D01*
X142049496Y-115065565D01*
X142049500Y-115065565D01*
X142049504Y-115065565D01*
X142228749Y-115045369D01*
X142228752Y-115045368D01*
X142228755Y-115045368D01*
X142399022Y-114985789D01*
X142551762Y-114889816D01*
X142551767Y-114889810D01*
X142554597Y-114887555D01*
X142556775Y-114886665D01*
X142557658Y-114886111D01*
X142557755Y-114886265D01*
X142619283Y-114861145D01*
X142631912Y-114860500D01*
X146546560Y-114860500D01*
X146613599Y-114880185D01*
X146634241Y-114896819D01*
X146667238Y-114929816D01*
X146819978Y-115025789D01*
X146959529Y-115074620D01*
X146990245Y-115085368D01*
X146990250Y-115085369D01*
X147169496Y-115105565D01*
X147169500Y-115105565D01*
X147169504Y-115105565D01*
X147348749Y-115085369D01*
X147348752Y-115085368D01*
X147348755Y-115085368D01*
X147519022Y-115025789D01*
X147671762Y-114929816D01*
X147799316Y-114802262D01*
X147895289Y-114649522D01*
X147954868Y-114479255D01*
X147965852Y-114381772D01*
X147975065Y-114300003D01*
X147975065Y-114299996D01*
X147954869Y-114120750D01*
X147954868Y-114120745D01*
X147922588Y-114028495D01*
X147895289Y-113950478D01*
X147799316Y-113797738D01*
X147671762Y-113670184D01*
X147635686Y-113647516D01*
X147519023Y-113574211D01*
X147348754Y-113514631D01*
X147348749Y-113514630D01*
X147169504Y-113494435D01*
X147169496Y-113494435D01*
X146990250Y-113514630D01*
X146990237Y-113514633D01*
X146819981Y-113574209D01*
X146819977Y-113574210D01*
X146714489Y-113640494D01*
X146648517Y-113659500D01*
X142631912Y-113659500D01*
X142564873Y-113639815D01*
X142554597Y-113632445D01*
X142551763Y-113630185D01*
X142551762Y-113630184D01*
X142494996Y-113594515D01*
X142399023Y-113534211D01*
X142228754Y-113474631D01*
X142228749Y-113474630D01*
X142049504Y-113454435D01*
X142049496Y-113454435D01*
X141870250Y-113474630D01*
X141870245Y-113474631D01*
X141699976Y-113534211D01*
X141547237Y-113630184D01*
X141419684Y-113757737D01*
X141323711Y-113910476D01*
X141264131Y-114080745D01*
X141264130Y-114080750D01*
X141243935Y-114259996D01*
X140397431Y-114259996D01*
X140287297Y-114223501D01*
X140287295Y-114223500D01*
X140184510Y-114213000D01*
X138834498Y-114213000D01*
X138834481Y-114213001D01*
X138731703Y-114223500D01*
X138731700Y-114223501D01*
X138565168Y-114278685D01*
X138565159Y-114278689D01*
X138425919Y-114364573D01*
X138358527Y-114383013D01*
X138291863Y-114362090D01*
X138247094Y-114308448D01*
X138238129Y-114265319D01*
X138237295Y-114265393D01*
X138221141Y-114080750D01*
X138217570Y-114039932D01*
X138160394Y-113826550D01*
X138067034Y-113626339D01*
X137988817Y-113514633D01*
X137940327Y-113445381D01*
X137883987Y-113389041D01*
X137784120Y-113289174D01*
X137784116Y-113289171D01*
X137784115Y-113289170D01*
X137713261Y-113239558D01*
X137696708Y-113225669D01*
X137601447Y-113130408D01*
X137544011Y-113096440D01*
X137496329Y-113045371D01*
X137483826Y-112976630D01*
X137510472Y-112912040D01*
X137544014Y-112882976D01*
X137601135Y-112849195D01*
X137673139Y-112777191D01*
X137053595Y-112157647D01*
X137141071Y-112134208D01*
X137242430Y-112075689D01*
X137325189Y-111992930D01*
X137383708Y-111891571D01*
X137407147Y-111804094D01*
X138029199Y-112426146D01*
X138067691Y-112433882D01*
X138117875Y-112482497D01*
X138134000Y-112543643D01*
X138134000Y-112713500D01*
X138134001Y-112713519D01*
X138144500Y-112816296D01*
X138144501Y-112816299D01*
X138184326Y-112936481D01*
X138199686Y-112982834D01*
X138291788Y-113132156D01*
X138415844Y-113256212D01*
X138565166Y-113348314D01*
X138731703Y-113403499D01*
X138834491Y-113414000D01*
X140184508Y-113413999D01*
X140287297Y-113403499D01*
X140453834Y-113348314D01*
X140603156Y-113256212D01*
X140727212Y-113132156D01*
X140819314Y-112982834D01*
X140874499Y-112816297D01*
X140885000Y-112713509D01*
X140884999Y-111988492D01*
X140884285Y-111981506D01*
X140874499Y-111885703D01*
X140874498Y-111885700D01*
X140861331Y-111845965D01*
X140819314Y-111719166D01*
X140727212Y-111569844D01*
X140603156Y-111445788D01*
X140510388Y-111388569D01*
X140453836Y-111353687D01*
X140453831Y-111353685D01*
X140446920Y-111351395D01*
X140287297Y-111298501D01*
X140287294Y-111298500D01*
X140221397Y-111291768D01*
X140156705Y-111265371D01*
X140116554Y-111208190D01*
X140110000Y-111168410D01*
X140110000Y-109141692D01*
X140129685Y-109074653D01*
X140162874Y-109040119D01*
X140348639Y-108910047D01*
X140509547Y-108749139D01*
X140640068Y-108562734D01*
X140736239Y-108356496D01*
X140795135Y-108136692D01*
X140814968Y-107910000D01*
X140810030Y-107853564D01*
X140799424Y-107732331D01*
X140795135Y-107683308D01*
X140741755Y-107484091D01*
X140736241Y-107463511D01*
X140736236Y-107463496D01*
X140733161Y-107456902D01*
X140722670Y-107387824D01*
X140751192Y-107324041D01*
X140809669Y-107285803D01*
X140845544Y-107280500D01*
X148139403Y-107280500D01*
X148206442Y-107300185D01*
G37*
%TD.AperFunction*%
%TA.AperFunction,Conductor*%
G36*
X138240495Y-107300185D02*
G01*
X138286250Y-107352989D01*
X138296194Y-107422147D01*
X138285839Y-107456902D01*
X138282763Y-107463496D01*
X138282758Y-107463511D01*
X138223866Y-107683302D01*
X138223864Y-107683313D01*
X138204032Y-107909998D01*
X138204032Y-107910001D01*
X138223864Y-108136686D01*
X138223866Y-108136697D01*
X138282758Y-108356488D01*
X138282761Y-108356497D01*
X138378931Y-108562732D01*
X138378932Y-108562734D01*
X138509454Y-108749141D01*
X138670358Y-108910045D01*
X138670361Y-108910047D01*
X138856124Y-109040118D01*
X138899748Y-109094693D01*
X138909000Y-109141692D01*
X138909000Y-111168411D01*
X138889315Y-111235450D01*
X138836511Y-111281205D01*
X138797602Y-111291769D01*
X138731702Y-111298501D01*
X138731700Y-111298501D01*
X138565168Y-111353685D01*
X138565163Y-111353687D01*
X138415842Y-111445789D01*
X138399485Y-111462146D01*
X138338161Y-111495630D01*
X138268470Y-111490644D01*
X138212537Y-111448771D01*
X138192031Y-111406556D01*
X138159924Y-111286729D01*
X138159920Y-111286720D01*
X138066596Y-111086586D01*
X138021241Y-111021811D01*
X138021240Y-111021810D01*
X137407147Y-111635904D01*
X137383708Y-111548429D01*
X137325189Y-111447070D01*
X137242430Y-111364311D01*
X137141071Y-111305792D01*
X137053594Y-111282352D01*
X137673139Y-110662807D01*
X137601139Y-110590807D01*
X137601134Y-110590803D01*
X137544013Y-110557022D01*
X137496329Y-110505953D01*
X137483826Y-110437211D01*
X137510472Y-110372622D01*
X137544014Y-110343558D01*
X137544673Y-110343168D01*
X137601447Y-110309592D01*
X137696710Y-110214327D01*
X137713256Y-110200443D01*
X137784120Y-110150826D01*
X137940326Y-109994620D01*
X138067034Y-109813662D01*
X138160394Y-109613450D01*
X138217570Y-109400068D01*
X138236823Y-109180000D01*
X138217570Y-108959932D01*
X138160394Y-108746550D01*
X138067034Y-108546339D01*
X137951164Y-108380858D01*
X137940327Y-108365381D01*
X137883987Y-108309041D01*
X137784120Y-108209174D01*
X137784116Y-108209171D01*
X137784115Y-108209170D01*
X137713261Y-108159558D01*
X137696708Y-108145669D01*
X137601447Y-108050408D01*
X137596462Y-108047460D01*
X137544504Y-108016732D01*
X137496821Y-107965663D01*
X137484317Y-107896921D01*
X137510962Y-107832332D01*
X137544504Y-107803268D01*
X137601447Y-107769592D01*
X137696710Y-107674327D01*
X137713256Y-107660443D01*
X137784120Y-107610826D01*
X137940326Y-107454620D01*
X138025221Y-107333376D01*
X138079798Y-107289752D01*
X138126796Y-107280500D01*
X138173456Y-107280500D01*
X138240495Y-107300185D01*
G37*
%TD.AperFunction*%
%TA.AperFunction,Conductor*%
G36*
X137803390Y-91843710D02*
G01*
X137810831Y-91850567D01*
X139058932Y-93098668D01*
X139092417Y-93159991D01*
X139087433Y-93229683D01*
X139045561Y-93285616D01*
X139037224Y-93291342D01*
X139007240Y-93310182D01*
X139007237Y-93310184D01*
X138879684Y-93437737D01*
X138783711Y-93590476D01*
X138724131Y-93760745D01*
X138724130Y-93760750D01*
X138703935Y-93939996D01*
X138703935Y-93940003D01*
X138724130Y-94119249D01*
X138724131Y-94119254D01*
X138783711Y-94289523D01*
X138879685Y-94442263D01*
X138881945Y-94445097D01*
X138882834Y-94447275D01*
X138883389Y-94448158D01*
X138883234Y-94448255D01*
X138908355Y-94509783D01*
X138909000Y-94522412D01*
X138909000Y-97167587D01*
X138889315Y-97234626D01*
X138881950Y-97244896D01*
X138879686Y-97247734D01*
X138783711Y-97400476D01*
X138724131Y-97570745D01*
X138724130Y-97570750D01*
X138703935Y-97749996D01*
X138703935Y-97750003D01*
X138724130Y-97929249D01*
X138724131Y-97929254D01*
X138783711Y-98099523D01*
X138866023Y-98230521D01*
X138879684Y-98252262D01*
X139007238Y-98379816D01*
X139159978Y-98475789D01*
X139313195Y-98529402D01*
X139330245Y-98535368D01*
X139330250Y-98535369D01*
X139509496Y-98555565D01*
X139509500Y-98555565D01*
X139509504Y-98555565D01*
X139688749Y-98535369D01*
X139688752Y-98535368D01*
X139688755Y-98535368D01*
X139859022Y-98475789D01*
X140011762Y-98379816D01*
X140139316Y-98252262D01*
X140235289Y-98099522D01*
X140294868Y-97929255D01*
X140294869Y-97929249D01*
X140315065Y-97750003D01*
X140315065Y-97749996D01*
X140294869Y-97570750D01*
X140294868Y-97570745D01*
X140243428Y-97423739D01*
X140235289Y-97400478D01*
X140139316Y-97247738D01*
X140139314Y-97247736D01*
X140139313Y-97247734D01*
X140137050Y-97244896D01*
X140136159Y-97242715D01*
X140135611Y-97241842D01*
X140135764Y-97241745D01*
X140110644Y-97180209D01*
X140110000Y-97167587D01*
X140110000Y-94522412D01*
X140129685Y-94455373D01*
X140137055Y-94445097D01*
X140139315Y-94442263D01*
X140139316Y-94442262D01*
X140158157Y-94412275D01*
X140210488Y-94365986D01*
X140279541Y-94355336D01*
X140343390Y-94383710D01*
X140350831Y-94390567D01*
X142070784Y-96110520D01*
X142070786Y-96110521D01*
X142070790Y-96110524D01*
X142178991Y-96172993D01*
X142207716Y-96189577D01*
X142360443Y-96230501D01*
X142360445Y-96230501D01*
X142526154Y-96230501D01*
X142526170Y-96230500D01*
X143139403Y-96230500D01*
X143206442Y-96250185D01*
X143227084Y-96266819D01*
X148465125Y-101504860D01*
X148498610Y-101566183D01*
X148493626Y-101635875D01*
X148451754Y-101691808D01*
X148386290Y-101716225D01*
X148318017Y-101701373D01*
X148306320Y-101694116D01*
X148241982Y-101649065D01*
X148035828Y-101552934D01*
X147839500Y-101500327D01*
X147839500Y-102463514D01*
X147835106Y-102459120D01*
X147743894Y-102406459D01*
X147642161Y-102379200D01*
X147536839Y-102379200D01*
X147435106Y-102406459D01*
X147343894Y-102459120D01*
X147339500Y-102463514D01*
X147339500Y-101500327D01*
X147143171Y-101552934D01*
X146937017Y-101649065D01*
X146750679Y-101779542D01*
X146589842Y-101940379D01*
X146459365Y-102126717D01*
X146363234Y-102332873D01*
X146363230Y-102332882D01*
X146310627Y-102529199D01*
X146310628Y-102529200D01*
X147273814Y-102529200D01*
X147269420Y-102533594D01*
X147216759Y-102624806D01*
X147189500Y-102726539D01*
X147189500Y-102831861D01*
X147216759Y-102933594D01*
X147269420Y-103024806D01*
X147273814Y-103029200D01*
X146310628Y-103029200D01*
X146363230Y-103225517D01*
X146363234Y-103225526D01*
X146459365Y-103431682D01*
X146589842Y-103618020D01*
X146750679Y-103778857D01*
X146824765Y-103830733D01*
X146868389Y-103885310D01*
X146875582Y-103954809D01*
X146844060Y-104017163D01*
X146783830Y-104052577D01*
X146714637Y-104050014D01*
X146699943Y-104045145D01*
X146578797Y-104005001D01*
X146578795Y-104005000D01*
X146476010Y-103994500D01*
X145750998Y-103994500D01*
X145750980Y-103994501D01*
X145648203Y-104005000D01*
X145648200Y-104005001D01*
X145481668Y-104060185D01*
X145481663Y-104060187D01*
X145332342Y-104152289D01*
X145208289Y-104276342D01*
X145116187Y-104425663D01*
X145116186Y-104425666D01*
X145061001Y-104592203D01*
X145061001Y-104592204D01*
X145061000Y-104592204D01*
X145050500Y-104694983D01*
X145050500Y-104694991D01*
X145050500Y-105369999D01*
X145050501Y-105955500D01*
X145030816Y-106022539D01*
X144978013Y-106068294D01*
X144926501Y-106079500D01*
X144375500Y-106079500D01*
X144308461Y-106059815D01*
X144262706Y-106007011D01*
X144251500Y-105955500D01*
X144251499Y-104694998D01*
X144251498Y-104694981D01*
X144240999Y-104592203D01*
X144240998Y-104592200D01*
X144221528Y-104533445D01*
X144185814Y-104425666D01*
X144093712Y-104276344D01*
X143969656Y-104152288D01*
X143820334Y-104060186D01*
X143653797Y-104005001D01*
X143653795Y-104005000D01*
X143551010Y-103994500D01*
X142825998Y-103994500D01*
X142825980Y-103994501D01*
X142723203Y-104005000D01*
X142723200Y-104005001D01*
X142556668Y-104060185D01*
X142556663Y-104060187D01*
X142407342Y-104152289D01*
X142283289Y-104276342D01*
X142191187Y-104425663D01*
X142191186Y-104425666D01*
X142136002Y-104592202D01*
X142136001Y-104592204D01*
X142136000Y-104592205D01*
X142129268Y-104658103D01*
X142102871Y-104722795D01*
X142045690Y-104762946D01*
X142005910Y-104769500D01*
X140741192Y-104769500D01*
X140674153Y-104749815D01*
X140639619Y-104716625D01*
X140509547Y-104530861D01*
X140509545Y-104530858D01*
X140348641Y-104369954D01*
X140162234Y-104239432D01*
X140162232Y-104239431D01*
X139955997Y-104143261D01*
X139955988Y-104143258D01*
X139736197Y-104084366D01*
X139736193Y-104084365D01*
X139736192Y-104084365D01*
X139736191Y-104084364D01*
X139736186Y-104084364D01*
X139509502Y-104064532D01*
X139509498Y-104064532D01*
X139282813Y-104084364D01*
X139282802Y-104084366D01*
X139063011Y-104143258D01*
X139063002Y-104143261D01*
X138856767Y-104239431D01*
X138856765Y-104239432D01*
X138670358Y-104369954D01*
X138509454Y-104530858D01*
X138424963Y-104651525D01*
X138378932Y-104717266D01*
X138378931Y-104717267D01*
X138282761Y-104923502D01*
X138282758Y-104923511D01*
X138223866Y-105143302D01*
X138223864Y-105143313D01*
X138204032Y-105369998D01*
X138204032Y-105370001D01*
X138223864Y-105596686D01*
X138223866Y-105596697D01*
X138282758Y-105816488D01*
X138282760Y-105816492D01*
X138282761Y-105816496D01*
X138304756Y-105863664D01*
X138323143Y-105903095D01*
X138333635Y-105972173D01*
X138305115Y-106035957D01*
X138246639Y-106074196D01*
X138210761Y-106079500D01*
X138180146Y-106079500D01*
X138113107Y-106059815D01*
X138070242Y-106010740D01*
X138069742Y-106011029D01*
X138068273Y-106008486D01*
X138067761Y-106007899D01*
X138067347Y-106007011D01*
X138067034Y-106006339D01*
X138043111Y-105972173D01*
X137940327Y-105825381D01*
X137883545Y-105768599D01*
X137784120Y-105669174D01*
X137784116Y-105669171D01*
X137784115Y-105669170D01*
X137713261Y-105619558D01*
X137696708Y-105605669D01*
X137601447Y-105510408D01*
X137544503Y-105476731D01*
X137496821Y-105425663D01*
X137484317Y-105356921D01*
X137510962Y-105292332D01*
X137544504Y-105263268D01*
X137601447Y-105229592D01*
X137696710Y-105134327D01*
X137713256Y-105120443D01*
X137784120Y-105070826D01*
X137940326Y-104914620D01*
X138067034Y-104733662D01*
X138160394Y-104533450D01*
X138217570Y-104320068D01*
X138236167Y-104107500D01*
X138236823Y-104100002D01*
X138236823Y-104099997D01*
X138228427Y-104004035D01*
X138217570Y-103879932D01*
X138160394Y-103666550D01*
X138067034Y-103466339D01*
X137951986Y-103302032D01*
X137940327Y-103285381D01*
X137880463Y-103225517D01*
X137784120Y-103129174D01*
X137784116Y-103129171D01*
X137784115Y-103129170D01*
X137713261Y-103079558D01*
X137696708Y-103065669D01*
X137601447Y-102970408D01*
X137544503Y-102936731D01*
X137496821Y-102885663D01*
X137484317Y-102816921D01*
X137510962Y-102752332D01*
X137544504Y-102723268D01*
X137584727Y-102699480D01*
X137601447Y-102689592D01*
X137696710Y-102594327D01*
X137713256Y-102580443D01*
X137713890Y-102579999D01*
X140310627Y-102579999D01*
X140310628Y-102580000D01*
X141273814Y-102580000D01*
X141269420Y-102584394D01*
X141216759Y-102675606D01*
X141189500Y-102777339D01*
X141189500Y-102882661D01*
X141216759Y-102984394D01*
X141269420Y-103075606D01*
X141273814Y-103080000D01*
X140310628Y-103080000D01*
X140363230Y-103276317D01*
X140363234Y-103276326D01*
X140459365Y-103482482D01*
X140589842Y-103668820D01*
X140750679Y-103829657D01*
X140937017Y-103960134D01*
X141143173Y-104056265D01*
X141143182Y-104056269D01*
X141339499Y-104108872D01*
X141339500Y-104108871D01*
X141339500Y-103145686D01*
X141343894Y-103150080D01*
X141435106Y-103202741D01*
X141536839Y-103230000D01*
X141642161Y-103230000D01*
X141743894Y-103202741D01*
X141835106Y-103150080D01*
X141839500Y-103145686D01*
X141839500Y-104108872D01*
X142035817Y-104056269D01*
X142035826Y-104056265D01*
X142241982Y-103960134D01*
X142428320Y-103829657D01*
X142589157Y-103668820D01*
X142719634Y-103482482D01*
X142815765Y-103276326D01*
X142815769Y-103276317D01*
X142868372Y-103080000D01*
X141905186Y-103080000D01*
X141909580Y-103075606D01*
X141962241Y-102984394D01*
X141989500Y-102882661D01*
X141989500Y-102777339D01*
X141962241Y-102675606D01*
X141909580Y-102584394D01*
X141905186Y-102580000D01*
X142868372Y-102580000D01*
X142868372Y-102579999D01*
X142815769Y-102383682D01*
X142815765Y-102383673D01*
X142719634Y-102177517D01*
X142589157Y-101991179D01*
X142428320Y-101830342D01*
X142241982Y-101699865D01*
X142035828Y-101603734D01*
X141839500Y-101551127D01*
X141839500Y-102514314D01*
X141835106Y-102509920D01*
X141743894Y-102457259D01*
X141642161Y-102430000D01*
X141536839Y-102430000D01*
X141435106Y-102457259D01*
X141343894Y-102509920D01*
X141339500Y-102514314D01*
X141339500Y-101551127D01*
X141143171Y-101603734D01*
X140937017Y-101699865D01*
X140750679Y-101830342D01*
X140589842Y-101991179D01*
X140459365Y-102177517D01*
X140363234Y-102383673D01*
X140363230Y-102383682D01*
X140310627Y-102579999D01*
X137713890Y-102579999D01*
X137784120Y-102530826D01*
X137940326Y-102374620D01*
X138067034Y-102193662D01*
X138160394Y-101993450D01*
X138217570Y-101780068D01*
X138236823Y-101560000D01*
X138236481Y-101556094D01*
X138217570Y-101339937D01*
X138217570Y-101339932D01*
X138160394Y-101126550D01*
X138067034Y-100926339D01*
X137940326Y-100745380D01*
X137784120Y-100589174D01*
X137784116Y-100589171D01*
X137784115Y-100589170D01*
X137713261Y-100539558D01*
X137696708Y-100525669D01*
X137601447Y-100430408D01*
X137544503Y-100396731D01*
X137496821Y-100345663D01*
X137484317Y-100276921D01*
X137510962Y-100212332D01*
X137544504Y-100183268D01*
X137586533Y-100158412D01*
X137601447Y-100149592D01*
X137696710Y-100054327D01*
X137713256Y-100040443D01*
X137784120Y-99990826D01*
X137940326Y-99834620D01*
X138067034Y-99653662D01*
X138160394Y-99453450D01*
X138217570Y-99240068D01*
X138236823Y-99020000D01*
X138217570Y-98799932D01*
X138160394Y-98586550D01*
X138067034Y-98386339D01*
X137962876Y-98237585D01*
X137940327Y-98205381D01*
X137883987Y-98149041D01*
X137784120Y-98049174D01*
X137784116Y-98049171D01*
X137784115Y-98049170D01*
X137713261Y-97999558D01*
X137696708Y-97985669D01*
X137601447Y-97890408D01*
X137601446Y-97890407D01*
X137601443Y-97890405D01*
X137459457Y-97806435D01*
X137459454Y-97806434D01*
X137301052Y-97760413D01*
X137301046Y-97760412D01*
X137264041Y-97757500D01*
X137264034Y-97757500D01*
X137030040Y-97757500D01*
X137019233Y-97757028D01*
X136995250Y-97754929D01*
X136969501Y-97752677D01*
X136969499Y-97752677D01*
X136943749Y-97754929D01*
X136919766Y-97757028D01*
X136908960Y-97757500D01*
X135004958Y-97757500D01*
X134967953Y-97760412D01*
X134967947Y-97760413D01*
X134809545Y-97806434D01*
X134809542Y-97806435D01*
X134667556Y-97890405D01*
X134667547Y-97890412D01*
X134550912Y-98007047D01*
X134550908Y-98007053D01*
X134526326Y-98048619D01*
X134475256Y-98096302D01*
X134406515Y-98108805D01*
X134341925Y-98082159D01*
X134331913Y-98073178D01*
X133222266Y-96963531D01*
X133188781Y-96902208D01*
X133190172Y-96843757D01*
X133206910Y-96781290D01*
X133224563Y-96715408D01*
X133245159Y-96480000D01*
X133224563Y-96244592D01*
X133190171Y-96116239D01*
X133191834Y-96046393D01*
X133222263Y-95996470D01*
X136988035Y-92230698D01*
X137049356Y-92197215D01*
X137061811Y-92195163D01*
X137148755Y-92185368D01*
X137319022Y-92125789D01*
X137471762Y-92029816D01*
X137599316Y-91902262D01*
X137618157Y-91872275D01*
X137670488Y-91825986D01*
X137739541Y-91815336D01*
X137803390Y-91843710D01*
G37*
%TD.AperFunction*%
%TA.AperFunction,Conductor*%
G36*
X148853580Y-101894395D02*
G01*
X148863839Y-101903574D01*
X150352681Y-103392416D01*
X150386166Y-103453739D01*
X150389000Y-103480097D01*
X150389000Y-104075924D01*
X150369315Y-104142963D01*
X150316511Y-104188718D01*
X150247353Y-104198662D01*
X150212595Y-104188306D01*
X150188345Y-104176998D01*
X150115996Y-104143261D01*
X150115992Y-104143260D01*
X150115988Y-104143258D01*
X149896197Y-104084366D01*
X149896193Y-104084365D01*
X149896192Y-104084365D01*
X149896191Y-104084364D01*
X149896186Y-104084364D01*
X149669502Y-104064532D01*
X149669498Y-104064532D01*
X149442813Y-104084364D01*
X149442802Y-104084366D01*
X149223011Y-104143258D01*
X149223002Y-104143261D01*
X149016767Y-104239431D01*
X149016765Y-104239432D01*
X148830358Y-104369954D01*
X148669454Y-104530858D01*
X148592950Y-104640118D01*
X148539381Y-104716624D01*
X148484807Y-104760248D01*
X148437808Y-104769500D01*
X147296089Y-104769500D01*
X147229050Y-104749815D01*
X147183295Y-104697011D01*
X147172731Y-104658102D01*
X147170839Y-104639591D01*
X147165999Y-104592203D01*
X147110814Y-104425666D01*
X147018712Y-104276344D01*
X146899675Y-104157307D01*
X146866190Y-104095984D01*
X146871174Y-104026292D01*
X146913046Y-103970359D01*
X146978510Y-103945942D01*
X147039761Y-103957244D01*
X147143173Y-104005465D01*
X147143182Y-104005469D01*
X147339499Y-104058072D01*
X147339500Y-104058071D01*
X147339500Y-103094886D01*
X147343894Y-103099280D01*
X147435106Y-103151941D01*
X147536839Y-103179200D01*
X147642161Y-103179200D01*
X147743894Y-103151941D01*
X147835106Y-103099280D01*
X147839500Y-103094886D01*
X147839500Y-104058072D01*
X148035817Y-104005469D01*
X148035826Y-104005465D01*
X148241982Y-103909334D01*
X148428320Y-103778857D01*
X148589157Y-103618020D01*
X148719634Y-103431682D01*
X148815765Y-103225526D01*
X148815769Y-103225517D01*
X148868372Y-103029200D01*
X147905186Y-103029200D01*
X147909580Y-103024806D01*
X147962241Y-102933594D01*
X147989500Y-102831861D01*
X147989500Y-102726539D01*
X147962241Y-102624806D01*
X147909580Y-102533594D01*
X147905186Y-102529200D01*
X148868372Y-102529200D01*
X148868372Y-102529199D01*
X148815769Y-102332882D01*
X148815765Y-102332873D01*
X148719633Y-102126716D01*
X148719629Y-102126710D01*
X148674584Y-102062379D01*
X148652256Y-101996173D01*
X148669266Y-101928406D01*
X148720213Y-101880592D01*
X148788923Y-101867914D01*
X148853580Y-101894395D01*
G37*
%TD.AperFunction*%
%TA.AperFunction,Conductor*%
G36*
X141801588Y-84400185D02*
G01*
X141847343Y-84452989D01*
X141857287Y-84522147D01*
X141828262Y-84585703D01*
X141786061Y-84617294D01*
X141776131Y-84621829D01*
X141776127Y-84621831D01*
X141729434Y-84659458D01*
X140388958Y-85999936D01*
X140388952Y-85999943D01*
X140351330Y-86046628D01*
X140351329Y-86046630D01*
X140291542Y-86177543D01*
X140271061Y-86320000D01*
X140291542Y-86462456D01*
X140326974Y-86540039D01*
X140336918Y-86609198D01*
X140307893Y-86672753D01*
X140249115Y-86710528D01*
X140214180Y-86715551D01*
X140137400Y-86715551D01*
X140091613Y-86723191D01*
X139908464Y-86753753D01*
X139688953Y-86829112D01*
X139688944Y-86829115D01*
X139484820Y-86939582D01*
X139484814Y-86939586D01*
X139301671Y-87082132D01*
X139301668Y-87082135D01*
X139144465Y-87252903D01*
X139017524Y-87447202D01*
X138924291Y-87659750D01*
X138867315Y-87884742D01*
X138867313Y-87884753D01*
X138848149Y-88116044D01*
X138848149Y-88116057D01*
X138867313Y-88347348D01*
X138867315Y-88347359D01*
X138924291Y-88572351D01*
X139017524Y-88784899D01*
X139144465Y-88979198D01*
X139144468Y-88979202D01*
X139144470Y-88979204D01*
X139301665Y-89149964D01*
X139301668Y-89149966D01*
X139301671Y-89149969D01*
X139484814Y-89292515D01*
X139484820Y-89292519D01*
X139484823Y-89292521D01*
X139688946Y-89402987D01*
X139802936Y-89442119D01*
X139908464Y-89478348D01*
X139908466Y-89478348D01*
X139908468Y-89478349D01*
X140137400Y-89516551D01*
X140137401Y-89516551D01*
X140369497Y-89516551D01*
X140369498Y-89516551D01*
X140598430Y-89478349D01*
X140817952Y-89402987D01*
X141022075Y-89292521D01*
X141205233Y-89149964D01*
X141362428Y-88979204D01*
X141489373Y-88784900D01*
X141582606Y-88572351D01*
X141639583Y-88347356D01*
X141656271Y-88145945D01*
X141681425Y-88080763D01*
X141737827Y-88039524D01*
X141807570Y-88035326D01*
X141831357Y-88043391D01*
X141907043Y-88077957D01*
X141907042Y-88077957D01*
X141924949Y-88080531D01*
X142049500Y-88098439D01*
X142191957Y-88077957D01*
X142322873Y-88018169D01*
X142369556Y-87980550D01*
X143710049Y-86640056D01*
X143747669Y-86593373D01*
X143807457Y-86462457D01*
X143827939Y-86320000D01*
X143807457Y-86177543D01*
X143747669Y-86046627D01*
X143710050Y-85999944D01*
X143710045Y-85999939D01*
X143710041Y-85999934D01*
X142369563Y-84659458D01*
X142369556Y-84659451D01*
X142322873Y-84621831D01*
X142322872Y-84621830D01*
X142316470Y-84618907D01*
X142312939Y-84617294D01*
X142260136Y-84571540D01*
X142240451Y-84504500D01*
X142260135Y-84437461D01*
X142312939Y-84391706D01*
X142364451Y-84380500D01*
X143019403Y-84380500D01*
X143086442Y-84400185D01*
X143107084Y-84416819D01*
X144876460Y-86186195D01*
X144909945Y-86247518D01*
X144912779Y-86273876D01*
X144912779Y-87849551D01*
X144912778Y-87849569D01*
X144912778Y-88015275D01*
X144912777Y-88015275D01*
X144922257Y-88050655D01*
X144953702Y-88168006D01*
X144960379Y-88179571D01*
X144960381Y-88179579D01*
X144960384Y-88179578D01*
X144982358Y-88217639D01*
X145032758Y-88304935D01*
X145032760Y-88304938D01*
X145151628Y-88423806D01*
X145151634Y-88423811D01*
X145222681Y-88494858D01*
X145256166Y-88556181D01*
X145259000Y-88582539D01*
X145259000Y-93853330D01*
X145258999Y-93853348D01*
X145258999Y-94019054D01*
X145258998Y-94019054D01*
X145258999Y-94019057D01*
X145299923Y-94171785D01*
X145308359Y-94186397D01*
X145328858Y-94221900D01*
X145328859Y-94221904D01*
X145328860Y-94221904D01*
X145378979Y-94308714D01*
X145378981Y-94308717D01*
X145497849Y-94427585D01*
X145497855Y-94427590D01*
X148432681Y-97362416D01*
X148466166Y-97423739D01*
X148469000Y-97450097D01*
X148469000Y-99510903D01*
X148449315Y-99577942D01*
X148396511Y-99623697D01*
X148327353Y-99633641D01*
X148263797Y-99604616D01*
X148257319Y-99598584D01*
X143927090Y-95268355D01*
X143927088Y-95268352D01*
X143808217Y-95149481D01*
X143808216Y-95149480D01*
X143721404Y-95099360D01*
X143721404Y-95099359D01*
X143721400Y-95099358D01*
X143671285Y-95070423D01*
X143518557Y-95029499D01*
X143360443Y-95029499D01*
X143352847Y-95029499D01*
X143352831Y-95029500D01*
X142739598Y-95029500D01*
X142672559Y-95009815D01*
X142651917Y-94993181D01*
X141808889Y-94150153D01*
X141775404Y-94088830D01*
X141780388Y-94019138D01*
X141822260Y-93963205D01*
X141864476Y-93942697D01*
X142035996Y-93896739D01*
X142242234Y-93800568D01*
X142428639Y-93670047D01*
X142589547Y-93509139D01*
X142720068Y-93322734D01*
X142816239Y-93116496D01*
X142875135Y-92896692D01*
X142894968Y-92670000D01*
X142875135Y-92443308D01*
X142828698Y-92270000D01*
X142816241Y-92223511D01*
X142816238Y-92223502D01*
X142770673Y-92125789D01*
X142720068Y-92017266D01*
X142612137Y-91863123D01*
X142589545Y-91830858D01*
X142428641Y-91669954D01*
X142242234Y-91539432D01*
X142242232Y-91539431D01*
X142035997Y-91443261D01*
X142035988Y-91443258D01*
X141816197Y-91384366D01*
X141816193Y-91384365D01*
X141816192Y-91384365D01*
X141816191Y-91384364D01*
X141816186Y-91384364D01*
X141589502Y-91364532D01*
X141589498Y-91364532D01*
X141362813Y-91384364D01*
X141362802Y-91384366D01*
X141143011Y-91443258D01*
X141143002Y-91443261D01*
X140936767Y-91539431D01*
X140936765Y-91539432D01*
X140750358Y-91669954D01*
X140589454Y-91830858D01*
X140458932Y-92017265D01*
X140458931Y-92017267D01*
X140362761Y-92223502D01*
X140362759Y-92223509D01*
X140316802Y-92395023D01*
X140280437Y-92454683D01*
X140217590Y-92485212D01*
X140148214Y-92476917D01*
X140109346Y-92450610D01*
X134962544Y-87303809D01*
X134942837Y-87278126D01*
X134938099Y-87269920D01*
X134910020Y-87221284D01*
X134798216Y-87109480D01*
X134798214Y-87109479D01*
X134798209Y-87109475D01*
X134661290Y-87030426D01*
X134661286Y-87030424D01*
X134661284Y-87030423D01*
X134508557Y-86989500D01*
X134508556Y-86989500D01*
X133250655Y-86989500D01*
X133183616Y-86969815D01*
X133149080Y-86936623D01*
X133041599Y-86783124D01*
X132969003Y-86710528D01*
X132886877Y-86628402D01*
X132707639Y-86502898D01*
X132707640Y-86502898D01*
X132707638Y-86502897D01*
X132608484Y-86456661D01*
X132509330Y-86410425D01*
X132509326Y-86410424D01*
X132509322Y-86410422D01*
X132297977Y-86353793D01*
X132080002Y-86334723D01*
X132079998Y-86334723D01*
X131946516Y-86346401D01*
X131862023Y-86353793D01*
X131862020Y-86353793D01*
X131650677Y-86410422D01*
X131650668Y-86410426D01*
X131452361Y-86502898D01*
X131452357Y-86502900D01*
X131273121Y-86628402D01*
X131118402Y-86783121D01*
X130992900Y-86962357D01*
X130992898Y-86962361D01*
X130900426Y-87160668D01*
X130900422Y-87160677D01*
X130843793Y-87372020D01*
X130843793Y-87372023D01*
X130824723Y-87590000D01*
X130842884Y-87797591D01*
X130843793Y-87807975D01*
X130843793Y-87807979D01*
X130900422Y-88019322D01*
X130900424Y-88019326D01*
X130900425Y-88019330D01*
X130915034Y-88050659D01*
X130992897Y-88217638D01*
X130992898Y-88217639D01*
X131118402Y-88396877D01*
X131273123Y-88551598D01*
X131452361Y-88677102D01*
X131650670Y-88769575D01*
X131862023Y-88826207D01*
X132044926Y-88842208D01*
X132079998Y-88845277D01*
X132080000Y-88845277D01*
X132080002Y-88845277D01*
X132108254Y-88842805D01*
X132297977Y-88826207D01*
X132509330Y-88769575D01*
X132707639Y-88677102D01*
X132886877Y-88551598D01*
X133041598Y-88396877D01*
X133149081Y-88243374D01*
X133203657Y-88199751D01*
X133250655Y-88190500D01*
X134099403Y-88190500D01*
X134166442Y-88210185D01*
X134187084Y-88226819D01*
X136518932Y-90558668D01*
X136552417Y-90619991D01*
X136547433Y-90689683D01*
X136505561Y-90745616D01*
X136497224Y-90751342D01*
X136467240Y-90770182D01*
X136467237Y-90770184D01*
X136339684Y-90897737D01*
X136243710Y-91050478D01*
X136184130Y-91220750D01*
X136174337Y-91307668D01*
X136147270Y-91372082D01*
X136138798Y-91381465D01*
X132373030Y-95147233D01*
X132311707Y-95180718D01*
X132253256Y-95179327D01*
X132124913Y-95144938D01*
X132124903Y-95144936D01*
X131889501Y-95124341D01*
X131889499Y-95124341D01*
X131654096Y-95144936D01*
X131654086Y-95144938D01*
X131425844Y-95206094D01*
X131425835Y-95206098D01*
X131211671Y-95305964D01*
X131211669Y-95305965D01*
X131018100Y-95441503D01*
X130895784Y-95563819D01*
X130834461Y-95597303D01*
X130764769Y-95592319D01*
X130708836Y-95550447D01*
X130691921Y-95519470D01*
X130642854Y-95387913D01*
X130642850Y-95387906D01*
X130556690Y-95272812D01*
X130556687Y-95272809D01*
X130441593Y-95186649D01*
X130441586Y-95186645D01*
X130306879Y-95136403D01*
X130306872Y-95136401D01*
X130247344Y-95130000D01*
X129599500Y-95130000D01*
X129599500Y-96046988D01*
X129542493Y-96014075D01*
X129415326Y-95980000D01*
X129283674Y-95980000D01*
X129156507Y-96014075D01*
X129099500Y-96046988D01*
X129099500Y-95130000D01*
X128451655Y-95130000D01*
X128392127Y-95136401D01*
X128392120Y-95136403D01*
X128257413Y-95186645D01*
X128257406Y-95186649D01*
X128142312Y-95272809D01*
X128142309Y-95272812D01*
X128056149Y-95387906D01*
X128056145Y-95387913D01*
X128007078Y-95519470D01*
X127965207Y-95575404D01*
X127899742Y-95599821D01*
X127831469Y-95584969D01*
X127803215Y-95563819D01*
X127752954Y-95513558D01*
X127680901Y-95441505D01*
X127680897Y-95441502D01*
X127680896Y-95441501D01*
X127487331Y-95305965D01*
X127487326Y-95305962D01*
X127481591Y-95303288D01*
X127429153Y-95257113D01*
X127410000Y-95190908D01*
X127410000Y-91872155D01*
X130830000Y-91872155D01*
X130830000Y-92420000D01*
X131764314Y-92420000D01*
X131759920Y-92424394D01*
X131707259Y-92515606D01*
X131680000Y-92617339D01*
X131680000Y-92722661D01*
X131707259Y-92824394D01*
X131759920Y-92915606D01*
X131764314Y-92920000D01*
X130830000Y-92920000D01*
X130830000Y-93467844D01*
X130836401Y-93527372D01*
X130836403Y-93527379D01*
X130886645Y-93662086D01*
X130886649Y-93662093D01*
X130972809Y-93777187D01*
X130972812Y-93777190D01*
X131087906Y-93863350D01*
X131087913Y-93863354D01*
X131222620Y-93913596D01*
X131222627Y-93913598D01*
X131282155Y-93919999D01*
X131282172Y-93920000D01*
X131830000Y-93920000D01*
X131830000Y-92985686D01*
X131834394Y-92990080D01*
X131925606Y-93042741D01*
X132027339Y-93070000D01*
X132132661Y-93070000D01*
X132234394Y-93042741D01*
X132325606Y-92990080D01*
X132330000Y-92985686D01*
X132330000Y-93920000D01*
X132877828Y-93920000D01*
X132877844Y-93919999D01*
X132937372Y-93913598D01*
X132937379Y-93913596D01*
X133072086Y-93863354D01*
X133072093Y-93863350D01*
X133187187Y-93777190D01*
X133187190Y-93777187D01*
X133273350Y-93662093D01*
X133273354Y-93662086D01*
X133323596Y-93527379D01*
X133323598Y-93527372D01*
X133329999Y-93467844D01*
X133330000Y-93467827D01*
X133330000Y-92920000D01*
X132395686Y-92920000D01*
X132400080Y-92915606D01*
X132452741Y-92824394D01*
X132480000Y-92722661D01*
X132480000Y-92617339D01*
X132452741Y-92515606D01*
X132400080Y-92424394D01*
X132395686Y-92420000D01*
X133330000Y-92420000D01*
X133330000Y-91872172D01*
X133329999Y-91872155D01*
X133323598Y-91812627D01*
X133323596Y-91812620D01*
X133273354Y-91677913D01*
X133273350Y-91677906D01*
X133187190Y-91562812D01*
X133187187Y-91562809D01*
X133072093Y-91476649D01*
X133072086Y-91476645D01*
X132937379Y-91426403D01*
X132937372Y-91426401D01*
X132877844Y-91420000D01*
X132330000Y-91420000D01*
X132330000Y-92354314D01*
X132325606Y-92349920D01*
X132234394Y-92297259D01*
X132132661Y-92270000D01*
X132027339Y-92270000D01*
X131925606Y-92297259D01*
X131834394Y-92349920D01*
X131830000Y-92354314D01*
X131830000Y-91420000D01*
X131282155Y-91420000D01*
X131222627Y-91426401D01*
X131222620Y-91426403D01*
X131087913Y-91476645D01*
X131087906Y-91476649D01*
X130972812Y-91562809D01*
X130972809Y-91562812D01*
X130886649Y-91677906D01*
X130886645Y-91677913D01*
X130836403Y-91812620D01*
X130836401Y-91812627D01*
X130830000Y-91872155D01*
X127410000Y-91872155D01*
X127410000Y-90129997D01*
X128284723Y-90129997D01*
X128284723Y-90130002D01*
X128303793Y-90347975D01*
X128303793Y-90347979D01*
X128360422Y-90559322D01*
X128360424Y-90559326D01*
X128360425Y-90559330D01*
X128388712Y-90619991D01*
X128452897Y-90757638D01*
X128452898Y-90757639D01*
X128578402Y-90936877D01*
X128733123Y-91091598D01*
X128912361Y-91217102D01*
X129110670Y-91309575D01*
X129322023Y-91366207D01*
X129504926Y-91382208D01*
X129539998Y-91385277D01*
X129540000Y-91385277D01*
X129540002Y-91385277D01*
X129568254Y-91382805D01*
X129757977Y-91366207D01*
X129969330Y-91309575D01*
X130167639Y-91217102D01*
X130346877Y-91091598D01*
X130501598Y-90936877D01*
X130627102Y-90757639D01*
X130719575Y-90559330D01*
X130776207Y-90347977D01*
X130795277Y-90130000D01*
X130793754Y-90112596D01*
X130791569Y-90087618D01*
X130776207Y-89912023D01*
X130719575Y-89700670D01*
X130627102Y-89502362D01*
X130627100Y-89502359D01*
X130627099Y-89502357D01*
X130501599Y-89323124D01*
X130470990Y-89292515D01*
X130346877Y-89168402D01*
X130167639Y-89042898D01*
X130167640Y-89042898D01*
X130167638Y-89042897D01*
X130068484Y-88996661D01*
X129969330Y-88950425D01*
X129969326Y-88950424D01*
X129969322Y-88950422D01*
X129757977Y-88893793D01*
X129540002Y-88874723D01*
X129539998Y-88874723D01*
X129394682Y-88887436D01*
X129322023Y-88893793D01*
X129322020Y-88893793D01*
X129110677Y-88950422D01*
X129110668Y-88950426D01*
X128912361Y-89042898D01*
X128912357Y-89042900D01*
X128733121Y-89168402D01*
X128578402Y-89323121D01*
X128452900Y-89502357D01*
X128452898Y-89502361D01*
X128360426Y-89700668D01*
X128360422Y-89700677D01*
X128303793Y-89912020D01*
X128303793Y-89912024D01*
X128284723Y-90129997D01*
X127410000Y-90129997D01*
X127410000Y-89160097D01*
X127429685Y-89093058D01*
X127446319Y-89072416D01*
X130831917Y-85686819D01*
X130893240Y-85653334D01*
X130919598Y-85650500D01*
X135612831Y-85650500D01*
X135612847Y-85650501D01*
X135620443Y-85650501D01*
X135778554Y-85650501D01*
X135778557Y-85650501D01*
X135931285Y-85609577D01*
X135981404Y-85580639D01*
X136068216Y-85530520D01*
X136180020Y-85418716D01*
X136180020Y-85418714D01*
X136190228Y-85408507D01*
X136190229Y-85408504D01*
X137181916Y-84416819D01*
X137243239Y-84383334D01*
X137269597Y-84380500D01*
X141734549Y-84380500D01*
X141801588Y-84400185D01*
G37*
%TD.AperFunction*%
%TA.AperFunction,Conductor*%
G36*
X145087020Y-79205520D02*
G01*
X146071424Y-79244687D01*
X146076346Y-79244981D01*
X147058421Y-79323254D01*
X147063291Y-79323740D01*
X148041510Y-79440999D01*
X148046362Y-79441678D01*
X149019163Y-79597738D01*
X149023953Y-79598605D01*
X149989772Y-79793216D01*
X149994532Y-79794274D01*
X150951856Y-80027129D01*
X150956552Y-80028370D01*
X151845827Y-80282516D01*
X151903856Y-80299100D01*
X151908572Y-80300549D01*
X152844339Y-80608718D01*
X152848926Y-80610330D01*
X153665503Y-80915739D01*
X153771722Y-80955466D01*
X153776305Y-80957285D01*
X154684633Y-81338827D01*
X154689104Y-81340811D01*
X155024286Y-81497560D01*
X155581525Y-81758155D01*
X155585949Y-81760332D01*
X156461065Y-82212821D01*
X156465399Y-82215172D01*
X157321849Y-82702104D01*
X157326086Y-82704626D01*
X158162485Y-83225213D01*
X158166618Y-83227901D01*
X158981679Y-83781341D01*
X158985672Y-83784170D01*
X159778078Y-84369573D01*
X159781976Y-84372574D01*
X160550503Y-84989032D01*
X160554258Y-84992169D01*
X160651816Y-85077013D01*
X161297660Y-85638688D01*
X161301315Y-85641997D01*
X161348894Y-85686819D01*
X162018407Y-86317540D01*
X162021903Y-86320966D01*
X162657976Y-86969815D01*
X162711592Y-87024508D01*
X162714966Y-87028089D01*
X163218409Y-87584246D01*
X163376129Y-87758481D01*
X163379364Y-87762201D01*
X164010953Y-88518286D01*
X164014039Y-88522133D01*
X164615087Y-89302752D01*
X164618016Y-89306718D01*
X165187528Y-90110579D01*
X165190298Y-90114658D01*
X165727409Y-90940539D01*
X165730015Y-90944725D01*
X166233876Y-91791319D01*
X166236313Y-91795605D01*
X166706114Y-92661554D01*
X166708379Y-92665934D01*
X167143394Y-93549903D01*
X167145482Y-93554370D01*
X167544984Y-94454877D01*
X167546894Y-94459423D01*
X167910298Y-95375147D01*
X167912025Y-95379765D01*
X168238724Y-96309183D01*
X168240267Y-96313867D01*
X168529771Y-97255580D01*
X168531116Y-97260288D01*
X168728562Y-98007053D01*
X168782948Y-98212748D01*
X168784113Y-98217539D01*
X168997878Y-99179256D01*
X168998852Y-99184089D01*
X169174213Y-100153543D01*
X169174994Y-100158412D01*
X169311673Y-101134059D01*
X169312260Y-101138954D01*
X169410046Y-102119297D01*
X169410437Y-102124213D01*
X169469167Y-103107622D01*
X169469363Y-103112549D01*
X169488950Y-104097535D01*
X169488950Y-104102465D01*
X169469363Y-105087450D01*
X169469167Y-105092377D01*
X169410437Y-106075786D01*
X169410046Y-106080702D01*
X169312260Y-107061045D01*
X169311673Y-107065940D01*
X169174994Y-108041587D01*
X169174213Y-108046456D01*
X168998852Y-109015910D01*
X168997878Y-109020743D01*
X168784113Y-109982460D01*
X168782948Y-109987251D01*
X168697721Y-110309591D01*
X168535792Y-110922032D01*
X168531126Y-110939678D01*
X168529771Y-110944419D01*
X168240267Y-111886132D01*
X168238724Y-111890816D01*
X167912025Y-112820234D01*
X167910298Y-112824852D01*
X167546894Y-113740576D01*
X167544984Y-113745122D01*
X167145482Y-114645629D01*
X167143394Y-114650096D01*
X166708379Y-115534065D01*
X166706114Y-115538445D01*
X166236313Y-116404394D01*
X166233876Y-116408680D01*
X165730015Y-117255274D01*
X165727409Y-117259460D01*
X165190298Y-118085341D01*
X165187528Y-118089420D01*
X164618016Y-118893281D01*
X164615087Y-118897247D01*
X164014039Y-119677866D01*
X164010953Y-119681713D01*
X163379364Y-120437798D01*
X163376129Y-120441518D01*
X162714973Y-121171902D01*
X162711592Y-121175491D01*
X162021916Y-121879020D01*
X162018394Y-121882472D01*
X161301315Y-122558002D01*
X161297660Y-122561311D01*
X160554272Y-123207818D01*
X160550488Y-123210979D01*
X159781985Y-123827418D01*
X159778078Y-123830426D01*
X158985687Y-124415818D01*
X158981663Y-124418669D01*
X158166618Y-124972098D01*
X158162485Y-124974786D01*
X157326086Y-125495373D01*
X157321849Y-125497895D01*
X156465399Y-125984827D01*
X156461065Y-125987178D01*
X155585949Y-126439667D01*
X155581525Y-126441844D01*
X154689122Y-126859180D01*
X154684615Y-126861180D01*
X153776305Y-127242714D01*
X153771722Y-127244533D01*
X152848958Y-127589657D01*
X152844306Y-127591292D01*
X151908569Y-127899450D01*
X151903856Y-127900899D01*
X150956587Y-128171619D01*
X150951820Y-128172879D01*
X149994559Y-128405719D01*
X149989745Y-128406789D01*
X149023984Y-128601388D01*
X149019132Y-128602266D01*
X148046378Y-128758318D01*
X148041495Y-128759002D01*
X147063309Y-128876257D01*
X147058403Y-128876746D01*
X146076346Y-128955018D01*
X146071424Y-128955312D01*
X145087020Y-128994480D01*
X145082090Y-128994578D01*
X144096910Y-128994578D01*
X144091980Y-128994480D01*
X143107575Y-128955312D01*
X143102653Y-128955018D01*
X142120596Y-128876746D01*
X142115690Y-128876257D01*
X141137504Y-128759002D01*
X141132621Y-128758318D01*
X140159867Y-128602266D01*
X140155015Y-128601388D01*
X139189254Y-128406789D01*
X139184440Y-128405719D01*
X138227179Y-128172879D01*
X138222412Y-128171619D01*
X137275143Y-127900899D01*
X137270430Y-127899450D01*
X136334693Y-127591292D01*
X136330041Y-127589657D01*
X135407277Y-127244533D01*
X135402694Y-127242714D01*
X134494384Y-126861180D01*
X134489877Y-126859180D01*
X133597474Y-126441844D01*
X133593050Y-126439667D01*
X132717934Y-125987178D01*
X132713600Y-125984827D01*
X131857150Y-125497895D01*
X131852913Y-125495373D01*
X131016514Y-124974786D01*
X131012381Y-124972098D01*
X130244466Y-124450671D01*
X130197330Y-124418665D01*
X130193312Y-124415818D01*
X130069072Y-124324034D01*
X129400918Y-123830424D01*
X129397014Y-123827418D01*
X129361202Y-123798692D01*
X128628501Y-123210971D01*
X128624727Y-123207818D01*
X127881339Y-122561311D01*
X127877684Y-122558002D01*
X127403725Y-122111505D01*
X127160592Y-121882459D01*
X127157096Y-121879032D01*
X126467398Y-121175481D01*
X126464026Y-121171902D01*
X126407991Y-121110000D01*
X125802869Y-120441517D01*
X125799635Y-120437798D01*
X125193459Y-119712135D01*
X127999000Y-119712135D01*
X127999000Y-121507870D01*
X127999001Y-121507876D01*
X128005408Y-121567483D01*
X128055702Y-121702328D01*
X128055706Y-121702335D01*
X128141952Y-121817544D01*
X128141955Y-121817547D01*
X128257164Y-121903793D01*
X128257171Y-121903797D01*
X128392017Y-121954091D01*
X128392016Y-121954091D01*
X128398944Y-121954835D01*
X128451627Y-121960500D01*
X130247372Y-121960499D01*
X130306983Y-121954091D01*
X130441831Y-121903796D01*
X130557046Y-121817546D01*
X130643296Y-121702331D01*
X130693591Y-121567483D01*
X130700000Y-121507873D01*
X130699999Y-119712128D01*
X130693591Y-119652517D01*
X130680085Y-119616306D01*
X130643297Y-119517671D01*
X130643293Y-119517664D01*
X130557047Y-119402455D01*
X130557044Y-119402452D01*
X130441835Y-119316206D01*
X130441828Y-119316202D01*
X130306982Y-119265908D01*
X130306983Y-119265908D01*
X130247383Y-119259501D01*
X130247381Y-119259500D01*
X130247373Y-119259500D01*
X130247364Y-119259500D01*
X128451629Y-119259500D01*
X128451623Y-119259501D01*
X128392016Y-119265908D01*
X128257171Y-119316202D01*
X128257164Y-119316206D01*
X128141955Y-119402452D01*
X128141952Y-119402455D01*
X128055706Y-119517664D01*
X128055702Y-119517671D01*
X128005408Y-119652517D01*
X128000294Y-119700090D01*
X127999001Y-119712123D01*
X127999000Y-119712135D01*
X125193459Y-119712135D01*
X125168046Y-119681713D01*
X125164960Y-119677866D01*
X125082914Y-119571308D01*
X124563907Y-118897241D01*
X124560983Y-118893281D01*
X124554195Y-118883700D01*
X123991464Y-118089410D01*
X123988701Y-118085341D01*
X123987054Y-118082809D01*
X123451590Y-117259460D01*
X123448984Y-117255274D01*
X122945123Y-116408680D01*
X122942686Y-116404394D01*
X122821603Y-116181210D01*
X122472877Y-115538430D01*
X122470620Y-115534065D01*
X122467302Y-115527323D01*
X122035600Y-114650086D01*
X122033517Y-114645629D01*
X122022182Y-114620080D01*
X121639612Y-113757738D01*
X121634015Y-113745122D01*
X121632105Y-113740576D01*
X121588402Y-113630452D01*
X121268691Y-112824826D01*
X121266984Y-112820262D01*
X120940267Y-111890794D01*
X120938732Y-111886132D01*
X120649219Y-110944387D01*
X120647892Y-110939745D01*
X120396042Y-109987217D01*
X120394886Y-109982460D01*
X120363120Y-109839547D01*
X120181114Y-109020710D01*
X120180153Y-109015944D01*
X120004782Y-108046433D01*
X120004005Y-108041587D01*
X119867321Y-107065900D01*
X119866743Y-107061085D01*
X119768950Y-106080668D01*
X119768564Y-106075822D01*
X119709830Y-105092331D01*
X119709637Y-105087497D01*
X119690049Y-104102463D01*
X119690049Y-104097535D01*
X119693064Y-103945942D01*
X119709637Y-103112500D01*
X119709830Y-103107670D01*
X119726413Y-102829999D01*
X122913841Y-102829999D01*
X122913841Y-102830000D01*
X122934436Y-103065403D01*
X122934438Y-103065413D01*
X122995594Y-103293655D01*
X122995596Y-103293659D01*
X122995597Y-103293663D01*
X123058582Y-103428735D01*
X123095465Y-103507830D01*
X123095467Y-103507834D01*
X123203781Y-103662521D01*
X123231001Y-103701396D01*
X123231006Y-103701402D01*
X123398097Y-103868493D01*
X123398103Y-103868498D01*
X123583658Y-103998425D01*
X123627283Y-104053002D01*
X123634477Y-104122500D01*
X123602954Y-104184855D01*
X123583658Y-104201575D01*
X123398097Y-104331505D01*
X123231005Y-104498597D01*
X123095465Y-104692169D01*
X123095464Y-104692171D01*
X122995598Y-104906335D01*
X122995594Y-104906344D01*
X122934438Y-105134586D01*
X122934436Y-105134596D01*
X122913841Y-105369999D01*
X122913841Y-105370000D01*
X122934436Y-105605403D01*
X122934438Y-105605413D01*
X122995594Y-105833655D01*
X122995596Y-105833659D01*
X122995597Y-105833663D01*
X123074645Y-106003181D01*
X123095465Y-106047830D01*
X123095467Y-106047834D01*
X123203781Y-106202521D01*
X123231001Y-106241396D01*
X123231006Y-106241402D01*
X123398097Y-106408493D01*
X123398103Y-106408498D01*
X123583658Y-106538425D01*
X123627283Y-106593002D01*
X123634477Y-106662500D01*
X123602954Y-106724855D01*
X123583658Y-106741575D01*
X123398097Y-106871505D01*
X123231005Y-107038597D01*
X123095465Y-107232169D01*
X123095464Y-107232171D01*
X122995598Y-107446335D01*
X122995594Y-107446344D01*
X122934438Y-107674586D01*
X122934436Y-107674596D01*
X122913841Y-107909999D01*
X122913841Y-107910000D01*
X122934436Y-108145403D01*
X122934438Y-108145413D01*
X122995594Y-108373655D01*
X122995596Y-108373659D01*
X122995597Y-108373663D01*
X123039332Y-108467452D01*
X123095465Y-108587830D01*
X123095467Y-108587834D01*
X123136705Y-108646727D01*
X123231001Y-108781396D01*
X123231006Y-108781402D01*
X123398097Y-108948493D01*
X123398103Y-108948498D01*
X123583658Y-109078425D01*
X123627283Y-109133002D01*
X123634477Y-109202500D01*
X123602954Y-109264855D01*
X123583658Y-109281575D01*
X123398097Y-109411505D01*
X123231005Y-109578597D01*
X123095465Y-109772169D01*
X123095464Y-109772171D01*
X122995598Y-109986335D01*
X122995594Y-109986344D01*
X122934438Y-110214586D01*
X122934436Y-110214596D01*
X122913841Y-110449999D01*
X122913841Y-110450000D01*
X122934436Y-110685403D01*
X122934438Y-110685413D01*
X122995594Y-110913655D01*
X122995596Y-110913659D01*
X122995597Y-110913663D01*
X123056588Y-111044458D01*
X123095465Y-111127830D01*
X123095467Y-111127834D01*
X123158419Y-111217738D01*
X123231001Y-111321396D01*
X123231006Y-111321402D01*
X123398097Y-111488493D01*
X123398103Y-111488498D01*
X123583658Y-111618425D01*
X123627283Y-111673002D01*
X123634477Y-111742500D01*
X123602954Y-111804855D01*
X123583658Y-111821575D01*
X123398097Y-111951505D01*
X123231005Y-112118597D01*
X123095465Y-112312169D01*
X123095464Y-112312171D01*
X122995598Y-112526335D01*
X122995594Y-112526344D01*
X122934438Y-112754586D01*
X122934436Y-112754596D01*
X122913841Y-112989999D01*
X122913841Y-112990000D01*
X122934436Y-113225403D01*
X122934438Y-113225413D01*
X122995594Y-113453655D01*
X122995596Y-113453659D01*
X122995597Y-113453663D01*
X123039332Y-113547452D01*
X123095465Y-113667830D01*
X123095467Y-113667834D01*
X123158419Y-113757738D01*
X123231005Y-113861401D01*
X123398099Y-114028495D01*
X123440948Y-114058498D01*
X123591665Y-114164032D01*
X123591667Y-114164033D01*
X123591670Y-114164035D01*
X123805837Y-114263903D01*
X123805843Y-114263904D01*
X123805844Y-114263905D01*
X123860785Y-114278626D01*
X124034092Y-114325063D01*
X124222418Y-114341539D01*
X124269499Y-114345659D01*
X124269500Y-114345659D01*
X124269501Y-114345659D01*
X124308734Y-114342226D01*
X124504908Y-114325063D01*
X124733163Y-114263903D01*
X124947330Y-114164035D01*
X125140901Y-114028495D01*
X125307995Y-113861401D01*
X125437925Y-113675842D01*
X125492502Y-113632217D01*
X125562000Y-113625023D01*
X125624355Y-113656546D01*
X125641075Y-113675842D01*
X125771000Y-113861395D01*
X125771005Y-113861401D01*
X125938099Y-114028495D01*
X125980948Y-114058498D01*
X126131665Y-114164032D01*
X126131667Y-114164033D01*
X126131670Y-114164035D01*
X126345837Y-114263903D01*
X126345843Y-114263904D01*
X126345844Y-114263905D01*
X126400785Y-114278626D01*
X126574092Y-114325063D01*
X126762418Y-114341539D01*
X126809499Y-114345659D01*
X126809500Y-114345659D01*
X126809501Y-114345659D01*
X126848734Y-114342226D01*
X127044908Y-114325063D01*
X127273163Y-114263903D01*
X127487330Y-114164035D01*
X127680901Y-114028495D01*
X127847995Y-113861401D01*
X127979161Y-113674075D01*
X128033737Y-113630452D01*
X128103235Y-113623258D01*
X128165590Y-113654781D01*
X128193115Y-113692791D01*
X128195463Y-113697827D01*
X128195467Y-113697834D01*
X128303781Y-113852521D01*
X128331005Y-113891401D01*
X128498099Y-114058495D01*
X128587001Y-114120745D01*
X128691665Y-114194032D01*
X128691667Y-114194033D01*
X128691670Y-114194035D01*
X128905837Y-114293903D01*
X128905843Y-114293904D01*
X128905844Y-114293905D01*
X128928599Y-114300002D01*
X129134092Y-114355063D01*
X129313837Y-114370789D01*
X129369499Y-114375659D01*
X129369500Y-114375659D01*
X129369501Y-114375659D01*
X129408734Y-114372226D01*
X129604908Y-114355063D01*
X129833163Y-114293903D01*
X130047330Y-114194035D01*
X130240901Y-114058495D01*
X130407995Y-113891401D01*
X130543535Y-113697830D01*
X130643403Y-113483663D01*
X130704563Y-113255408D01*
X130725159Y-113020000D01*
X130723190Y-112997500D01*
X130715739Y-112912332D01*
X130704563Y-112784592D01*
X130652679Y-112590957D01*
X130643405Y-112556344D01*
X130643404Y-112556343D01*
X130643403Y-112556337D01*
X130543535Y-112342171D01*
X130539161Y-112335923D01*
X130407994Y-112148597D01*
X130240902Y-111981506D01*
X130240896Y-111981501D01*
X130055342Y-111851575D01*
X130011717Y-111796998D01*
X130004523Y-111727500D01*
X130036046Y-111665145D01*
X130055342Y-111648425D01*
X130167570Y-111569842D01*
X130240901Y-111518495D01*
X130407995Y-111351401D01*
X130543535Y-111157830D01*
X130643403Y-110943663D01*
X130704563Y-110715408D01*
X130725159Y-110480000D01*
X130723190Y-110457500D01*
X130713835Y-110350567D01*
X130704563Y-110244592D01*
X130652679Y-110050957D01*
X130643405Y-110016344D01*
X130643404Y-110016343D01*
X130643403Y-110016337D01*
X130543535Y-109802171D01*
X130539161Y-109795923D01*
X130407994Y-109608597D01*
X130240902Y-109441506D01*
X130240896Y-109441501D01*
X130055342Y-109311575D01*
X130011717Y-109256998D01*
X130004523Y-109187500D01*
X130036046Y-109125145D01*
X130055342Y-109108425D01*
X130117466Y-109064925D01*
X130240901Y-108978495D01*
X130407995Y-108811401D01*
X130543535Y-108617830D01*
X130643403Y-108403663D01*
X130704563Y-108175408D01*
X130725159Y-107940000D01*
X130724204Y-107929090D01*
X130710249Y-107769587D01*
X130704563Y-107704592D01*
X130643403Y-107476337D01*
X130543535Y-107262171D01*
X130539161Y-107255923D01*
X130407994Y-107068597D01*
X130240902Y-106901506D01*
X130240896Y-106901501D01*
X130055342Y-106771575D01*
X130011717Y-106716998D01*
X130004523Y-106647500D01*
X130036046Y-106585145D01*
X130055342Y-106568425D01*
X130098186Y-106538425D01*
X130240901Y-106438495D01*
X130407995Y-106271401D01*
X130543535Y-106077830D01*
X130643403Y-105863663D01*
X130704563Y-105635408D01*
X130725159Y-105400000D01*
X130723190Y-105377500D01*
X130712626Y-105256750D01*
X130704563Y-105164592D01*
X130643403Y-104936337D01*
X130543535Y-104722171D01*
X130540102Y-104717267D01*
X130407994Y-104528597D01*
X130240902Y-104361506D01*
X130240896Y-104361501D01*
X130055342Y-104231575D01*
X130011717Y-104176998D01*
X130004523Y-104107500D01*
X130036046Y-104045145D01*
X130055342Y-104028425D01*
X130103792Y-103994500D01*
X130240901Y-103898495D01*
X130407995Y-103731401D01*
X130543535Y-103537830D01*
X130643403Y-103323663D01*
X130704563Y-103095408D01*
X130725159Y-102860000D01*
X130724753Y-102855365D01*
X130719826Y-102799047D01*
X130704563Y-102624592D01*
X130643403Y-102396337D01*
X130543535Y-102182171D01*
X130540277Y-102177517D01*
X130407994Y-101988597D01*
X130240902Y-101821506D01*
X130240895Y-101821501D01*
X130047334Y-101685967D01*
X130047330Y-101685965D01*
X129982995Y-101655965D01*
X129833163Y-101586097D01*
X129833159Y-101586096D01*
X129833155Y-101586094D01*
X129604913Y-101524938D01*
X129604903Y-101524936D01*
X129369501Y-101504341D01*
X129369499Y-101504341D01*
X129134096Y-101524936D01*
X129134086Y-101524938D01*
X128905844Y-101586094D01*
X128905835Y-101586098D01*
X128691671Y-101685964D01*
X128691669Y-101685965D01*
X128498097Y-101821505D01*
X128331008Y-101988594D01*
X128199839Y-102175923D01*
X128145262Y-102219547D01*
X128075763Y-102226740D01*
X128013409Y-102195218D01*
X127985881Y-102157203D01*
X127983533Y-102152167D01*
X127847994Y-101958597D01*
X127680902Y-101791506D01*
X127680895Y-101791501D01*
X127487334Y-101655967D01*
X127487330Y-101655965D01*
X127444247Y-101635875D01*
X127273163Y-101556097D01*
X127273159Y-101556096D01*
X127273155Y-101556094D01*
X127044913Y-101494938D01*
X127044903Y-101494936D01*
X126809501Y-101474341D01*
X126809499Y-101474341D01*
X126574096Y-101494936D01*
X126574086Y-101494938D01*
X126345844Y-101556094D01*
X126345837Y-101556096D01*
X126345837Y-101556097D01*
X126337467Y-101560000D01*
X126131671Y-101655964D01*
X126131669Y-101655965D01*
X125938097Y-101791505D01*
X125771005Y-101958597D01*
X125641075Y-102144158D01*
X125586498Y-102187783D01*
X125517000Y-102194977D01*
X125454645Y-102163454D01*
X125437925Y-102144158D01*
X125307994Y-101958597D01*
X125140902Y-101791506D01*
X125140895Y-101791501D01*
X124947334Y-101655967D01*
X124947330Y-101655965D01*
X124904247Y-101635875D01*
X124733163Y-101556097D01*
X124733159Y-101556096D01*
X124733155Y-101556094D01*
X124504913Y-101494938D01*
X124504903Y-101494936D01*
X124269501Y-101474341D01*
X124269499Y-101474341D01*
X124034096Y-101494936D01*
X124034086Y-101494938D01*
X123805844Y-101556094D01*
X123805837Y-101556096D01*
X123805837Y-101556097D01*
X123797467Y-101560000D01*
X123591671Y-101655964D01*
X123591669Y-101655965D01*
X123398097Y-101791505D01*
X123231005Y-101958597D01*
X123095465Y-102152169D01*
X123095464Y-102152171D01*
X122995598Y-102366335D01*
X122995594Y-102366344D01*
X122934438Y-102594586D01*
X122934436Y-102594596D01*
X122913841Y-102829999D01*
X119726413Y-102829999D01*
X119768565Y-102124173D01*
X119768949Y-102119335D01*
X119866744Y-101138908D01*
X119867320Y-101134105D01*
X120004009Y-100158381D01*
X120004780Y-100153574D01*
X120180155Y-99184045D01*
X120181112Y-99179299D01*
X120394888Y-98217528D01*
X120396039Y-98212793D01*
X120647895Y-97260241D01*
X120649214Y-97255625D01*
X120887659Y-96479999D01*
X122913841Y-96479999D01*
X122913841Y-96480000D01*
X122934436Y-96715403D01*
X122934438Y-96715413D01*
X122995594Y-96943655D01*
X122995596Y-96943659D01*
X122995597Y-96943663D01*
X123053670Y-97068201D01*
X123095465Y-97157830D01*
X123095467Y-97157834D01*
X123158419Y-97247738D01*
X123231005Y-97351401D01*
X123398099Y-97518495D01*
X123426245Y-97538203D01*
X123591665Y-97654032D01*
X123591670Y-97654035D01*
X123597400Y-97656706D01*
X123649840Y-97702876D01*
X123668999Y-97769090D01*
X123668999Y-97829054D01*
X123668998Y-97829054D01*
X123670768Y-97835659D01*
X123709923Y-97981785D01*
X123709924Y-97981787D01*
X123709923Y-97981787D01*
X123724512Y-98007054D01*
X123724513Y-98007055D01*
X123777899Y-98099523D01*
X123788979Y-98118714D01*
X123788981Y-98118717D01*
X123907849Y-98237585D01*
X123907855Y-98237590D01*
X126324639Y-100654374D01*
X126324649Y-100654385D01*
X126328979Y-100658715D01*
X126328980Y-100658716D01*
X126440784Y-100770520D01*
X126440786Y-100770521D01*
X126440790Y-100770524D01*
X126577709Y-100849573D01*
X126577716Y-100849577D01*
X126689519Y-100879534D01*
X126730442Y-100890500D01*
X126730443Y-100890500D01*
X127497088Y-100890500D01*
X127564127Y-100910185D01*
X127574403Y-100917555D01*
X127577236Y-100919814D01*
X127577238Y-100919816D01*
X127729978Y-101015789D01*
X127900245Y-101075368D01*
X127900250Y-101075369D01*
X128079496Y-101095565D01*
X128079500Y-101095565D01*
X128079504Y-101095565D01*
X128258749Y-101075369D01*
X128258752Y-101075368D01*
X128258755Y-101075368D01*
X128429022Y-101015789D01*
X128581762Y-100919816D01*
X128709316Y-100792262D01*
X128805289Y-100639522D01*
X128864868Y-100469255D01*
X128864869Y-100469249D01*
X128885065Y-100290003D01*
X128885065Y-100289996D01*
X128864869Y-100110750D01*
X128864868Y-100110745D01*
X128845129Y-100054334D01*
X128805289Y-99940478D01*
X128709316Y-99787738D01*
X128581762Y-99660184D01*
X128539519Y-99633641D01*
X128429023Y-99564211D01*
X128258754Y-99504631D01*
X128258749Y-99504630D01*
X128079504Y-99484435D01*
X128079496Y-99484435D01*
X127900250Y-99504630D01*
X127900245Y-99504631D01*
X127729976Y-99564211D01*
X127577236Y-99660185D01*
X127574403Y-99662445D01*
X127572224Y-99663334D01*
X127571342Y-99663889D01*
X127571244Y-99663734D01*
X127509717Y-99688855D01*
X127497088Y-99689500D01*
X127109597Y-99689500D01*
X127042558Y-99669815D01*
X127021916Y-99653181D01*
X125096195Y-97727460D01*
X125062710Y-97666137D01*
X125067694Y-97596445D01*
X125109566Y-97540512D01*
X125112722Y-97538225D01*
X125140901Y-97518495D01*
X125307995Y-97351401D01*
X125437925Y-97165842D01*
X125492502Y-97122217D01*
X125562000Y-97115023D01*
X125624355Y-97146546D01*
X125641075Y-97165842D01*
X125771000Y-97351395D01*
X125771005Y-97351401D01*
X125938099Y-97518495D01*
X125966245Y-97538203D01*
X126131665Y-97654032D01*
X126131667Y-97654033D01*
X126131670Y-97654035D01*
X126345837Y-97753903D01*
X126345843Y-97753904D01*
X126345844Y-97753905D01*
X126359261Y-97757500D01*
X126574092Y-97815063D01*
X126744819Y-97830000D01*
X126809499Y-97835659D01*
X126809500Y-97835659D01*
X126809501Y-97835659D01*
X126874181Y-97830000D01*
X127044908Y-97815063D01*
X127273163Y-97753903D01*
X127487330Y-97654035D01*
X127680901Y-97518495D01*
X127803217Y-97396178D01*
X127864536Y-97362696D01*
X127934228Y-97367680D01*
X127990162Y-97409551D01*
X128007077Y-97440528D01*
X128056146Y-97572088D01*
X128056149Y-97572093D01*
X128142309Y-97687187D01*
X128142312Y-97687190D01*
X128257406Y-97773350D01*
X128257413Y-97773354D01*
X128392120Y-97823596D01*
X128392127Y-97823598D01*
X128451655Y-97829999D01*
X128451672Y-97830000D01*
X129099500Y-97830000D01*
X129099500Y-96913012D01*
X129156507Y-96945925D01*
X129283674Y-96980000D01*
X129415326Y-96980000D01*
X129542493Y-96945925D01*
X129599500Y-96913012D01*
X129599500Y-97830000D01*
X130247328Y-97830000D01*
X130247344Y-97829999D01*
X130306872Y-97823598D01*
X130306879Y-97823596D01*
X130441586Y-97773354D01*
X130441593Y-97773350D01*
X130556687Y-97687190D01*
X130556690Y-97687187D01*
X130642850Y-97572093D01*
X130642854Y-97572086D01*
X130691922Y-97440529D01*
X130733793Y-97384595D01*
X130799257Y-97360178D01*
X130867530Y-97375030D01*
X130895785Y-97396181D01*
X131018099Y-97518495D01*
X131046245Y-97538203D01*
X131211665Y-97654032D01*
X131211667Y-97654033D01*
X131211670Y-97654035D01*
X131425837Y-97753903D01*
X131425843Y-97753904D01*
X131425844Y-97753905D01*
X131439261Y-97757500D01*
X131654092Y-97815063D01*
X131824819Y-97830000D01*
X131889499Y-97835659D01*
X131889500Y-97835659D01*
X131889501Y-97835659D01*
X131954181Y-97830000D01*
X132124908Y-97815063D01*
X132253257Y-97780672D01*
X132323106Y-97782335D01*
X132373031Y-97812766D01*
X133672681Y-99112416D01*
X133706166Y-99173739D01*
X133709000Y-99200097D01*
X133709000Y-102625500D01*
X133689315Y-102692539D01*
X133636511Y-102738294D01*
X133585000Y-102749500D01*
X132709597Y-102749500D01*
X132642558Y-102729815D01*
X132621916Y-102713181D01*
X132526319Y-102617584D01*
X132492834Y-102556261D01*
X132490000Y-102529903D01*
X132490000Y-99602412D01*
X132509685Y-99535373D01*
X132517055Y-99525097D01*
X132519310Y-99522267D01*
X132519316Y-99522262D01*
X132615289Y-99369522D01*
X132674868Y-99199255D01*
X132676850Y-99181667D01*
X132695065Y-99020003D01*
X132695065Y-99019996D01*
X132674869Y-98840750D01*
X132674868Y-98840745D01*
X132615288Y-98670476D01*
X132562552Y-98586548D01*
X132519316Y-98517738D01*
X132391762Y-98390184D01*
X132385641Y-98386338D01*
X132239023Y-98294211D01*
X132068754Y-98234631D01*
X132068749Y-98234630D01*
X131889504Y-98214435D01*
X131889496Y-98214435D01*
X131710250Y-98234630D01*
X131710245Y-98234631D01*
X131539976Y-98294211D01*
X131387237Y-98390184D01*
X131259684Y-98517737D01*
X131163711Y-98670476D01*
X131104131Y-98840745D01*
X131104130Y-98840750D01*
X131083935Y-99019996D01*
X131083935Y-99020003D01*
X131104130Y-99199249D01*
X131104131Y-99199254D01*
X131163711Y-99369523D01*
X131216447Y-99453451D01*
X131248606Y-99504632D01*
X131259685Y-99522263D01*
X131261945Y-99525097D01*
X131262834Y-99527275D01*
X131263389Y-99528158D01*
X131263234Y-99528255D01*
X131288355Y-99589783D01*
X131289000Y-99602412D01*
X131289000Y-102743330D01*
X131288999Y-102743348D01*
X131288999Y-102909054D01*
X131288998Y-102909054D01*
X131329923Y-103061787D01*
X131329924Y-103061788D01*
X131351698Y-103099501D01*
X131408975Y-103198709D01*
X131408981Y-103198717D01*
X131527849Y-103317585D01*
X131527855Y-103317590D01*
X131772681Y-103562416D01*
X131806166Y-103623739D01*
X131809000Y-103650097D01*
X131809000Y-104997870D01*
X131809001Y-104997876D01*
X131815408Y-105057483D01*
X131865702Y-105192328D01*
X131865706Y-105192335D01*
X131951952Y-105307544D01*
X131951955Y-105307547D01*
X132067164Y-105393793D01*
X132067171Y-105393797D01*
X132198581Y-105442810D01*
X132254515Y-105484681D01*
X132278932Y-105550145D01*
X132264080Y-105618418D01*
X132242930Y-105646673D01*
X132121003Y-105768600D01*
X131985465Y-105962169D01*
X131985464Y-105962171D01*
X131885598Y-106176335D01*
X131885594Y-106176344D01*
X131824438Y-106404586D01*
X131824436Y-106404596D01*
X131803841Y-106639999D01*
X131803841Y-106640000D01*
X131824436Y-106875403D01*
X131824438Y-106875413D01*
X131885594Y-107103655D01*
X131885596Y-107103659D01*
X131885597Y-107103663D01*
X131977237Y-107300185D01*
X131985465Y-107317830D01*
X131985467Y-107317834D01*
X132087467Y-107463504D01*
X132121005Y-107511401D01*
X132288099Y-107678495D01*
X132384032Y-107745668D01*
X132481665Y-107814032D01*
X132481667Y-107814033D01*
X132481670Y-107814035D01*
X132487398Y-107816706D01*
X132539839Y-107862872D01*
X132559000Y-107929090D01*
X132559000Y-117983330D01*
X132558999Y-117983348D01*
X132558999Y-118149054D01*
X132558998Y-118149054D01*
X132599923Y-118301785D01*
X132628858Y-118351900D01*
X132628859Y-118351904D01*
X132628860Y-118351904D01*
X132678979Y-118438714D01*
X132678981Y-118438717D01*
X132797849Y-118557585D01*
X132797855Y-118557590D01*
X140294639Y-126054374D01*
X140294649Y-126054385D01*
X140298979Y-126058715D01*
X140298980Y-126058716D01*
X140410784Y-126170520D01*
X140410786Y-126170521D01*
X140410790Y-126170524D01*
X140547709Y-126249573D01*
X140547716Y-126249577D01*
X140659519Y-126279534D01*
X140700442Y-126290500D01*
X140700443Y-126290500D01*
X150852831Y-126290500D01*
X150852847Y-126290501D01*
X150860443Y-126290501D01*
X151018554Y-126290501D01*
X151018557Y-126290501D01*
X151171285Y-126249577D01*
X151221404Y-126220639D01*
X151308216Y-126170520D01*
X151420020Y-126058716D01*
X151420020Y-126058714D01*
X151430228Y-126048507D01*
X151430230Y-126048504D01*
X152995970Y-124482763D01*
X153057291Y-124449280D01*
X153115738Y-124450670D01*
X153244092Y-124485063D01*
X153432418Y-124501539D01*
X153479499Y-124505659D01*
X153479500Y-124505659D01*
X153479501Y-124505659D01*
X153518734Y-124502226D01*
X153714908Y-124485063D01*
X153943163Y-124423903D01*
X154157330Y-124324035D01*
X154350901Y-124188495D01*
X154517995Y-124021401D01*
X154653535Y-123827830D01*
X154753403Y-123613663D01*
X154814563Y-123385408D01*
X154835159Y-123150000D01*
X154814563Y-122914592D01*
X154753403Y-122686337D01*
X154653535Y-122472171D01*
X154615569Y-122417950D01*
X154517996Y-122278600D01*
X154517995Y-122278599D01*
X154395679Y-122156283D01*
X154362196Y-122094963D01*
X154367180Y-122025271D01*
X154409051Y-121969337D01*
X154440029Y-121952422D01*
X154571586Y-121903354D01*
X154571593Y-121903350D01*
X154686687Y-121817190D01*
X154686690Y-121817187D01*
X154772850Y-121702093D01*
X154772854Y-121702086D01*
X154823096Y-121567379D01*
X154823098Y-121567372D01*
X154829499Y-121507844D01*
X154829500Y-121507827D01*
X154829500Y-120860000D01*
X153912512Y-120860000D01*
X153945425Y-120802993D01*
X153979500Y-120675826D01*
X153979500Y-120544174D01*
X153945425Y-120417007D01*
X153912512Y-120360000D01*
X154829500Y-120360000D01*
X154829500Y-119712172D01*
X154829499Y-119712155D01*
X154829497Y-119712135D01*
X158479000Y-119712135D01*
X158479000Y-121507870D01*
X158479001Y-121507876D01*
X158485408Y-121567483D01*
X158535702Y-121702328D01*
X158535706Y-121702335D01*
X158621952Y-121817544D01*
X158621955Y-121817547D01*
X158737164Y-121903793D01*
X158737171Y-121903797D01*
X158872017Y-121954091D01*
X158872016Y-121954091D01*
X158878944Y-121954835D01*
X158931627Y-121960500D01*
X160727372Y-121960499D01*
X160786983Y-121954091D01*
X160921831Y-121903796D01*
X161037046Y-121817546D01*
X161123296Y-121702331D01*
X161173591Y-121567483D01*
X161180000Y-121507873D01*
X161179999Y-119712128D01*
X161173591Y-119652517D01*
X161160085Y-119616306D01*
X161123297Y-119517671D01*
X161123293Y-119517664D01*
X161037047Y-119402455D01*
X161037044Y-119402452D01*
X160921835Y-119316206D01*
X160921828Y-119316202D01*
X160786982Y-119265908D01*
X160786983Y-119265908D01*
X160727383Y-119259501D01*
X160727381Y-119259500D01*
X160727373Y-119259500D01*
X160727364Y-119259500D01*
X158931629Y-119259500D01*
X158931623Y-119259501D01*
X158872016Y-119265908D01*
X158737171Y-119316202D01*
X158737164Y-119316206D01*
X158621955Y-119402452D01*
X158621952Y-119402455D01*
X158535706Y-119517664D01*
X158535702Y-119517671D01*
X158485408Y-119652517D01*
X158480294Y-119700090D01*
X158479001Y-119712123D01*
X158479000Y-119712135D01*
X154829497Y-119712135D01*
X154823098Y-119652627D01*
X154823096Y-119652620D01*
X154772854Y-119517913D01*
X154772850Y-119517906D01*
X154686690Y-119402812D01*
X154686687Y-119402809D01*
X154571593Y-119316649D01*
X154571586Y-119316645D01*
X154436879Y-119266403D01*
X154436872Y-119266401D01*
X154377344Y-119260000D01*
X153729500Y-119260000D01*
X153729500Y-120176988D01*
X153672493Y-120144075D01*
X153545326Y-120110000D01*
X153413674Y-120110000D01*
X153286507Y-120144075D01*
X153229500Y-120176988D01*
X153229500Y-119260000D01*
X152581655Y-119260000D01*
X152522127Y-119266401D01*
X152522120Y-119266403D01*
X152387413Y-119316645D01*
X152387406Y-119316649D01*
X152272312Y-119402809D01*
X152272309Y-119402812D01*
X152186149Y-119517906D01*
X152186145Y-119517913D01*
X152135903Y-119652620D01*
X152135901Y-119652627D01*
X152129500Y-119712155D01*
X152129500Y-120360000D01*
X153046488Y-120360000D01*
X153013575Y-120417007D01*
X152979500Y-120544174D01*
X152979500Y-120675826D01*
X153013575Y-120802993D01*
X153046488Y-120860000D01*
X152129500Y-120860000D01*
X152129500Y-121507844D01*
X152135901Y-121567372D01*
X152135903Y-121567379D01*
X152186145Y-121702086D01*
X152186149Y-121702093D01*
X152272309Y-121817187D01*
X152272312Y-121817190D01*
X152387406Y-121903350D01*
X152387413Y-121903354D01*
X152518970Y-121952421D01*
X152574903Y-121994292D01*
X152599321Y-122059756D01*
X152584470Y-122128029D01*
X152563319Y-122156284D01*
X152441003Y-122278600D01*
X152305465Y-122472169D01*
X152305464Y-122472171D01*
X152205598Y-122686335D01*
X152205594Y-122686344D01*
X152144438Y-122914586D01*
X152144436Y-122914596D01*
X152123841Y-123149999D01*
X152123841Y-123150000D01*
X152144436Y-123385403D01*
X152144438Y-123385413D01*
X152178827Y-123513756D01*
X152177164Y-123583606D01*
X152146733Y-123633530D01*
X150727084Y-125053181D01*
X150665761Y-125086666D01*
X150639403Y-125089500D01*
X141079597Y-125089500D01*
X141012558Y-125069815D01*
X140991916Y-125053181D01*
X133796319Y-117857584D01*
X133762834Y-117796261D01*
X133760000Y-117769903D01*
X133760000Y-108236727D01*
X133779685Y-108169688D01*
X133832489Y-108123933D01*
X133901647Y-108113989D01*
X133965203Y-108143014D01*
X133971681Y-108149046D01*
X134381681Y-108559046D01*
X134415166Y-108620369D01*
X134418000Y-108646727D01*
X134418000Y-109855541D01*
X134420912Y-109892546D01*
X134420913Y-109892552D01*
X134466934Y-110050954D01*
X134466935Y-110050957D01*
X134550905Y-110192943D01*
X134550912Y-110192952D01*
X134667547Y-110309587D01*
X134667556Y-110309594D01*
X134724986Y-110343558D01*
X134772670Y-110394627D01*
X134785173Y-110463369D01*
X134758528Y-110527958D01*
X134724987Y-110557021D01*
X134667867Y-110590801D01*
X134667856Y-110590810D01*
X134551310Y-110707356D01*
X134551303Y-110707365D01*
X134467397Y-110849243D01*
X134467396Y-110849246D01*
X134421411Y-111007526D01*
X134421410Y-111007532D01*
X134418500Y-111044511D01*
X134418500Y-112395469D01*
X134418501Y-112395491D01*
X134421410Y-112432466D01*
X134467397Y-112590757D01*
X134551303Y-112732634D01*
X134551310Y-112732643D01*
X134667856Y-112849189D01*
X134667864Y-112849195D01*
X134724986Y-112882977D01*
X134772669Y-112934046D01*
X134785173Y-113002788D01*
X134758528Y-113067377D01*
X134724987Y-113096440D01*
X134667558Y-113130403D01*
X134667547Y-113130412D01*
X134550912Y-113247047D01*
X134550905Y-113247056D01*
X134466935Y-113389042D01*
X134466934Y-113389045D01*
X134420913Y-113547447D01*
X134420912Y-113547453D01*
X134418000Y-113584458D01*
X134418000Y-114935541D01*
X134420912Y-114972546D01*
X134420913Y-114972552D01*
X134466934Y-115130954D01*
X134466935Y-115130957D01*
X134550905Y-115272943D01*
X134550912Y-115272952D01*
X134667547Y-115389587D01*
X134667551Y-115389590D01*
X134667553Y-115389592D01*
X134809541Y-115473564D01*
X134851316Y-115485701D01*
X134967947Y-115519586D01*
X134967950Y-115519586D01*
X134967952Y-115519587D01*
X135004966Y-115522500D01*
X136908960Y-115522500D01*
X136919766Y-115522971D01*
X136943749Y-115525070D01*
X136969499Y-115527323D01*
X136969500Y-115527323D01*
X136969501Y-115527323D01*
X136995250Y-115525070D01*
X137019233Y-115522971D01*
X137030040Y-115522500D01*
X137264026Y-115522500D01*
X137264034Y-115522500D01*
X137301048Y-115519587D01*
X137301050Y-115519586D01*
X137301052Y-115519586D01*
X137342823Y-115507449D01*
X137459459Y-115473564D01*
X137601447Y-115389592D01*
X137696710Y-115294327D01*
X137713256Y-115280443D01*
X137784120Y-115230826D01*
X137922322Y-115092623D01*
X137983641Y-115059141D01*
X138053333Y-115064125D01*
X138109267Y-115105996D01*
X138133684Y-115171460D01*
X138134000Y-115180307D01*
X138134000Y-115638501D01*
X138134001Y-115638519D01*
X138144500Y-115741296D01*
X138144501Y-115741299D01*
X138184116Y-115860848D01*
X138199686Y-115907834D01*
X138291788Y-116057156D01*
X138415844Y-116181212D01*
X138565166Y-116273314D01*
X138731703Y-116328499D01*
X138797603Y-116335231D01*
X138862294Y-116361627D01*
X138902445Y-116418807D01*
X138909000Y-116458589D01*
X138909000Y-116838306D01*
X138889315Y-116905345D01*
X138856123Y-116939881D01*
X138670359Y-117069953D01*
X138509454Y-117230858D01*
X138378932Y-117417265D01*
X138378931Y-117417267D01*
X138282761Y-117623502D01*
X138282758Y-117623511D01*
X138223866Y-117843302D01*
X138223864Y-117843313D01*
X138204032Y-118069998D01*
X138204032Y-118070001D01*
X138223864Y-118296686D01*
X138223866Y-118296697D01*
X138282758Y-118516488D01*
X138282761Y-118516497D01*
X138378931Y-118722732D01*
X138378932Y-118722734D01*
X138509454Y-118909141D01*
X138670358Y-119070045D01*
X138670361Y-119070047D01*
X138856766Y-119200568D01*
X139063004Y-119296739D01*
X139282808Y-119355635D01*
X139444730Y-119369801D01*
X139509498Y-119375468D01*
X139509500Y-119375468D01*
X139509502Y-119375468D01*
X139566173Y-119370509D01*
X139736192Y-119355635D01*
X139797538Y-119339197D01*
X139867387Y-119340858D01*
X139925250Y-119380020D01*
X139952755Y-119444248D01*
X139953208Y-119448730D01*
X139963364Y-119571297D01*
X139963366Y-119571308D01*
X140020342Y-119796300D01*
X140113575Y-120008848D01*
X140240516Y-120203147D01*
X140240519Y-120203151D01*
X140240521Y-120203153D01*
X140397716Y-120373913D01*
X140397719Y-120373915D01*
X140397722Y-120373918D01*
X140580865Y-120516464D01*
X140580871Y-120516468D01*
X140580874Y-120516470D01*
X140687435Y-120574138D01*
X140784989Y-120626932D01*
X140784997Y-120626936D01*
X140898987Y-120666068D01*
X141004515Y-120702297D01*
X141004517Y-120702297D01*
X141004519Y-120702298D01*
X141233451Y-120740500D01*
X141233452Y-120740500D01*
X141465548Y-120740500D01*
X141465549Y-120740500D01*
X141694481Y-120702298D01*
X141914003Y-120626936D01*
X142075770Y-120539391D01*
X142144098Y-120524797D01*
X142209470Y-120549460D01*
X142234053Y-120574136D01*
X142251309Y-120597187D01*
X142251312Y-120597190D01*
X142366406Y-120683350D01*
X142366413Y-120683354D01*
X142501120Y-120733596D01*
X142501127Y-120733598D01*
X142560655Y-120739999D01*
X142560672Y-120740000D01*
X143258500Y-120740000D01*
X143258500Y-119715277D01*
X143334806Y-119759333D01*
X143449256Y-119790000D01*
X143567744Y-119790000D01*
X143682194Y-119759333D01*
X143758500Y-119715277D01*
X143758500Y-120740000D01*
X144456328Y-120740000D01*
X144456344Y-120739999D01*
X144515872Y-120733598D01*
X144515879Y-120733596D01*
X144650586Y-120683354D01*
X144650593Y-120683350D01*
X144765687Y-120597190D01*
X144782944Y-120574138D01*
X144838877Y-120532266D01*
X144908569Y-120527281D01*
X144941229Y-120539392D01*
X145048026Y-120597187D01*
X145102997Y-120626936D01*
X145216987Y-120666068D01*
X145322515Y-120702297D01*
X145322517Y-120702297D01*
X145322519Y-120702298D01*
X145551451Y-120740500D01*
X145551452Y-120740500D01*
X145783548Y-120740500D01*
X145783549Y-120740500D01*
X146012481Y-120702298D01*
X146232003Y-120626936D01*
X146436126Y-120516470D01*
X146619284Y-120373913D01*
X146655769Y-120334278D01*
X146715656Y-120298288D01*
X146785494Y-120300387D01*
X146838231Y-120334279D01*
X146874713Y-120373910D01*
X146874722Y-120373918D01*
X147057865Y-120516464D01*
X147057871Y-120516468D01*
X147057874Y-120516470D01*
X147164435Y-120574138D01*
X147261989Y-120626932D01*
X147261997Y-120626936D01*
X147375987Y-120666068D01*
X147481515Y-120702297D01*
X147481517Y-120702297D01*
X147481519Y-120702298D01*
X147710451Y-120740500D01*
X147710452Y-120740500D01*
X147942548Y-120740500D01*
X147942549Y-120740500D01*
X148171481Y-120702298D01*
X148391003Y-120626936D01*
X148595126Y-120516470D01*
X148778284Y-120373913D01*
X148935479Y-120203153D01*
X149062424Y-120008849D01*
X149155657Y-119796300D01*
X149212634Y-119571305D01*
X149222855Y-119447942D01*
X149248007Y-119382761D01*
X149304409Y-119341523D01*
X149374152Y-119337323D01*
X149378510Y-119338406D01*
X149442808Y-119355635D01*
X149604730Y-119369801D01*
X149669498Y-119375468D01*
X149669500Y-119375468D01*
X149669502Y-119375468D01*
X149726173Y-119370509D01*
X149896192Y-119355635D01*
X150115996Y-119296739D01*
X150322234Y-119200568D01*
X150508639Y-119070047D01*
X150669547Y-118909139D01*
X150800068Y-118722734D01*
X150896239Y-118516496D01*
X150955135Y-118296692D01*
X150974968Y-118070000D01*
X150972655Y-118043568D01*
X150964616Y-117951679D01*
X150955135Y-117843308D01*
X150896239Y-117623504D01*
X150800068Y-117417266D01*
X150669547Y-117230861D01*
X150669545Y-117230858D01*
X150508640Y-117069953D01*
X150322877Y-116939881D01*
X150279252Y-116885304D01*
X150270000Y-116838306D01*
X150270000Y-116458588D01*
X150289685Y-116391549D01*
X150342489Y-116345794D01*
X150381397Y-116335230D01*
X150447297Y-116328499D01*
X150613834Y-116273314D01*
X150763156Y-116181212D01*
X150887212Y-116057156D01*
X150979314Y-115907834D01*
X151034499Y-115741297D01*
X151045000Y-115638509D01*
X151044999Y-115180305D01*
X151064683Y-115113268D01*
X151117487Y-115067513D01*
X151186646Y-115057569D01*
X151250202Y-115086594D01*
X151256666Y-115092612D01*
X151394880Y-115230826D01*
X151465746Y-115280446D01*
X151482289Y-115294328D01*
X151577553Y-115389592D01*
X151719541Y-115473564D01*
X151761316Y-115485701D01*
X151877947Y-115519586D01*
X151877950Y-115519586D01*
X151877952Y-115519587D01*
X151914966Y-115522500D01*
X152148960Y-115522500D01*
X152159766Y-115522971D01*
X152183749Y-115525070D01*
X152209499Y-115527323D01*
X152209500Y-115527323D01*
X152209501Y-115527323D01*
X152235250Y-115525070D01*
X152259233Y-115522971D01*
X152270040Y-115522500D01*
X154174026Y-115522500D01*
X154174034Y-115522500D01*
X154211048Y-115519587D01*
X154211050Y-115519586D01*
X154211052Y-115519586D01*
X154252823Y-115507449D01*
X154369459Y-115473564D01*
X154511447Y-115389592D01*
X154628092Y-115272947D01*
X154712064Y-115130959D01*
X154754240Y-114985789D01*
X154758086Y-114972552D01*
X154758087Y-114972546D01*
X154761000Y-114935534D01*
X154761000Y-113584466D01*
X154758087Y-113547452D01*
X154754240Y-113534211D01*
X154712065Y-113389045D01*
X154712064Y-113389042D01*
X154712064Y-113389041D01*
X154633509Y-113256212D01*
X154628094Y-113247056D01*
X154628087Y-113247047D01*
X154511452Y-113130412D01*
X154511444Y-113130406D01*
X154454504Y-113096732D01*
X154406821Y-113045663D01*
X154394317Y-112976921D01*
X154420962Y-112912332D01*
X154454504Y-112883268D01*
X154454998Y-112882976D01*
X154511447Y-112849592D01*
X154628092Y-112732947D01*
X154712064Y-112590959D01*
X154754240Y-112445789D01*
X154758086Y-112432552D01*
X154758087Y-112432546D01*
X154760999Y-112395541D01*
X154761000Y-112395534D01*
X154761000Y-111044466D01*
X154758087Y-111007452D01*
X154742302Y-110953121D01*
X154724201Y-110890816D01*
X154712064Y-110849041D01*
X154628092Y-110707053D01*
X154628090Y-110707051D01*
X154628087Y-110707047D01*
X154511452Y-110590412D01*
X154511444Y-110590406D01*
X154459193Y-110559505D01*
X154454503Y-110556731D01*
X154406821Y-110505663D01*
X154394317Y-110436921D01*
X154420962Y-110372332D01*
X154454504Y-110343268D01*
X154511447Y-110309592D01*
X154628092Y-110192947D01*
X154712064Y-110050959D01*
X154758087Y-109892548D01*
X154761000Y-109855534D01*
X154761000Y-108504466D01*
X154758087Y-108467452D01*
X154739554Y-108403663D01*
X154712065Y-108309045D01*
X154712064Y-108309042D01*
X154712064Y-108309041D01*
X154633030Y-108175403D01*
X154628094Y-108167056D01*
X154628087Y-108167047D01*
X154511452Y-108050412D01*
X154511444Y-108050406D01*
X154454504Y-108016732D01*
X154406821Y-107965663D01*
X154394317Y-107896921D01*
X154420962Y-107832332D01*
X154454504Y-107803268D01*
X154511447Y-107769592D01*
X154548739Y-107732300D01*
X154610061Y-107698814D01*
X154679753Y-107703798D01*
X154735687Y-107745668D01*
X154811955Y-107847547D01*
X154927164Y-107933793D01*
X154927171Y-107933797D01*
X154972118Y-107950561D01*
X155062017Y-107984091D01*
X155121627Y-107990500D01*
X155295000Y-107990499D01*
X155362039Y-108010183D01*
X155407794Y-108062987D01*
X155419000Y-108114499D01*
X155419000Y-111137587D01*
X155399315Y-111204626D01*
X155391950Y-111214896D01*
X155389686Y-111217734D01*
X155293711Y-111370476D01*
X155234131Y-111540745D01*
X155234130Y-111540750D01*
X155213935Y-111719996D01*
X155213935Y-111720003D01*
X155234130Y-111899249D01*
X155234131Y-111899254D01*
X155293711Y-112069523D01*
X155368986Y-112189322D01*
X155389684Y-112222262D01*
X155517238Y-112349816D01*
X155577433Y-112387639D01*
X155648774Y-112432466D01*
X155669978Y-112445789D01*
X155840245Y-112505368D01*
X155840250Y-112505369D01*
X156019496Y-112525565D01*
X156019500Y-112525565D01*
X156019504Y-112525565D01*
X156198749Y-112505369D01*
X156198752Y-112505368D01*
X156198755Y-112505368D01*
X156369022Y-112445789D01*
X156521762Y-112349816D01*
X156649316Y-112222262D01*
X156745289Y-112069522D01*
X156804868Y-111899255D01*
X156806395Y-111885703D01*
X156825065Y-111720003D01*
X156825065Y-111719996D01*
X156804869Y-111540750D01*
X156804868Y-111540745D01*
X156789329Y-111496337D01*
X156745289Y-111370478D01*
X156733298Y-111351395D01*
X156693465Y-111288001D01*
X156649316Y-111217738D01*
X156649314Y-111217736D01*
X156649313Y-111217734D01*
X156647050Y-111214896D01*
X156646159Y-111212715D01*
X156645611Y-111211842D01*
X156645764Y-111211745D01*
X156620644Y-111150209D01*
X156620000Y-111137587D01*
X156620000Y-108114499D01*
X156639685Y-108047460D01*
X156692489Y-108001705D01*
X156744000Y-107990499D01*
X156917371Y-107990499D01*
X156917372Y-107990499D01*
X156976983Y-107984091D01*
X157111831Y-107933796D01*
X157227046Y-107847546D01*
X157313296Y-107732331D01*
X157363591Y-107597483D01*
X157370000Y-107537873D01*
X157370000Y-107364500D01*
X157389685Y-107297461D01*
X157442489Y-107251706D01*
X157494000Y-107240500D01*
X162282831Y-107240500D01*
X162282847Y-107240501D01*
X162290443Y-107240501D01*
X162448554Y-107240501D01*
X162448557Y-107240501D01*
X162601285Y-107199577D01*
X162651404Y-107170639D01*
X162738216Y-107120520D01*
X162850020Y-107008716D01*
X162850020Y-107008714D01*
X162860228Y-106998507D01*
X162860230Y-106998504D01*
X164425970Y-105432763D01*
X164487291Y-105399280D01*
X164545738Y-105400670D01*
X164674092Y-105435063D01*
X164850534Y-105450500D01*
X164909499Y-105455659D01*
X164909500Y-105455659D01*
X164909501Y-105455659D01*
X164968466Y-105450500D01*
X165144908Y-105435063D01*
X165273262Y-105400671D01*
X165302907Y-105392728D01*
X165372757Y-105394391D01*
X165430619Y-105433554D01*
X165458123Y-105497782D01*
X165459000Y-105512503D01*
X165459000Y-107960402D01*
X165439315Y-108027441D01*
X165422681Y-108048083D01*
X164069428Y-109401335D01*
X164008105Y-109434820D01*
X163938413Y-109429836D01*
X163882480Y-109387964D01*
X163858063Y-109322500D01*
X163858218Y-109302857D01*
X163865468Y-109220000D01*
X163861968Y-109180000D01*
X163855706Y-109108425D01*
X163845635Y-108993308D01*
X163786739Y-108773504D01*
X163690568Y-108567266D01*
X163560047Y-108380861D01*
X163560045Y-108380858D01*
X163399141Y-108219954D01*
X163212734Y-108089432D01*
X163212732Y-108089431D01*
X163006497Y-107993261D01*
X163006488Y-107993258D01*
X162786697Y-107934366D01*
X162786693Y-107934365D01*
X162786692Y-107934365D01*
X162786691Y-107934364D01*
X162786686Y-107934364D01*
X162560002Y-107914532D01*
X162559998Y-107914532D01*
X162333313Y-107934364D01*
X162333302Y-107934366D01*
X162113511Y-107993258D01*
X162113502Y-107993261D01*
X161907267Y-108089431D01*
X161907265Y-108089432D01*
X161720858Y-108219954D01*
X161559954Y-108380858D01*
X161429432Y-108567265D01*
X161429431Y-108567267D01*
X161333261Y-108773502D01*
X161333258Y-108773511D01*
X161274366Y-108993302D01*
X161274364Y-108993313D01*
X161254532Y-109219998D01*
X161254532Y-109220001D01*
X161274364Y-109446686D01*
X161274366Y-109446697D01*
X161333258Y-109666488D01*
X161333261Y-109666497D01*
X161429431Y-109872732D01*
X161429432Y-109872734D01*
X161559954Y-110059141D01*
X161720858Y-110220045D01*
X161720861Y-110220047D01*
X161907266Y-110350568D01*
X162024429Y-110405202D01*
X162076868Y-110451374D01*
X162096020Y-110518568D01*
X162075804Y-110585449D01*
X162024429Y-110629966D01*
X161932362Y-110672898D01*
X161932357Y-110672900D01*
X161753121Y-110798402D01*
X161598402Y-110953121D01*
X161472900Y-111132357D01*
X161472898Y-111132361D01*
X161380426Y-111330668D01*
X161380422Y-111330677D01*
X161323793Y-111542020D01*
X161323793Y-111542024D01*
X161304723Y-111759997D01*
X161304723Y-111760002D01*
X161323793Y-111977975D01*
X161323793Y-111977979D01*
X161380422Y-112189322D01*
X161380424Y-112189326D01*
X161380425Y-112189330D01*
X161426661Y-112288484D01*
X161472897Y-112387638D01*
X161478426Y-112395534D01*
X161598402Y-112566877D01*
X161753123Y-112721598D01*
X161932361Y-112847102D01*
X162025017Y-112890308D01*
X162025019Y-112890309D01*
X162077459Y-112936481D01*
X162096611Y-113003674D01*
X162076395Y-113070556D01*
X162025020Y-113115073D01*
X161907517Y-113169866D01*
X161907512Y-113169868D01*
X161834526Y-113220973D01*
X161834526Y-113220974D01*
X162513553Y-113900000D01*
X162507339Y-113900000D01*
X162405606Y-113927259D01*
X162314394Y-113979920D01*
X162239920Y-114054394D01*
X162187259Y-114145606D01*
X162160000Y-114247339D01*
X162160000Y-114253552D01*
X161480974Y-113574526D01*
X161480973Y-113574526D01*
X161429868Y-113647512D01*
X161429866Y-113647516D01*
X161333734Y-113853673D01*
X161333730Y-113853682D01*
X161274860Y-114073389D01*
X161274858Y-114073400D01*
X161255034Y-114299997D01*
X161255034Y-114300002D01*
X161274858Y-114526599D01*
X161274860Y-114526610D01*
X161333730Y-114746317D01*
X161333735Y-114746331D01*
X161429863Y-114952478D01*
X161480974Y-115025472D01*
X162160000Y-114346446D01*
X162160000Y-114352661D01*
X162187259Y-114454394D01*
X162239920Y-114545606D01*
X162314394Y-114620080D01*
X162405606Y-114672741D01*
X162507339Y-114700000D01*
X162513553Y-114700000D01*
X161834526Y-115379025D01*
X161907513Y-115430132D01*
X161907521Y-115430136D01*
X162113668Y-115526264D01*
X162113682Y-115526269D01*
X162333389Y-115585139D01*
X162333400Y-115585141D01*
X162559998Y-115604966D01*
X162560002Y-115604966D01*
X162786599Y-115585141D01*
X162786610Y-115585139D01*
X163006317Y-115526269D01*
X163006331Y-115526264D01*
X163212478Y-115430136D01*
X163285471Y-115379024D01*
X162606447Y-114700000D01*
X162612661Y-114700000D01*
X162714394Y-114672741D01*
X162805606Y-114620080D01*
X162880080Y-114545606D01*
X162932741Y-114454394D01*
X162960000Y-114352661D01*
X162960000Y-114346447D01*
X163639024Y-115025471D01*
X163690136Y-114952478D01*
X163786264Y-114746331D01*
X163786269Y-114746317D01*
X163845139Y-114526610D01*
X163845141Y-114526599D01*
X163864966Y-114300002D01*
X163864966Y-114299997D01*
X163845141Y-114073400D01*
X163845139Y-114073389D01*
X163786269Y-113853682D01*
X163786264Y-113853668D01*
X163690136Y-113647521D01*
X163690132Y-113647513D01*
X163639025Y-113574526D01*
X162960000Y-114253551D01*
X162960000Y-114247339D01*
X162932741Y-114145606D01*
X162880080Y-114054394D01*
X162805606Y-113979920D01*
X162714394Y-113927259D01*
X162612661Y-113900000D01*
X162606448Y-113900000D01*
X163285472Y-113220974D01*
X163212480Y-113169864D01*
X163094979Y-113115073D01*
X163042540Y-113068901D01*
X163023388Y-113001707D01*
X163043604Y-112934826D01*
X163094976Y-112890311D01*
X163187639Y-112847102D01*
X163366877Y-112721598D01*
X163521598Y-112566877D01*
X163647102Y-112387639D01*
X163739575Y-112189330D01*
X163796207Y-111977977D01*
X163813657Y-111778520D01*
X163815277Y-111760002D01*
X163815277Y-111759997D01*
X163806658Y-111661480D01*
X163796207Y-111542023D01*
X163779023Y-111477891D01*
X163780685Y-111408043D01*
X163811114Y-111358119D01*
X166418006Y-108751228D01*
X166418011Y-108751224D01*
X166428214Y-108741020D01*
X166428216Y-108741020D01*
X166540020Y-108629216D01*
X166619077Y-108492284D01*
X166656102Y-108354106D01*
X166660000Y-108339558D01*
X166660000Y-108181443D01*
X166660000Y-102799060D01*
X166660001Y-102799047D01*
X166660001Y-102630944D01*
X166660001Y-102630943D01*
X166619077Y-102478216D01*
X166607334Y-102457876D01*
X166540024Y-102341290D01*
X166540018Y-102341282D01*
X166296318Y-102097582D01*
X166262833Y-102036259D01*
X166259999Y-102009901D01*
X166259999Y-100662129D01*
X166259998Y-100662123D01*
X166259997Y-100662116D01*
X166253591Y-100602517D01*
X166248614Y-100589174D01*
X166203297Y-100467671D01*
X166203293Y-100467664D01*
X166117047Y-100352455D01*
X166117044Y-100352452D01*
X166001835Y-100266206D01*
X166001828Y-100266202D01*
X165866982Y-100215908D01*
X165866983Y-100215908D01*
X165807383Y-100209501D01*
X165807381Y-100209500D01*
X165807373Y-100209500D01*
X165807364Y-100209500D01*
X164011629Y-100209500D01*
X164011623Y-100209501D01*
X163952016Y-100215908D01*
X163817171Y-100266202D01*
X163817164Y-100266206D01*
X163701955Y-100352452D01*
X163701952Y-100352455D01*
X163615706Y-100467664D01*
X163615702Y-100467671D01*
X163565408Y-100602517D01*
X163559832Y-100654385D01*
X163559001Y-100662123D01*
X163559000Y-100662135D01*
X163559000Y-102457870D01*
X163559001Y-102457876D01*
X163565408Y-102517483D01*
X163615702Y-102652328D01*
X163615706Y-102652335D01*
X163701952Y-102767544D01*
X163701955Y-102767547D01*
X163817164Y-102853793D01*
X163817171Y-102853797D01*
X163948581Y-102902810D01*
X164004515Y-102944681D01*
X164028932Y-103010145D01*
X164014080Y-103078418D01*
X163992930Y-103106673D01*
X163871003Y-103228600D01*
X163735465Y-103422169D01*
X163735464Y-103422171D01*
X163635598Y-103636335D01*
X163635594Y-103636344D01*
X163574438Y-103864586D01*
X163574436Y-103864596D01*
X163553841Y-104099999D01*
X163553841Y-104100000D01*
X163574436Y-104335403D01*
X163574438Y-104335413D01*
X163608827Y-104463756D01*
X163607164Y-104533606D01*
X163576733Y-104583530D01*
X162157084Y-106003181D01*
X162095761Y-106036666D01*
X162069403Y-106039500D01*
X157493999Y-106039500D01*
X157426960Y-106019815D01*
X157381205Y-105967011D01*
X157369999Y-105915500D01*
X157369999Y-105742129D01*
X157369998Y-105742123D01*
X157363591Y-105682516D01*
X157313297Y-105547671D01*
X157313293Y-105547664D01*
X157227047Y-105432455D01*
X157227044Y-105432452D01*
X157111835Y-105346206D01*
X157111828Y-105346202D01*
X156980417Y-105297189D01*
X156924483Y-105255318D01*
X156900066Y-105189853D01*
X156914918Y-105121580D01*
X156936063Y-105093332D01*
X157057995Y-104971401D01*
X157193535Y-104777830D01*
X157293403Y-104563663D01*
X157354563Y-104335408D01*
X157375159Y-104100000D01*
X157373190Y-104077500D01*
X157368710Y-104026292D01*
X157354563Y-103864592D01*
X157301500Y-103666554D01*
X157293405Y-103636344D01*
X157293404Y-103636343D01*
X157293403Y-103636337D01*
X157193535Y-103422171D01*
X157172701Y-103392416D01*
X157057994Y-103228597D01*
X156890904Y-103061508D01*
X156890896Y-103061501D01*
X156862752Y-103041795D01*
X156819127Y-102987219D01*
X156811933Y-102917720D01*
X156843455Y-102855365D01*
X156846162Y-102852571D01*
X160378506Y-99320228D01*
X160378511Y-99320224D01*
X160388714Y-99310020D01*
X160388716Y-99310020D01*
X160500520Y-99198216D01*
X160579577Y-99061284D01*
X160620500Y-98908557D01*
X160620500Y-91300655D01*
X160640185Y-91233616D01*
X160673373Y-91199082D01*
X160826877Y-91091598D01*
X160981598Y-90936877D01*
X161107102Y-90757639D01*
X161199575Y-90559330D01*
X161256207Y-90347977D01*
X161275277Y-90130000D01*
X161273754Y-90112596D01*
X161271569Y-90087618D01*
X161256207Y-89912023D01*
X161199575Y-89700670D01*
X161107102Y-89502362D01*
X161107100Y-89502359D01*
X161107099Y-89502357D01*
X160981599Y-89323124D01*
X160950990Y-89292515D01*
X160826877Y-89168402D01*
X160647639Y-89042898D01*
X160647640Y-89042898D01*
X160647638Y-89042897D01*
X160548484Y-88996661D01*
X160449330Y-88950425D01*
X160449326Y-88950424D01*
X160449322Y-88950422D01*
X160237977Y-88893793D01*
X160020002Y-88874723D01*
X160019998Y-88874723D01*
X159874682Y-88887436D01*
X159802023Y-88893793D01*
X159802020Y-88893793D01*
X159590677Y-88950422D01*
X159590668Y-88950426D01*
X159392361Y-89042898D01*
X159392357Y-89042900D01*
X159213121Y-89168402D01*
X159058402Y-89323121D01*
X158932900Y-89502357D01*
X158932898Y-89502361D01*
X158840426Y-89700668D01*
X158840422Y-89700677D01*
X158783793Y-89912020D01*
X158783793Y-89912024D01*
X158764723Y-90129997D01*
X158764723Y-90130002D01*
X158783793Y-90347975D01*
X158783793Y-90347979D01*
X158840422Y-90559322D01*
X158840424Y-90559326D01*
X158840425Y-90559330D01*
X158868712Y-90619991D01*
X158932897Y-90757638D01*
X158932898Y-90757639D01*
X159058402Y-90936877D01*
X159213123Y-91091598D01*
X159366625Y-91199081D01*
X159410249Y-91253657D01*
X159419500Y-91300655D01*
X159419500Y-98529402D01*
X159399815Y-98596441D01*
X159383181Y-98617083D01*
X155681681Y-102318583D01*
X155620358Y-102352068D01*
X155550666Y-102347084D01*
X155494733Y-102305212D01*
X155470316Y-102239748D01*
X155470000Y-102230902D01*
X155470000Y-95580597D01*
X155489685Y-95513558D01*
X155506319Y-95492916D01*
X156199257Y-94799978D01*
X157078119Y-93921115D01*
X157139440Y-93887632D01*
X157197891Y-93889023D01*
X157212281Y-93892878D01*
X157262023Y-93906207D01*
X157432450Y-93921117D01*
X157479998Y-93925277D01*
X157480000Y-93925277D01*
X157480002Y-93925277D01*
X157508254Y-93922805D01*
X157697977Y-93906207D01*
X157909330Y-93849575D01*
X158107639Y-93757102D01*
X158286877Y-93631598D01*
X158441598Y-93476877D01*
X158567102Y-93297639D01*
X158659575Y-93099330D01*
X158716207Y-92887977D01*
X158735277Y-92670000D01*
X158734921Y-92665934D01*
X158730833Y-92619200D01*
X158716207Y-92452023D01*
X158659575Y-92240670D01*
X158567102Y-92042362D01*
X158567100Y-92042359D01*
X158567099Y-92042357D01*
X158441599Y-91863124D01*
X158369794Y-91791319D01*
X158286877Y-91708402D01*
X158107639Y-91582898D01*
X158107640Y-91582898D01*
X158107638Y-91582897D01*
X158008484Y-91536661D01*
X157909330Y-91490425D01*
X157909326Y-91490424D01*
X157909322Y-91490422D01*
X157697977Y-91433793D01*
X157480002Y-91414723D01*
X157479998Y-91414723D01*
X157346516Y-91426401D01*
X157262023Y-91433793D01*
X157262020Y-91433793D01*
X157050677Y-91490422D01*
X157050668Y-91490426D01*
X156852361Y-91582898D01*
X156852357Y-91582900D01*
X156673121Y-91708402D01*
X156518402Y-91863121D01*
X156392900Y-92042357D01*
X156392898Y-92042361D01*
X156300426Y-92240668D01*
X156300422Y-92240677D01*
X156243793Y-92452020D01*
X156243793Y-92452024D01*
X156224723Y-92669997D01*
X156224723Y-92670002D01*
X156243793Y-92887975D01*
X156243793Y-92887979D01*
X156260976Y-92952106D01*
X156259313Y-93021956D01*
X156228882Y-93071880D01*
X154500786Y-94799978D01*
X154388981Y-94911782D01*
X154388979Y-94911784D01*
X154362021Y-94958478D01*
X154350626Y-94978216D01*
X154309923Y-95048715D01*
X154268999Y-95201443D01*
X154268999Y-95201445D01*
X154268999Y-95369546D01*
X154269000Y-95369559D01*
X154269000Y-97633500D01*
X154249315Y-97700539D01*
X154196511Y-97746294D01*
X154145000Y-97757500D01*
X152270040Y-97757500D01*
X152259233Y-97757028D01*
X152235250Y-97754929D01*
X152209501Y-97752677D01*
X152209499Y-97752677D01*
X152183749Y-97754929D01*
X152159766Y-97757028D01*
X152148960Y-97757500D01*
X151914958Y-97757500D01*
X151877953Y-97760412D01*
X151877947Y-97760413D01*
X151719545Y-97806434D01*
X151719542Y-97806435D01*
X151577556Y-97890405D01*
X151577546Y-97890413D01*
X151482292Y-97985666D01*
X151465737Y-97999558D01*
X151394882Y-98049172D01*
X151238672Y-98205381D01*
X151111966Y-98386338D01*
X151111965Y-98386340D01*
X151018607Y-98586548D01*
X151018604Y-98586554D01*
X150961430Y-98799929D01*
X150961429Y-98799937D01*
X150942177Y-99019997D01*
X150942177Y-99020002D01*
X150961429Y-99240062D01*
X150961430Y-99240070D01*
X151018604Y-99453445D01*
X151018605Y-99453447D01*
X151018606Y-99453450D01*
X151082179Y-99589783D01*
X151111966Y-99653662D01*
X151111968Y-99653666D01*
X151221620Y-99810265D01*
X151238674Y-99834620D01*
X151394880Y-99990826D01*
X151465746Y-100040446D01*
X151482289Y-100054328D01*
X151577553Y-100149592D01*
X151634496Y-100183268D01*
X151682179Y-100234338D01*
X151694682Y-100303079D01*
X151668036Y-100367669D01*
X151634496Y-100396732D01*
X151577553Y-100430408D01*
X151577546Y-100430413D01*
X151482292Y-100525666D01*
X151465737Y-100539558D01*
X151394882Y-100589172D01*
X151238672Y-100745381D01*
X151111967Y-100926336D01*
X151111239Y-100927899D01*
X151110733Y-100928472D01*
X151109258Y-100931029D01*
X151108744Y-100930732D01*
X151065069Y-100980341D01*
X150998854Y-100999500D01*
X150431069Y-100999500D01*
X150364030Y-100979815D01*
X150343388Y-100963181D01*
X149706319Y-100326112D01*
X149672834Y-100264789D01*
X149670000Y-100238431D01*
X149670000Y-97239060D01*
X149670001Y-97239047D01*
X149670001Y-97070944D01*
X149638138Y-96952032D01*
X149629077Y-96918216D01*
X149629073Y-96918209D01*
X149550024Y-96781290D01*
X149550018Y-96781282D01*
X146496319Y-93727583D01*
X146462834Y-93666260D01*
X146460000Y-93639902D01*
X146460000Y-93628249D01*
X146479685Y-93561210D01*
X146532489Y-93515455D01*
X146601647Y-93505511D01*
X146665203Y-93534536D01*
X146671681Y-93540568D01*
X146750358Y-93619245D01*
X146750361Y-93619247D01*
X146936766Y-93749768D01*
X147143004Y-93845939D01*
X147143009Y-93845940D01*
X147143011Y-93845941D01*
X147156581Y-93849577D01*
X147362808Y-93904835D01*
X147524730Y-93919001D01*
X147589498Y-93924668D01*
X147589500Y-93924668D01*
X147589502Y-93924668D01*
X147646173Y-93919709D01*
X147816192Y-93904835D01*
X148035996Y-93845939D01*
X148242234Y-93749768D01*
X148428639Y-93619247D01*
X148589547Y-93458339D01*
X148720068Y-93271934D01*
X148816239Y-93065696D01*
X148875135Y-92845892D01*
X148894968Y-92619200D01*
X148875135Y-92392508D01*
X148816239Y-92172704D01*
X148720068Y-91966466D01*
X148589547Y-91780061D01*
X148589545Y-91780058D01*
X148428641Y-91619154D01*
X148242234Y-91488632D01*
X148242232Y-91488631D01*
X148035997Y-91392461D01*
X148035988Y-91392458D01*
X147816197Y-91333566D01*
X147816193Y-91333565D01*
X147816192Y-91333565D01*
X147816191Y-91333564D01*
X147816186Y-91333564D01*
X147589502Y-91313732D01*
X147589498Y-91313732D01*
X147362813Y-91333564D01*
X147362802Y-91333566D01*
X147143011Y-91392458D01*
X147143002Y-91392461D01*
X146936767Y-91488631D01*
X146936765Y-91488632D01*
X146750358Y-91619154D01*
X146671681Y-91697832D01*
X146610358Y-91731317D01*
X146540666Y-91726333D01*
X146484733Y-91684461D01*
X146460316Y-91618997D01*
X146460000Y-91610151D01*
X146460000Y-88203383D01*
X146456547Y-88190498D01*
X146456546Y-88190496D01*
X146436600Y-88116057D01*
X146432437Y-88100520D01*
X146432437Y-88100519D01*
X146419078Y-88050659D01*
X146419076Y-88050655D01*
X146340024Y-87913732D01*
X146340021Y-87913728D01*
X146340020Y-87913726D01*
X146228216Y-87801922D01*
X146228215Y-87801921D01*
X146223885Y-87797591D01*
X146223874Y-87797581D01*
X146150098Y-87723805D01*
X146116613Y-87662482D01*
X146113779Y-87636124D01*
X146113779Y-87584246D01*
X146133464Y-87517207D01*
X146186268Y-87471452D01*
X146255426Y-87461508D01*
X146318982Y-87490533D01*
X146325460Y-87496565D01*
X146809444Y-87980549D01*
X146856127Y-88018169D01*
X146987043Y-88077957D01*
X146987042Y-88077957D01*
X147004949Y-88080531D01*
X147129500Y-88098439D01*
X147271957Y-88077957D01*
X147347642Y-88043392D01*
X147416797Y-88033449D01*
X147480353Y-88062473D01*
X147518128Y-88121251D01*
X147522727Y-88145947D01*
X147539415Y-88347347D01*
X147539417Y-88347359D01*
X147596393Y-88572351D01*
X147689626Y-88784899D01*
X147816567Y-88979198D01*
X147816570Y-88979202D01*
X147816572Y-88979204D01*
X147973767Y-89149964D01*
X147973770Y-89149966D01*
X147973773Y-89149969D01*
X148156916Y-89292515D01*
X148156922Y-89292519D01*
X148156925Y-89292521D01*
X148361048Y-89402987D01*
X148475038Y-89442119D01*
X148580566Y-89478348D01*
X148580568Y-89478348D01*
X148580570Y-89478349D01*
X148809502Y-89516551D01*
X148809503Y-89516551D01*
X149041599Y-89516551D01*
X149041600Y-89516551D01*
X149270532Y-89478349D01*
X149490054Y-89402987D01*
X149694177Y-89292521D01*
X149877335Y-89149964D01*
X150034530Y-88979204D01*
X150161475Y-88784900D01*
X150254708Y-88572351D01*
X150311685Y-88347356D01*
X150321673Y-88226819D01*
X150330851Y-88116057D01*
X150330851Y-88116044D01*
X150311686Y-87884753D01*
X150311684Y-87884742D01*
X150254708Y-87659750D01*
X150161475Y-87447202D01*
X150034534Y-87252903D01*
X150034531Y-87252900D01*
X150034530Y-87252898D01*
X149877335Y-87082138D01*
X149877330Y-87082134D01*
X149877328Y-87082132D01*
X149694185Y-86939586D01*
X149694179Y-86939582D01*
X149490055Y-86829115D01*
X149490046Y-86829112D01*
X149382395Y-86792155D01*
X156230000Y-86792155D01*
X156230000Y-87340000D01*
X157164314Y-87340000D01*
X157159920Y-87344394D01*
X157107259Y-87435606D01*
X157080000Y-87537339D01*
X157080000Y-87642661D01*
X157107259Y-87744394D01*
X157159920Y-87835606D01*
X157164314Y-87840000D01*
X156230000Y-87840000D01*
X156230000Y-88387844D01*
X156236401Y-88447372D01*
X156236403Y-88447379D01*
X156286645Y-88582086D01*
X156286649Y-88582093D01*
X156372809Y-88697187D01*
X156372812Y-88697190D01*
X156487906Y-88783350D01*
X156487913Y-88783354D01*
X156622620Y-88833596D01*
X156622627Y-88833598D01*
X156682155Y-88839999D01*
X156682172Y-88840000D01*
X157230000Y-88840000D01*
X157230000Y-87905686D01*
X157234394Y-87910080D01*
X157325606Y-87962741D01*
X157427339Y-87990000D01*
X157532661Y-87990000D01*
X157634394Y-87962741D01*
X157725606Y-87910080D01*
X157730000Y-87905686D01*
X157730000Y-88840000D01*
X158277828Y-88840000D01*
X158277844Y-88839999D01*
X158337372Y-88833598D01*
X158337379Y-88833596D01*
X158472086Y-88783354D01*
X158472093Y-88783350D01*
X158587187Y-88697190D01*
X158587190Y-88697187D01*
X158673350Y-88582093D01*
X158673354Y-88582086D01*
X158723596Y-88447379D01*
X158723598Y-88447372D01*
X158729999Y-88387844D01*
X158730000Y-88387827D01*
X158730000Y-87840000D01*
X157795686Y-87840000D01*
X157800080Y-87835606D01*
X157852741Y-87744394D01*
X157880000Y-87642661D01*
X157880000Y-87537339D01*
X157852741Y-87435606D01*
X157800080Y-87344394D01*
X157795686Y-87340000D01*
X158730000Y-87340000D01*
X158730000Y-86792172D01*
X158729999Y-86792155D01*
X158723598Y-86732627D01*
X158723596Y-86732620D01*
X158673354Y-86597913D01*
X158673350Y-86597906D01*
X158587190Y-86482812D01*
X158587187Y-86482809D01*
X158472093Y-86396649D01*
X158472086Y-86396645D01*
X158337379Y-86346403D01*
X158337372Y-86346401D01*
X158277844Y-86340000D01*
X157730000Y-86340000D01*
X157730000Y-87274314D01*
X157725606Y-87269920D01*
X157634394Y-87217259D01*
X157532661Y-87190000D01*
X157427339Y-87190000D01*
X157325606Y-87217259D01*
X157234394Y-87269920D01*
X157230000Y-87274314D01*
X157230000Y-86340000D01*
X156682155Y-86340000D01*
X156622627Y-86346401D01*
X156622620Y-86346403D01*
X156487913Y-86396645D01*
X156487906Y-86396649D01*
X156372812Y-86482809D01*
X156372809Y-86482812D01*
X156286649Y-86597906D01*
X156286645Y-86597913D01*
X156236403Y-86732620D01*
X156236401Y-86732627D01*
X156230000Y-86792155D01*
X149382395Y-86792155D01*
X149270535Y-86753753D01*
X149098833Y-86725101D01*
X149041600Y-86715551D01*
X148964820Y-86715551D01*
X148897781Y-86695866D01*
X148852026Y-86643062D01*
X148842082Y-86573904D01*
X148852026Y-86540039D01*
X148887457Y-86462456D01*
X148907939Y-86320000D01*
X148887457Y-86177543D01*
X148827669Y-86046627D01*
X148790050Y-85999944D01*
X148790045Y-85999939D01*
X148790041Y-85999934D01*
X147449563Y-84659458D01*
X147449556Y-84659451D01*
X147402873Y-84621831D01*
X147292752Y-84571540D01*
X147271955Y-84562042D01*
X147271957Y-84562042D01*
X147129500Y-84541561D01*
X146987043Y-84562042D01*
X146856129Y-84621829D01*
X146809434Y-84659458D01*
X146016495Y-85452398D01*
X145955172Y-85485883D01*
X145885480Y-85480899D01*
X145841133Y-85452398D01*
X143807090Y-83418355D01*
X143807088Y-83418352D01*
X143688217Y-83299481D01*
X143688216Y-83299480D01*
X143601404Y-83249360D01*
X143601404Y-83249359D01*
X143601400Y-83249358D01*
X143551285Y-83220423D01*
X143398557Y-83179499D01*
X143240443Y-83179499D01*
X143232847Y-83179499D01*
X143232831Y-83179500D01*
X137048557Y-83179500D01*
X136890442Y-83179500D01*
X136737715Y-83220423D01*
X136737714Y-83220423D01*
X136737712Y-83220424D01*
X136737709Y-83220425D01*
X136687596Y-83249359D01*
X136687595Y-83249360D01*
X136644189Y-83274420D01*
X136600785Y-83299479D01*
X136600782Y-83299481D01*
X136488978Y-83411286D01*
X135487084Y-84413181D01*
X135425761Y-84446666D01*
X135399403Y-84449500D01*
X130706170Y-84449500D01*
X130706154Y-84449499D01*
X130698558Y-84449499D01*
X130540443Y-84449499D01*
X130464079Y-84469961D01*
X130387714Y-84490423D01*
X130387709Y-84490426D01*
X130250790Y-84569475D01*
X130250782Y-84569481D01*
X126328981Y-88491282D01*
X126328979Y-88491285D01*
X126312296Y-88520182D01*
X126294158Y-88551598D01*
X126249923Y-88628215D01*
X126208999Y-88780943D01*
X126208999Y-88780945D01*
X126208999Y-88949046D01*
X126209000Y-88949059D01*
X126209000Y-95190908D01*
X126189315Y-95257947D01*
X126137414Y-95303286D01*
X126131673Y-95305963D01*
X126131669Y-95305965D01*
X125938097Y-95441505D01*
X125771005Y-95608597D01*
X125641075Y-95794158D01*
X125586498Y-95837783D01*
X125517000Y-95844977D01*
X125454645Y-95813454D01*
X125437925Y-95794158D01*
X125307994Y-95608597D01*
X125140902Y-95441506D01*
X125140895Y-95441501D01*
X124947334Y-95305967D01*
X124947330Y-95305965D01*
X124866675Y-95268355D01*
X124733163Y-95206097D01*
X124733159Y-95206096D01*
X124733155Y-95206094D01*
X124504913Y-95144938D01*
X124504903Y-95144936D01*
X124269501Y-95124341D01*
X124269499Y-95124341D01*
X124034096Y-95144936D01*
X124034086Y-95144938D01*
X123805844Y-95206094D01*
X123805835Y-95206098D01*
X123591671Y-95305964D01*
X123591669Y-95305965D01*
X123398097Y-95441505D01*
X123231005Y-95608597D01*
X123095465Y-95802169D01*
X123095464Y-95802171D01*
X122995598Y-96016335D01*
X122995594Y-96016344D01*
X122934438Y-96244586D01*
X122934436Y-96244596D01*
X122913841Y-96479999D01*
X120887659Y-96479999D01*
X120938743Y-96313831D01*
X120940262Y-96309220D01*
X121266990Y-95379721D01*
X121268684Y-95375190D01*
X121632112Y-94459406D01*
X121634015Y-94454877D01*
X121649257Y-94420521D01*
X122033531Y-93554339D01*
X122035591Y-93549932D01*
X122470638Y-92665898D01*
X122472866Y-92661589D01*
X122942697Y-91795585D01*
X122945111Y-91791338D01*
X123448993Y-90944710D01*
X123451590Y-90940539D01*
X123479426Y-90897738D01*
X123988724Y-90114623D01*
X123991448Y-90110612D01*
X124561005Y-89306687D01*
X124563889Y-89302782D01*
X125164979Y-88522108D01*
X125168026Y-88518310D01*
X125799656Y-87762175D01*
X125802847Y-87758507D01*
X126464058Y-87028062D01*
X126467374Y-87024542D01*
X127157121Y-86320941D01*
X127160566Y-86317564D01*
X127877701Y-85641981D01*
X127881321Y-85638703D01*
X128624765Y-84992148D01*
X128628471Y-84989052D01*
X129397047Y-84372554D01*
X129400886Y-84369599D01*
X130193351Y-83784153D01*
X130197296Y-83781357D01*
X131012400Y-83227888D01*
X131016495Y-83225225D01*
X131852929Y-82704616D01*
X131857133Y-82702113D01*
X132713621Y-82215160D01*
X132717913Y-82212832D01*
X133593063Y-81760325D01*
X133597460Y-81758161D01*
X134489913Y-81340802D01*
X134494348Y-81338834D01*
X135402706Y-80957280D01*
X135407264Y-80955470D01*
X136330089Y-80610324D01*
X136334644Y-80608724D01*
X137144151Y-80342135D01*
X143239000Y-80342135D01*
X143239000Y-82137870D01*
X143239001Y-82137876D01*
X143245408Y-82197483D01*
X143295702Y-82332328D01*
X143295706Y-82332335D01*
X143381952Y-82447544D01*
X143381955Y-82447547D01*
X143497164Y-82533793D01*
X143497171Y-82533797D01*
X143632017Y-82584091D01*
X143632016Y-82584091D01*
X143638944Y-82584835D01*
X143691627Y-82590500D01*
X145487372Y-82590499D01*
X145546983Y-82584091D01*
X145681831Y-82533796D01*
X145797046Y-82447546D01*
X145883296Y-82332331D01*
X145933591Y-82197483D01*
X145940000Y-82137873D01*
X145939999Y-80342128D01*
X145933591Y-80282517D01*
X145883296Y-80147669D01*
X145883295Y-80147668D01*
X145883293Y-80147664D01*
X145797047Y-80032455D01*
X145797044Y-80032452D01*
X145681835Y-79946206D01*
X145681828Y-79946202D01*
X145546982Y-79895908D01*
X145546983Y-79895908D01*
X145487383Y-79889501D01*
X145487381Y-79889500D01*
X145487373Y-79889500D01*
X145487364Y-79889500D01*
X143691629Y-79889500D01*
X143691623Y-79889501D01*
X143632016Y-79895908D01*
X143497171Y-79946202D01*
X143497164Y-79946206D01*
X143381955Y-80032452D01*
X143381952Y-80032455D01*
X143295706Y-80147664D01*
X143295702Y-80147671D01*
X143245408Y-80282517D01*
X143243553Y-80299777D01*
X143239001Y-80342123D01*
X143239000Y-80342135D01*
X137144151Y-80342135D01*
X137270441Y-80300545D01*
X137275131Y-80299103D01*
X138222460Y-80028367D01*
X138227130Y-80027132D01*
X139184477Y-79794271D01*
X139189216Y-79793218D01*
X140155055Y-79598603D01*
X140159827Y-79597740D01*
X141132644Y-79441677D01*
X141137482Y-79441000D01*
X142115713Y-79323739D01*
X142120573Y-79323255D01*
X143102656Y-79244980D01*
X143107572Y-79244687D01*
X144091980Y-79205520D01*
X144096910Y-79205422D01*
X145082090Y-79205422D01*
X145087020Y-79205520D01*
G37*
%TD.AperFunction*%
%TD*%
M02*
