M48
; DRILL file {KiCad 8.0.2-1} date 2025-03-04T20:19:20+0900
; FORMAT={-:-/ absolute / inch / decimal}
; #@! TF.CreationDate,2025-03-04T20:19:20+09:00
; #@! TF.GenerationSoftware,Kicad,Pcbnew,8.0.2-1
; #@! TF.FileFunction,Plated,1,2,PTH
FMAT,2
INCH
; #@! TA.AperFunction,Plated,PTH,ViaDrill
T1C0.0118
; #@! TA.AperFunction,Plated,PTH,ComponentDrill
T2C0.0315
; #@! TA.AperFunction,Plated,PTH,ComponentDrill
T3C0.0350
; #@! TA.AperFunction,Plated,PTH,ComponentDrill
T4C0.0354
; #@! TA.AperFunction,Plated,PTH,ComponentDrill
T5C0.0394
%
G90
G05
T1
X5.0425Y-3.9484
X5.1925Y-3.8984
X5.3925Y-3.5984
X5.4925Y-3.6984
X5.4925Y-3.8484
X5.5925Y-4.4984
X5.7941Y-4.5
X6.1425Y-4.3984
T2
X5.1Y-3.5484
X5.2Y-3.4484
X5.2Y-3.6484
X5.4925Y-4.1484
X5.4925Y-4.2484
X5.4925Y-4.6484
X5.5744Y-3.6484
X5.5744Y-4.0484
X5.8106Y-3.6464
X5.8106Y-4.0464
X5.8925Y-4.1484
X5.8925Y-4.2484
X5.8925Y-4.6484
X6.2Y-3.4484
X6.2Y-3.6484
X6.3Y-3.5484
X6.4Y-4.3
X6.4Y-4.4
X6.4Y-4.5
T3
X5.3925Y-3.8984
X5.3925Y-3.9984
X5.3925Y-4.0984
X5.3925Y-4.1984
X5.3925Y-4.2984
X5.3925Y-4.3984
X5.3925Y-4.4984
X5.9925Y-3.8984
X5.9925Y-3.9984
X5.9925Y-4.0984
X5.9925Y-4.1984
X5.9925Y-4.2984
X5.9925Y-4.3984
X5.9925Y-4.4984
T4
X5.5218Y-3.4691
X5.5649Y-4.6984
X5.5925Y-3.3984
X5.6499Y-4.6984
X5.7349Y-4.6984
X5.7925Y-3.3984
X5.8199Y-4.6984
X5.8632Y-3.4691
T5
X4.8925Y-3.7984
X4.8925Y-4.0484
X4.8925Y-4.1484
X4.8925Y-4.2484
X4.8925Y-4.3484
X4.8925Y-4.4484
X4.9925Y-3.7984
X4.9925Y-4.0484
X4.9925Y-4.1484
X4.9925Y-4.2484
X4.9925Y-4.3484
X4.9925Y-4.4484
X5.0925Y-3.7984
X5.0925Y-4.7484
X5.0933Y-4.0496
X5.0933Y-4.1496
X5.0933Y-4.2496
X5.0933Y-4.3496
X5.0933Y-4.4496
X5.1925Y-3.7984
X5.2425Y-4.0984
X5.2425Y-4.1984
X5.6925Y-3.1984
X6.0425Y-4.7484
X6.0425Y-4.8484
X6.1425Y-4.0984
X6.1425Y-4.1984
X6.2925Y-4.7484
X6.4925Y-3.9984
X6.4925Y-4.0984
M30
