%TF.GenerationSoftware,KiCad,Pcbnew,8.0.2-1*%
%TF.CreationDate,2025-03-04T20:19:02+09:00*%
%TF.ProjectId,test,74657374-2e6b-4696-9361-645f70636258,rev?*%
%TF.SameCoordinates,Original*%
%TF.FileFunction,Soldermask,Bot*%
%TF.FilePolarity,Negative*%
%FSLAX46Y46*%
G04 Gerber Fmt 4.6, Leading zero omitted, Abs format (unit mm)*
G04 Created by KiCad (PCBNEW 8.0.2-1) date 2025-03-04 20:19:02*
%MOMM*%
%LPD*%
G01*
G04 APERTURE LIST*
G04 Aperture macros list*
%AMRotRect*
0 Rectangle, with rotation*
0 The origin of the aperture is its center*
0 $1 length*
0 $2 width*
0 $3 Rotation angle, in degrees counterclockwise*
0 Add horizontal line*
21,1,$1,$2,0,0,$3*%
G04 Aperture macros list end*
%ADD10C,1.600000*%
%ADD11O,1.600000X1.600000*%
%ADD12C,1.700000*%
%ADD13O,1.700000X1.700000*%
%ADD14R,1.700000X1.700000*%
%ADD15C,1.524000*%
%ADD16C,1.500000*%
%ADD17R,1.500000X1.500000*%
%ADD18RotRect,1.800000X1.800000X225.000000*%
%ADD19C,1.800000*%
%ADD20RotRect,1.800000X1.800000X315.000000*%
%ADD21R,1.800000X1.800000*%
G04 APERTURE END LIST*
D10*
%TO.C,R1*%
X139509500Y-107910000D03*
D11*
X139509500Y-118070000D03*
%TD*%
D10*
%TO.C,R2*%
X149669500Y-107910000D03*
D11*
X149669500Y-118070000D03*
%TD*%
D10*
%TO.C,R3*%
X139509500Y-105370000D03*
D11*
X149669500Y-105370000D03*
%TD*%
D10*
%TO.C,R4*%
X141589500Y-92670000D03*
D11*
X141589500Y-102830000D03*
%TD*%
%TO.C,R5*%
X147589500Y-102779200D03*
D10*
X147589500Y-92619200D03*
%TD*%
D12*
%TO.C,J9*%
X126809500Y-102830000D03*
D13*
X126809500Y-105370000D03*
X126809500Y-107910000D03*
X126809500Y-110450000D03*
X126809500Y-112990000D03*
%TD*%
D12*
%TO.C,J7*%
X129369500Y-102860000D03*
D13*
X129369500Y-105400000D03*
X129369500Y-107940000D03*
X129369500Y-110480000D03*
X129369500Y-113020000D03*
%TD*%
D14*
%TO.C,J4*%
X144589500Y-81240000D03*
%TD*%
D12*
%TO.C,J8*%
X124269500Y-102830000D03*
D13*
X124269500Y-105370000D03*
X124269500Y-107910000D03*
X124269500Y-110450000D03*
X124269500Y-112990000D03*
%TD*%
D15*
%TO.C,U1*%
X136969500Y-114260000D03*
X136969500Y-111720000D03*
X136969500Y-109180000D03*
X136969500Y-106640000D03*
X136969500Y-104100000D03*
X136969500Y-101560000D03*
X136969500Y-99020000D03*
X152209500Y-99020000D03*
X152209500Y-101560000D03*
X152209500Y-104100000D03*
X152209500Y-106640000D03*
X152209500Y-109180000D03*
X152209500Y-111720000D03*
X152209500Y-114260000D03*
%TD*%
D14*
%TO.C,J6*%
X129349500Y-120610000D03*
%TD*%
D16*
%TO.C,SW1*%
X162560000Y-111760000D03*
D10*
X162560000Y-109220000D03*
X162560000Y-114300000D03*
%TD*%
D17*
%TO.C,Q2*%
X157480000Y-87590000D03*
D16*
X160020000Y-90130000D03*
X157480000Y-92670000D03*
%TD*%
D14*
%TO.C,M2*%
X156019500Y-106640000D03*
D13*
X156019500Y-104100000D03*
%TD*%
D18*
%TO.C,D1*%
X142049500Y-86320000D03*
D19*
X140253449Y-88116051D03*
%TD*%
D12*
%TO.C,M1*%
X133159500Y-106640000D03*
D14*
X133159500Y-104100000D03*
%TD*%
%TO.C,J2*%
X164909500Y-101560000D03*
D13*
X164909500Y-104100000D03*
%TD*%
D17*
%TO.C,Q1*%
X132080000Y-92670000D03*
D16*
X129540000Y-90130000D03*
X132080000Y-87590000D03*
%TD*%
D19*
%TO.C,D2*%
X148925551Y-88116051D03*
D20*
X147129500Y-86320000D03*
%TD*%
D13*
%TO.C,J1*%
X153479500Y-123150000D03*
D14*
X153479500Y-120610000D03*
%TD*%
%TO.C,J5*%
X159829500Y-120610000D03*
%TD*%
D12*
%TO.C,J3*%
X124269500Y-96480000D03*
D13*
X126809500Y-96480000D03*
D14*
X129349500Y-96480000D03*
D13*
X131889500Y-96480000D03*
%TD*%
D19*
%TO.C,D4*%
X141349500Y-119340000D03*
D21*
X143508500Y-119340000D03*
D19*
X145667500Y-119340000D03*
X147826500Y-119340000D03*
%TD*%
M02*
