%TF.GenerationSoftware,KiCad,Pcbnew,8.0.2-1*%
%TF.CreationDate,2025-03-04T20:19:02+09:00*%
%TF.ProjectId,test,74657374-2e6b-4696-9361-645f70636258,rev?*%
%TF.SameCoordinates,Original*%
%TF.FileFunction,Copper,L2,Bot*%
%TF.FilePolarity,Positive*%
%FSLAX46Y46*%
G04 Gerber Fmt 4.6, Leading zero omitted, Abs format (unit mm)*
G04 Created by KiCad (PCBNEW 8.0.2-1) date 2025-03-04 20:19:02*
%MOMM*%
%LPD*%
G01*
G04 APERTURE LIST*
G04 Aperture macros list*
%AMRotRect*
0 Rectangle, with rotation*
0 The origin of the aperture is its center*
0 $1 length*
0 $2 width*
0 $3 Rotation angle, in degrees counterclockwise*
0 Add horizontal line*
21,1,$1,$2,0,0,$3*%
G04 Aperture macros list end*
%TA.AperFunction,ComponentPad*%
%ADD10C,1.600000*%
%TD*%
%TA.AperFunction,ComponentPad*%
%ADD11O,1.600000X1.600000*%
%TD*%
%TA.AperFunction,ComponentPad*%
%ADD12C,1.700000*%
%TD*%
%TA.AperFunction,ComponentPad*%
%ADD13O,1.700000X1.700000*%
%TD*%
%TA.AperFunction,ComponentPad*%
%ADD14R,1.700000X1.700000*%
%TD*%
%TA.AperFunction,ComponentPad*%
%ADD15C,1.524000*%
%TD*%
%TA.AperFunction,ComponentPad*%
%ADD16C,1.500000*%
%TD*%
%TA.AperFunction,ComponentPad*%
%ADD17R,1.500000X1.500000*%
%TD*%
%TA.AperFunction,ComponentPad*%
%ADD18RotRect,1.800000X1.800000X225.000000*%
%TD*%
%TA.AperFunction,ComponentPad*%
%ADD19C,1.800000*%
%TD*%
%TA.AperFunction,ComponentPad*%
%ADD20RotRect,1.800000X1.800000X315.000000*%
%TD*%
%TA.AperFunction,ComponentPad*%
%ADD21R,1.800000X1.800000*%
%TD*%
%TA.AperFunction,ViaPad*%
%ADD22C,0.600000*%
%TD*%
%TA.AperFunction,Conductor*%
%ADD23C,0.200000*%
%TD*%
G04 APERTURE END LIST*
D10*
%TO.P,R1,1*%
%TO.N,Net-(U1-GPIO19{slash}D8{slash}SCK)*%
X139509500Y-107910000D03*
D11*
%TO.P,R1,2*%
%TO.N,Net-(D4-RA)*%
X139509500Y-118070000D03*
%TD*%
D10*
%TO.P,R2,1*%
%TO.N,Net-(U1-GPIO18{slash}D10{slash}MOSI)*%
X149669500Y-107910000D03*
D11*
%TO.P,R2,2*%
%TO.N,Net-(D4-GA)*%
X149669500Y-118070000D03*
%TD*%
D10*
%TO.P,R3,1*%
%TO.N,Net-(U1-GPIO20{slash}D9{slash}MISO)*%
X139509500Y-105370000D03*
D11*
%TO.P,R3,2*%
%TO.N,Net-(D4-BA)*%
X149669500Y-105370000D03*
%TD*%
D10*
%TO.P,R4,1*%
%TO.N,Net-(D1-K)*%
X141589500Y-92670000D03*
D11*
%TO.P,R4,2*%
%TO.N,GND*%
X141589500Y-102830000D03*
%TD*%
%TO.P,R5,2*%
%TO.N,GND*%
X147589500Y-102779200D03*
D10*
%TO.P,R5,1*%
%TO.N,Net-(D2-K)*%
X147589500Y-92619200D03*
%TD*%
D12*
%TO.P,J9,1,Pin_1*%
%TO.N,unconnected-(J9-Pin_1-Pad1)*%
X126809500Y-102830000D03*
D13*
%TO.P,J9,2,Pin_2*%
%TO.N,unconnected-(J9-Pin_2-Pad2)*%
X126809500Y-105370000D03*
%TO.P,J9,3,Pin_3*%
%TO.N,unconnected-(J9-Pin_3-Pad3)*%
X126809500Y-107910000D03*
%TO.P,J9,4,Pin_4*%
%TO.N,unconnected-(J9-Pin_4-Pad4)*%
X126809500Y-110450000D03*
%TO.P,J9,5,Pin_5*%
%TO.N,unconnected-(J9-Pin_5-Pad5)*%
X126809500Y-112990000D03*
%TD*%
D12*
%TO.P,J7,1,Pin_1*%
%TO.N,unconnected-(J7-Pin_1-Pad1)*%
X129369500Y-102860000D03*
D13*
%TO.P,J7,2,Pin_2*%
%TO.N,unconnected-(J7-Pin_2-Pad2)*%
X129369500Y-105400000D03*
%TO.P,J7,3,Pin_3*%
%TO.N,unconnected-(J7-Pin_3-Pad3)*%
X129369500Y-107940000D03*
%TO.P,J7,4,Pin_4*%
%TO.N,unconnected-(J7-Pin_4-Pad4)*%
X129369500Y-110480000D03*
%TO.P,J7,5,Pin_5*%
%TO.N,unconnected-(J7-Pin_5-Pad5)*%
X129369500Y-113020000D03*
%TD*%
D14*
%TO.P,J4,1,Pin_1*%
%TO.N,unconnected-(J4-Pin_1-Pad1)*%
X144589500Y-81240000D03*
%TD*%
D12*
%TO.P,J8,1,Pin_1*%
%TO.N,unconnected-(J8-Pin_1-Pad1)*%
X124269500Y-102830000D03*
D13*
%TO.P,J8,2,Pin_2*%
%TO.N,unconnected-(J8-Pin_2-Pad2)*%
X124269500Y-105370000D03*
%TO.P,J8,3,Pin_3*%
%TO.N,unconnected-(J8-Pin_3-Pad3)*%
X124269500Y-107910000D03*
%TO.P,J8,4,Pin_4*%
%TO.N,unconnected-(J8-Pin_4-Pad4)*%
X124269500Y-110450000D03*
%TO.P,J8,5,Pin_5*%
%TO.N,unconnected-(J8-Pin_5-Pad5)*%
X124269500Y-112990000D03*
%TD*%
D15*
%TO.P,U1,14,VBUS*%
%TO.N,unconnected-(U1-VBUS-Pad14)_0*%
X136969500Y-114260000D03*
%TO.P,U1,13,GND*%
%TO.N,GND*%
X136969500Y-111720000D03*
%TO.P,U1,12,3V3*%
%TO.N,Net-(D1-A)*%
X136969500Y-109180000D03*
%TO.P,U1,11,GPIO18/D10/MOSI*%
%TO.N,Net-(U1-GPIO18{slash}D10{slash}MOSI)*%
X136969500Y-106640000D03*
%TO.P,U1,10,GPIO20/D9/MISO*%
%TO.N,Net-(U1-GPIO20{slash}D9{slash}MISO)*%
X136969500Y-104100000D03*
%TO.P,U1,9,GPIO19/D8/SCK*%
%TO.N,Net-(U1-GPIO19{slash}D8{slash}SCK)*%
X136969500Y-101560000D03*
%TO.P,U1,8,GPIO17/D7/RX*%
%TO.N,unconnected-(U1-GPIO17{slash}D7{slash}RX-Pad8)*%
X136969500Y-99020000D03*
%TO.P,U1,7,GPIO16/D6/TX*%
%TO.N,unconnected-(U1-GPIO16{slash}D6{slash}TX-Pad7)_0*%
X152209500Y-99020000D03*
%TO.P,U1,6,GPIO23/D5/SCL*%
%TO.N,Net-(J3-Pin_2)*%
X152209500Y-101560000D03*
%TO.P,U1,5,GPIO22/D4/SDA*%
%TO.N,Net-(J3-Pin_1)*%
X152209500Y-104100000D03*
%TO.P,U1,4,GPIO21/D3*%
%TO.N,Net-(Q2-B)*%
X152209500Y-106640000D03*
%TO.P,U1,3,GPIO2/A2/D2*%
%TO.N,Net-(Q1-B)*%
X152209500Y-109180000D03*
%TO.P,U1,2,GPIO1/A1/D1*%
%TO.N,Net-(D2-K)*%
X152209500Y-111720000D03*
%TO.P,U1,1,GPIO0/A0/D0*%
%TO.N,Net-(D1-K)*%
X152209500Y-114260000D03*
%TD*%
D14*
%TO.P,J6,1,Pin_1*%
%TO.N,unconnected-(J6-Pin_1-Pad1)*%
X129349500Y-120610000D03*
%TD*%
D16*
%TO.P,SW1,1,B*%
%TO.N,Net-(J2-Pin_1)*%
X162560000Y-111760000D03*
D10*
%TO.P,SW1,2,C*%
%TO.N,unconnected-(SW1-C-Pad2)*%
X162560000Y-109220000D03*
%TO.P,SW1,3,A*%
%TO.N,GND*%
X162560000Y-114300000D03*
%TD*%
D17*
%TO.P,Q2,1,E*%
%TO.N,GND*%
X157480000Y-87590000D03*
D16*
%TO.P,Q2,2,C*%
%TO.N,Net-(M2--)*%
X160020000Y-90130000D03*
%TO.P,Q2,3,B*%
%TO.N,Net-(Q2-B)*%
X157480000Y-92670000D03*
%TD*%
D14*
%TO.P,M2,1,+*%
%TO.N,+3.3V*%
X156019500Y-106640000D03*
D13*
%TO.P,M2,2,-*%
%TO.N,Net-(M2--)*%
X156019500Y-104100000D03*
%TD*%
D18*
%TO.P,D1,1,K*%
%TO.N,Net-(D1-K)*%
X142049500Y-86320000D03*
D19*
%TO.P,D1,2,A*%
%TO.N,Net-(D1-A)*%
X140253449Y-88116051D03*
%TD*%
D12*
%TO.P,M1,1,+*%
%TO.N,+3.3V*%
X133159500Y-106640000D03*
D14*
%TO.P,M1,2,-*%
%TO.N,Net-(M1--)*%
X133159500Y-104100000D03*
%TD*%
%TO.P,J2,1,Pin_1*%
%TO.N,Net-(J2-Pin_1)*%
X164909500Y-101560000D03*
D13*
%TO.P,J2,2,Pin_2*%
%TO.N,+3.3V*%
X164909500Y-104100000D03*
%TD*%
D17*
%TO.P,Q1,1,E*%
%TO.N,GND*%
X132080000Y-92670000D03*
D16*
%TO.P,Q1,2,C*%
%TO.N,Net-(M1--)*%
X129540000Y-90130000D03*
%TO.P,Q1,3,B*%
%TO.N,Net-(Q1-B)*%
X132080000Y-87590000D03*
%TD*%
D19*
%TO.P,D2,2,A*%
%TO.N,Net-(D1-A)*%
X148925551Y-88116051D03*
D20*
%TO.P,D2,1,K*%
%TO.N,Net-(D2-K)*%
X147129500Y-86320000D03*
%TD*%
D13*
%TO.P,J1,2,Pin_2*%
%TO.N,+3.3V*%
X153479500Y-123150000D03*
D14*
%TO.P,J1,1,Pin_1*%
%TO.N,GND*%
X153479500Y-120610000D03*
%TD*%
%TO.P,J5,1,Pin_1*%
%TO.N,unconnected-(J5-Pin_1-Pad1)*%
X159829500Y-120610000D03*
%TD*%
D12*
%TO.P,J3,1,Pin_1*%
%TO.N,Net-(J3-Pin_1)*%
X124269500Y-96480000D03*
D13*
%TO.P,J3,2,Pin_2*%
%TO.N,Net-(J3-Pin_2)*%
X126809500Y-96480000D03*
D14*
%TO.P,J3,3,Pin_3*%
%TO.N,GND*%
X129349500Y-96480000D03*
D13*
%TO.P,J3,4,Pin_4*%
%TO.N,Net-(D1-A)*%
X131889500Y-96480000D03*
%TD*%
D19*
%TO.P,D4,1,RA*%
%TO.N,Net-(D4-RA)*%
X141349500Y-119340000D03*
D21*
%TO.P,D4,4,K*%
%TO.N,GND*%
X143508500Y-119340000D03*
D19*
%TO.P,D4,3,BA*%
%TO.N,Net-(D4-BA)*%
X145667500Y-119340000D03*
%TO.P,D4,2,GA*%
%TO.N,Net-(D4-GA)*%
X147826500Y-119340000D03*
%TD*%
D22*
%TO.N,Net-(J3-Pin_1)*%
X128079500Y-100290000D03*
%TO.N,Net-(D1-K)*%
X139509500Y-93940000D03*
X139509500Y-97750000D03*
X142049500Y-114260000D03*
X147169500Y-114300000D03*
%TO.N,Net-(M1--)*%
X131889500Y-99020000D03*
%TO.N,+3.3V*%
X156019500Y-111720000D03*
%TO.N,Net-(D1-A)*%
X136969500Y-91400000D03*
%TD*%
D23*
%TO.N,Net-(D1-A)*%
X148925551Y-88116051D02*
X148925551Y-85043949D01*
X148989500Y-84980000D02*
X147339500Y-83330000D01*
X148925551Y-85043949D02*
X148989500Y-84980000D01*
X147339500Y-83330000D02*
X141739500Y-83330000D01*
X141739500Y-83330000D02*
X141689500Y-83280000D01*
X141689500Y-83280000D02*
X140253449Y-84716051D01*
X140253449Y-84716051D02*
X140253449Y-88116051D01*
%TO.N,Net-(D2-K)*%
X147129500Y-86320000D02*
X147129500Y-92159200D01*
X147129500Y-92159200D02*
X147589500Y-92619200D01*
X147589500Y-92619200D02*
X152158700Y-92619200D01*
X154749500Y-95210000D02*
X154749500Y-109220000D01*
X152158700Y-92619200D02*
X154749500Y-95210000D01*
X154749500Y-109220000D02*
X152209500Y-111760000D01*
%TO.N,Net-(D1-K)*%
X141589500Y-92670000D02*
X140779500Y-92670000D01*
X140779500Y-92670000D02*
X139509500Y-93940000D01*
X142049500Y-86320000D02*
X142049500Y-92210000D01*
X142049500Y-92210000D02*
X141589500Y-92670000D01*
%TO.N,Net-(U1-GPIO20{slash}D9{slash}MISO)*%
X139509500Y-105370000D02*
X138199500Y-105370000D01*
X138199500Y-105370000D02*
X136969500Y-104140000D01*
%TO.N,Net-(U1-GPIO19{slash}D8{slash}SCK)*%
X139509500Y-107910000D02*
X139509500Y-107718105D01*
X139509500Y-107718105D02*
X137161395Y-105370000D01*
X137161395Y-105370000D02*
X136697605Y-105370000D01*
X136697605Y-105370000D02*
X135699500Y-104371895D01*
X135699500Y-104371895D02*
X135699500Y-102870000D01*
X135699500Y-102870000D02*
X136969500Y-101600000D01*
%TO.N,Net-(M1--)*%
X129540000Y-90130000D02*
X134429500Y-90130000D01*
X131889500Y-98106346D02*
X131889500Y-99020000D01*
X134429500Y-90130000D02*
X134429500Y-95566346D01*
X134429500Y-95566346D02*
X131889500Y-98106346D01*
%TO.N,Net-(D4-BA)*%
X145667500Y-119340000D02*
X145667500Y-116608000D01*
X144589500Y-115530000D02*
X144589500Y-106640000D01*
X145667500Y-116608000D02*
X144589500Y-115530000D01*
X145859500Y-105370000D02*
X149669500Y-105370000D01*
X144589500Y-106640000D02*
X145859500Y-105370000D01*
%TO.N,Net-(J3-Pin_1)*%
X142684500Y-95845000D02*
X150979500Y-104140000D01*
X150979500Y-104140000D02*
X152209500Y-104140000D01*
%TO.N,Net-(D1-K)*%
X142049500Y-114260000D02*
X141140000Y-113350500D01*
X139509500Y-102830000D02*
X139509500Y-97750000D01*
X141140000Y-113350500D02*
X141140000Y-104460500D01*
X141140000Y-104460500D02*
X139509500Y-102830000D01*
X147129500Y-114260000D02*
X147169500Y-114300000D01*
X152209500Y-114300000D02*
X147169500Y-114300000D01*
%TO.N,+3.3V*%
X153479500Y-123150000D02*
X156019500Y-120610000D01*
X156019500Y-120610000D02*
X156019500Y-111720000D01*
%TO.N,Net-(D1-A)*%
X138470000Y-90130000D02*
X140443949Y-88156051D01*
X136969500Y-91400000D02*
X138239500Y-90130000D01*
X138239500Y-90130000D02*
X138470000Y-90130000D01*
%TO.N,Net-(J3-Pin_1)*%
X135064500Y-95845000D02*
X142684500Y-95845000D01*
X133159500Y-97750000D02*
X135064500Y-95845000D01*
X133159500Y-100290000D02*
X133159500Y-97750000D01*
X128079500Y-100290000D02*
X133159500Y-100290000D01*
%TD*%
%TA.AperFunction,Conductor*%
%TO.N,GND*%
G36*
X145087020Y-79205520D02*
G01*
X146071424Y-79244687D01*
X146076346Y-79244981D01*
X147058421Y-79323254D01*
X147063291Y-79323740D01*
X148041510Y-79440999D01*
X148046362Y-79441678D01*
X149019163Y-79597738D01*
X149023953Y-79598605D01*
X149989772Y-79793216D01*
X149994532Y-79794274D01*
X150951856Y-80027129D01*
X150956552Y-80028370D01*
X151845827Y-80282516D01*
X151903856Y-80299100D01*
X151908572Y-80300549D01*
X152844339Y-80608718D01*
X152848926Y-80610330D01*
X153665503Y-80915739D01*
X153771722Y-80955466D01*
X153776305Y-80957285D01*
X154684633Y-81338827D01*
X154689104Y-81340811D01*
X155024286Y-81497560D01*
X155581525Y-81758155D01*
X155585949Y-81760332D01*
X156461065Y-82212821D01*
X156465399Y-82215172D01*
X157321849Y-82702104D01*
X157326086Y-82704626D01*
X158162485Y-83225213D01*
X158166618Y-83227901D01*
X158981679Y-83781341D01*
X158985672Y-83784170D01*
X159747976Y-84347335D01*
X159778078Y-84369573D01*
X159781976Y-84372574D01*
X160550503Y-84989032D01*
X160554258Y-84992169D01*
X160919593Y-85309892D01*
X161297660Y-85638688D01*
X161301315Y-85641997D01*
X162018407Y-86317540D01*
X162021903Y-86320966D01*
X162711592Y-87024508D01*
X162714966Y-87028089D01*
X163223614Y-87589997D01*
X163376129Y-87758481D01*
X163379364Y-87762201D01*
X164010953Y-88518286D01*
X164014039Y-88522133D01*
X164615087Y-89302752D01*
X164618016Y-89306718D01*
X165187528Y-90110579D01*
X165190298Y-90114658D01*
X165727409Y-90940539D01*
X165730015Y-90944725D01*
X166233876Y-91791319D01*
X166236313Y-91795605D01*
X166706114Y-92661554D01*
X166708379Y-92665934D01*
X167143394Y-93549903D01*
X167145482Y-93554370D01*
X167544984Y-94454877D01*
X167546894Y-94459423D01*
X167910298Y-95375147D01*
X167912025Y-95379765D01*
X168238724Y-96309183D01*
X168240267Y-96313867D01*
X168529771Y-97255580D01*
X168531116Y-97260288D01*
X168733913Y-98027291D01*
X168782948Y-98212748D01*
X168784113Y-98217539D01*
X168997878Y-99179256D01*
X168998852Y-99184089D01*
X169174213Y-100153543D01*
X169174994Y-100158412D01*
X169311673Y-101134059D01*
X169312260Y-101138954D01*
X169410046Y-102119297D01*
X169410437Y-102124213D01*
X169469167Y-103107622D01*
X169469363Y-103112549D01*
X169488950Y-104097535D01*
X169488950Y-104102465D01*
X169469363Y-105087450D01*
X169469167Y-105092377D01*
X169410437Y-106075786D01*
X169410046Y-106080702D01*
X169312260Y-107061045D01*
X169311673Y-107065940D01*
X169174994Y-108041587D01*
X169174213Y-108046456D01*
X168998852Y-109015910D01*
X168997878Y-109020743D01*
X168784113Y-109982460D01*
X168782948Y-109987251D01*
X168763941Y-110059139D01*
X168532461Y-110934630D01*
X168531126Y-110939678D01*
X168529771Y-110944419D01*
X168240267Y-111886132D01*
X168238724Y-111890816D01*
X167912025Y-112820234D01*
X167910298Y-112824852D01*
X167546894Y-113740576D01*
X167544984Y-113745122D01*
X167145482Y-114645629D01*
X167143394Y-114650096D01*
X166708379Y-115534065D01*
X166706114Y-115538445D01*
X166236313Y-116404394D01*
X166233876Y-116408680D01*
X165730015Y-117255274D01*
X165727409Y-117259460D01*
X165190298Y-118085341D01*
X165187528Y-118089420D01*
X164618016Y-118893281D01*
X164615087Y-118897247D01*
X164014039Y-119677866D01*
X164010953Y-119681713D01*
X163379364Y-120437798D01*
X163376129Y-120441518D01*
X162714973Y-121171902D01*
X162711592Y-121175491D01*
X162021916Y-121879020D01*
X162018394Y-121882472D01*
X161301315Y-122558002D01*
X161297660Y-122561311D01*
X160554272Y-123207818D01*
X160550488Y-123210979D01*
X159781985Y-123827418D01*
X159778078Y-123830426D01*
X158985687Y-124415818D01*
X158981663Y-124418669D01*
X158166618Y-124972098D01*
X158162485Y-124974786D01*
X157326086Y-125495373D01*
X157321849Y-125497895D01*
X156465399Y-125984827D01*
X156461065Y-125987178D01*
X155585949Y-126439667D01*
X155581525Y-126441844D01*
X154689122Y-126859180D01*
X154684615Y-126861180D01*
X153776305Y-127242714D01*
X153771722Y-127244533D01*
X152848958Y-127589657D01*
X152844306Y-127591292D01*
X151908569Y-127899450D01*
X151903856Y-127900899D01*
X150956587Y-128171619D01*
X150951820Y-128172879D01*
X149994559Y-128405719D01*
X149989745Y-128406789D01*
X149023984Y-128601388D01*
X149019132Y-128602266D01*
X148046378Y-128758318D01*
X148041495Y-128759002D01*
X147063309Y-128876257D01*
X147058403Y-128876746D01*
X146076346Y-128955018D01*
X146071424Y-128955312D01*
X145087020Y-128994480D01*
X145082090Y-128994578D01*
X144096910Y-128994578D01*
X144091980Y-128994480D01*
X143107575Y-128955312D01*
X143102653Y-128955018D01*
X142120596Y-128876746D01*
X142115690Y-128876257D01*
X141137504Y-128759002D01*
X141132621Y-128758318D01*
X140159867Y-128602266D01*
X140155015Y-128601388D01*
X139189254Y-128406789D01*
X139184440Y-128405719D01*
X138227179Y-128172879D01*
X138222412Y-128171619D01*
X137275143Y-127900899D01*
X137270430Y-127899450D01*
X136334693Y-127591292D01*
X136330041Y-127589657D01*
X135407277Y-127244533D01*
X135402694Y-127242714D01*
X134494384Y-126861180D01*
X134489877Y-126859180D01*
X133597474Y-126441844D01*
X133593050Y-126439667D01*
X132717934Y-125987178D01*
X132713600Y-125984827D01*
X131857150Y-125497895D01*
X131852913Y-125495373D01*
X131016514Y-124974786D01*
X131012381Y-124972098D01*
X130197336Y-124418669D01*
X130193312Y-124415818D01*
X130069072Y-124324034D01*
X129400918Y-123830424D01*
X129397014Y-123827418D01*
X128845975Y-123385413D01*
X128628501Y-123210971D01*
X128624727Y-123207818D01*
X128558244Y-123149999D01*
X152123841Y-123149999D01*
X152123841Y-123150000D01*
X152144436Y-123385403D01*
X152144438Y-123385413D01*
X152205594Y-123613655D01*
X152205596Y-123613659D01*
X152205597Y-123613663D01*
X152291878Y-123798692D01*
X152305465Y-123827830D01*
X152305467Y-123827834D01*
X152413781Y-123982521D01*
X152441005Y-124021401D01*
X152608099Y-124188495D01*
X152704884Y-124256265D01*
X152801665Y-124324032D01*
X152801667Y-124324033D01*
X152801670Y-124324035D01*
X153015837Y-124423903D01*
X153244092Y-124485063D01*
X153432418Y-124501539D01*
X153479499Y-124505659D01*
X153479500Y-124505659D01*
X153479501Y-124505659D01*
X153518734Y-124502226D01*
X153714908Y-124485063D01*
X153943163Y-124423903D01*
X154157330Y-124324035D01*
X154350901Y-124188495D01*
X154517995Y-124021401D01*
X154653535Y-123827830D01*
X154753403Y-123613663D01*
X154814563Y-123385408D01*
X154835159Y-123150000D01*
X154814563Y-122914592D01*
X154780171Y-122786239D01*
X154781834Y-122716393D01*
X154812263Y-122666470D01*
X156378006Y-121100728D01*
X156378011Y-121100724D01*
X156388214Y-121090520D01*
X156388216Y-121090520D01*
X156500020Y-120978716D01*
X156579077Y-120841784D01*
X156620000Y-120689057D01*
X156620000Y-119712135D01*
X158479000Y-119712135D01*
X158479000Y-121507870D01*
X158479001Y-121507876D01*
X158485408Y-121567483D01*
X158535702Y-121702328D01*
X158535706Y-121702335D01*
X158621952Y-121817544D01*
X158621955Y-121817547D01*
X158737164Y-121903793D01*
X158737171Y-121903797D01*
X158872017Y-121954091D01*
X158872016Y-121954091D01*
X158878944Y-121954835D01*
X158931627Y-121960500D01*
X160727372Y-121960499D01*
X160786983Y-121954091D01*
X160921831Y-121903796D01*
X161037046Y-121817546D01*
X161123296Y-121702331D01*
X161173591Y-121567483D01*
X161180000Y-121507873D01*
X161179999Y-119712128D01*
X161173591Y-119652517D01*
X161160085Y-119616306D01*
X161123297Y-119517671D01*
X161123293Y-119517664D01*
X161037047Y-119402455D01*
X161037044Y-119402452D01*
X160921835Y-119316206D01*
X160921828Y-119316202D01*
X160786982Y-119265908D01*
X160786983Y-119265908D01*
X160727383Y-119259501D01*
X160727381Y-119259500D01*
X160727373Y-119259500D01*
X160727364Y-119259500D01*
X158931629Y-119259500D01*
X158931623Y-119259501D01*
X158872016Y-119265908D01*
X158737171Y-119316202D01*
X158737164Y-119316206D01*
X158621955Y-119402452D01*
X158621952Y-119402455D01*
X158535706Y-119517664D01*
X158535702Y-119517671D01*
X158485408Y-119652517D01*
X158480294Y-119700090D01*
X158479001Y-119712123D01*
X158479000Y-119712135D01*
X156620000Y-119712135D01*
X156620000Y-112302412D01*
X156639685Y-112235373D01*
X156647055Y-112225097D01*
X156649310Y-112222267D01*
X156649316Y-112222262D01*
X156745289Y-112069522D01*
X156804868Y-111899255D01*
X156806347Y-111886132D01*
X156825065Y-111720003D01*
X156825065Y-111719996D01*
X156804869Y-111540750D01*
X156804868Y-111540745D01*
X156772090Y-111447070D01*
X156745289Y-111370478D01*
X156733298Y-111351395D01*
X156649315Y-111217737D01*
X156521762Y-111090184D01*
X156369023Y-110994211D01*
X156198754Y-110934631D01*
X156198749Y-110934630D01*
X156019504Y-110914435D01*
X156019496Y-110914435D01*
X155840250Y-110934630D01*
X155840245Y-110934631D01*
X155669976Y-110994211D01*
X155517237Y-111090184D01*
X155389684Y-111217737D01*
X155293711Y-111370476D01*
X155234131Y-111540745D01*
X155234130Y-111540750D01*
X155213935Y-111719996D01*
X155213935Y-111720003D01*
X155234130Y-111899249D01*
X155234131Y-111899254D01*
X155293711Y-112069523D01*
X155346447Y-112153451D01*
X155368991Y-112189330D01*
X155389685Y-112222263D01*
X155391945Y-112225097D01*
X155392834Y-112227275D01*
X155393389Y-112228158D01*
X155393234Y-112228255D01*
X155418355Y-112289783D01*
X155419000Y-112302412D01*
X155419000Y-120309902D01*
X155399315Y-120376941D01*
X155382681Y-120397583D01*
X154956583Y-120823681D01*
X154895260Y-120857166D01*
X154868902Y-120860000D01*
X153912512Y-120860000D01*
X153945425Y-120802993D01*
X153979500Y-120675826D01*
X153979500Y-120544174D01*
X153945425Y-120417007D01*
X153912512Y-120360000D01*
X154829500Y-120360000D01*
X154829500Y-119712172D01*
X154829499Y-119712155D01*
X154823098Y-119652627D01*
X154823096Y-119652620D01*
X154772854Y-119517913D01*
X154772850Y-119517906D01*
X154686690Y-119402812D01*
X154686687Y-119402809D01*
X154571593Y-119316649D01*
X154571586Y-119316645D01*
X154436879Y-119266403D01*
X154436872Y-119266401D01*
X154377344Y-119260000D01*
X153729500Y-119260000D01*
X153729500Y-120176988D01*
X153672493Y-120144075D01*
X153545326Y-120110000D01*
X153413674Y-120110000D01*
X153286507Y-120144075D01*
X153229500Y-120176988D01*
X153229500Y-119260000D01*
X152581655Y-119260000D01*
X152522127Y-119266401D01*
X152522120Y-119266403D01*
X152387413Y-119316645D01*
X152387406Y-119316649D01*
X152272312Y-119402809D01*
X152272309Y-119402812D01*
X152186149Y-119517906D01*
X152186145Y-119517913D01*
X152135903Y-119652620D01*
X152135901Y-119652627D01*
X152129500Y-119712155D01*
X152129500Y-120360000D01*
X153046488Y-120360000D01*
X153013575Y-120417007D01*
X152979500Y-120544174D01*
X152979500Y-120675826D01*
X153013575Y-120802993D01*
X153046488Y-120860000D01*
X152129500Y-120860000D01*
X152129500Y-121507844D01*
X152135901Y-121567372D01*
X152135903Y-121567379D01*
X152186145Y-121702086D01*
X152186149Y-121702093D01*
X152272309Y-121817187D01*
X152272312Y-121817190D01*
X152387406Y-121903350D01*
X152387413Y-121903354D01*
X152518970Y-121952421D01*
X152574903Y-121994292D01*
X152599321Y-122059756D01*
X152584470Y-122128029D01*
X152563319Y-122156284D01*
X152441003Y-122278600D01*
X152305465Y-122472169D01*
X152305464Y-122472171D01*
X152205598Y-122686335D01*
X152205594Y-122686344D01*
X152144438Y-122914586D01*
X152144436Y-122914596D01*
X152123841Y-123149999D01*
X128558244Y-123149999D01*
X127881339Y-122561311D01*
X127877684Y-122558002D01*
X127279303Y-121994292D01*
X127160592Y-121882459D01*
X127157096Y-121879032D01*
X126467398Y-121175481D01*
X126464026Y-121171902D01*
X126407991Y-121110000D01*
X125802869Y-120441517D01*
X125799635Y-120437798D01*
X125193459Y-119712135D01*
X127999000Y-119712135D01*
X127999000Y-121507870D01*
X127999001Y-121507876D01*
X128005408Y-121567483D01*
X128055702Y-121702328D01*
X128055706Y-121702335D01*
X128141952Y-121817544D01*
X128141955Y-121817547D01*
X128257164Y-121903793D01*
X128257171Y-121903797D01*
X128392017Y-121954091D01*
X128392016Y-121954091D01*
X128398944Y-121954835D01*
X128451627Y-121960500D01*
X130247372Y-121960499D01*
X130306983Y-121954091D01*
X130441831Y-121903796D01*
X130557046Y-121817546D01*
X130643296Y-121702331D01*
X130693591Y-121567483D01*
X130700000Y-121507873D01*
X130699999Y-119712128D01*
X130693591Y-119652517D01*
X130680085Y-119616306D01*
X130643297Y-119517671D01*
X130643293Y-119517664D01*
X130557047Y-119402455D01*
X130557044Y-119402452D01*
X130441835Y-119316206D01*
X130441828Y-119316202D01*
X130306982Y-119265908D01*
X130306983Y-119265908D01*
X130247383Y-119259501D01*
X130247381Y-119259500D01*
X130247373Y-119259500D01*
X130247364Y-119259500D01*
X128451629Y-119259500D01*
X128451623Y-119259501D01*
X128392016Y-119265908D01*
X128257171Y-119316202D01*
X128257164Y-119316206D01*
X128141955Y-119402452D01*
X128141952Y-119402455D01*
X128055706Y-119517664D01*
X128055702Y-119517671D01*
X128005408Y-119652517D01*
X128000294Y-119700090D01*
X127999001Y-119712123D01*
X127999000Y-119712135D01*
X125193459Y-119712135D01*
X125168046Y-119681713D01*
X125164960Y-119677866D01*
X125038554Y-119513694D01*
X124563907Y-118897241D01*
X124560983Y-118893281D01*
X124554195Y-118883700D01*
X123991464Y-118089410D01*
X123988701Y-118085341D01*
X123987054Y-118082809D01*
X123451590Y-117259460D01*
X123448984Y-117255274D01*
X122945123Y-116408680D01*
X122942686Y-116404394D01*
X122790103Y-116123149D01*
X122472877Y-115538430D01*
X122470620Y-115534065D01*
X122467302Y-115527323D01*
X122035600Y-114650086D01*
X122033517Y-114645629D01*
X122022182Y-114620080D01*
X121639612Y-113757738D01*
X121634015Y-113745122D01*
X121632105Y-113740576D01*
X121586248Y-113625023D01*
X121268691Y-112824826D01*
X121266984Y-112820262D01*
X120940267Y-111890794D01*
X120938732Y-111886132D01*
X120649219Y-110944387D01*
X120647892Y-110939745D01*
X120396042Y-109987217D01*
X120394886Y-109982460D01*
X120363120Y-109839547D01*
X120181114Y-109020710D01*
X120180153Y-109015944D01*
X120004782Y-108046433D01*
X120004005Y-108041587D01*
X119997235Y-107993258D01*
X119867321Y-107065900D01*
X119866743Y-107061085D01*
X119768950Y-106080668D01*
X119768564Y-106075822D01*
X119709830Y-105092331D01*
X119709637Y-105087497D01*
X119690049Y-104102463D01*
X119690049Y-104097535D01*
X119693542Y-103921894D01*
X119709637Y-103112500D01*
X119709830Y-103107670D01*
X119726413Y-102829999D01*
X122913841Y-102829999D01*
X122913841Y-102830000D01*
X122934436Y-103065403D01*
X122934438Y-103065413D01*
X122995594Y-103293655D01*
X122995596Y-103293659D01*
X122995597Y-103293663D01*
X123059957Y-103431682D01*
X123095465Y-103507830D01*
X123095467Y-103507834D01*
X123203781Y-103662521D01*
X123231001Y-103701396D01*
X123231006Y-103701402D01*
X123398097Y-103868493D01*
X123398103Y-103868498D01*
X123583658Y-103998425D01*
X123627283Y-104053002D01*
X123634477Y-104122500D01*
X123602954Y-104184855D01*
X123583658Y-104201575D01*
X123398097Y-104331505D01*
X123231005Y-104498597D01*
X123095465Y-104692169D01*
X123095464Y-104692171D01*
X122995598Y-104906335D01*
X122995594Y-104906344D01*
X122934438Y-105134586D01*
X122934436Y-105134596D01*
X122913841Y-105369999D01*
X122913841Y-105370000D01*
X122934436Y-105605403D01*
X122934438Y-105605413D01*
X122995594Y-105833655D01*
X122995596Y-105833659D01*
X122995597Y-105833663D01*
X123060727Y-105973334D01*
X123095465Y-106047830D01*
X123095467Y-106047834D01*
X123203781Y-106202521D01*
X123231001Y-106241396D01*
X123231006Y-106241402D01*
X123398097Y-106408493D01*
X123398103Y-106408498D01*
X123583658Y-106538425D01*
X123627283Y-106593002D01*
X123634477Y-106662500D01*
X123602954Y-106724855D01*
X123583658Y-106741575D01*
X123398097Y-106871505D01*
X123231005Y-107038597D01*
X123095465Y-107232169D01*
X123095464Y-107232171D01*
X122995598Y-107446335D01*
X122995594Y-107446344D01*
X122934438Y-107674586D01*
X122934436Y-107674596D01*
X122913841Y-107909999D01*
X122913841Y-107910000D01*
X122934436Y-108145403D01*
X122934438Y-108145413D01*
X122995594Y-108373655D01*
X122995596Y-108373659D01*
X122995597Y-108373663D01*
X123009587Y-108403664D01*
X123095465Y-108587830D01*
X123095467Y-108587834D01*
X123178461Y-108706361D01*
X123231001Y-108781396D01*
X123231006Y-108781402D01*
X123398097Y-108948493D01*
X123398103Y-108948498D01*
X123583658Y-109078425D01*
X123627283Y-109133002D01*
X123634477Y-109202500D01*
X123602954Y-109264855D01*
X123583658Y-109281575D01*
X123398097Y-109411505D01*
X123231005Y-109578597D01*
X123095465Y-109772169D01*
X123095464Y-109772171D01*
X122995598Y-109986335D01*
X122995594Y-109986344D01*
X122934438Y-110214586D01*
X122934436Y-110214596D01*
X122913841Y-110449999D01*
X122913841Y-110450000D01*
X122934436Y-110685403D01*
X122934438Y-110685413D01*
X122995594Y-110913655D01*
X122995596Y-110913659D01*
X122995597Y-110913663D01*
X123077910Y-111090184D01*
X123095465Y-111127830D01*
X123095467Y-111127834D01*
X123158419Y-111217738D01*
X123231001Y-111321396D01*
X123231006Y-111321402D01*
X123398097Y-111488493D01*
X123398103Y-111488498D01*
X123583658Y-111618425D01*
X123627283Y-111673002D01*
X123634477Y-111742500D01*
X123602954Y-111804855D01*
X123583658Y-111821575D01*
X123398097Y-111951505D01*
X123231005Y-112118597D01*
X123095465Y-112312169D01*
X123095464Y-112312171D01*
X122995598Y-112526335D01*
X122995594Y-112526344D01*
X122934438Y-112754586D01*
X122934436Y-112754596D01*
X122913841Y-112989999D01*
X122913841Y-112990000D01*
X122934436Y-113225403D01*
X122934438Y-113225413D01*
X122995594Y-113453655D01*
X122995596Y-113453659D01*
X122995597Y-113453663D01*
X123051810Y-113574211D01*
X123095465Y-113667830D01*
X123095467Y-113667834D01*
X123158419Y-113757738D01*
X123231005Y-113861401D01*
X123398099Y-114028495D01*
X123440948Y-114058498D01*
X123591665Y-114164032D01*
X123591667Y-114164033D01*
X123591670Y-114164035D01*
X123805837Y-114263903D01*
X124034092Y-114325063D01*
X124203173Y-114339856D01*
X124269499Y-114345659D01*
X124269500Y-114345659D01*
X124269501Y-114345659D01*
X124308734Y-114342226D01*
X124504908Y-114325063D01*
X124733163Y-114263903D01*
X124947330Y-114164035D01*
X125140901Y-114028495D01*
X125307995Y-113861401D01*
X125437925Y-113675842D01*
X125492502Y-113632217D01*
X125562000Y-113625023D01*
X125624355Y-113656546D01*
X125641075Y-113675842D01*
X125771000Y-113861395D01*
X125771005Y-113861401D01*
X125938099Y-114028495D01*
X125980948Y-114058498D01*
X126131665Y-114164032D01*
X126131667Y-114164033D01*
X126131670Y-114164035D01*
X126345837Y-114263903D01*
X126574092Y-114325063D01*
X126743173Y-114339856D01*
X126809499Y-114345659D01*
X126809500Y-114345659D01*
X126809501Y-114345659D01*
X126848734Y-114342226D01*
X127044908Y-114325063D01*
X127273163Y-114263903D01*
X127487330Y-114164035D01*
X127680901Y-114028495D01*
X127847995Y-113861401D01*
X127979161Y-113674075D01*
X128033737Y-113630452D01*
X128103235Y-113623258D01*
X128165590Y-113654781D01*
X128193115Y-113692791D01*
X128195463Y-113697827D01*
X128195467Y-113697834D01*
X128288726Y-113831020D01*
X128331005Y-113891401D01*
X128498099Y-114058495D01*
X128587001Y-114120745D01*
X128691665Y-114194032D01*
X128691667Y-114194033D01*
X128691670Y-114194035D01*
X128905837Y-114293903D01*
X128905843Y-114293904D01*
X128905844Y-114293905D01*
X128928599Y-114300002D01*
X129134092Y-114355063D01*
X129322418Y-114371539D01*
X129369499Y-114375659D01*
X129369500Y-114375659D01*
X129369501Y-114375659D01*
X129408734Y-114372226D01*
X129604908Y-114355063D01*
X129833163Y-114293903D01*
X130047330Y-114194035D01*
X130240901Y-114058495D01*
X130407995Y-113891401D01*
X130543535Y-113697830D01*
X130643403Y-113483663D01*
X130704563Y-113255408D01*
X130725159Y-113020000D01*
X130722768Y-112992677D01*
X130717707Y-112934826D01*
X130704563Y-112784592D01*
X130643403Y-112556337D01*
X130543535Y-112342171D01*
X130539161Y-112335923D01*
X130407994Y-112148597D01*
X130240902Y-111981506D01*
X130240896Y-111981501D01*
X130055342Y-111851575D01*
X130011717Y-111796998D01*
X130004523Y-111727500D01*
X130036046Y-111665145D01*
X130055342Y-111648425D01*
X130098186Y-111618425D01*
X130240901Y-111518495D01*
X130407995Y-111351401D01*
X130543535Y-111157830D01*
X130643403Y-110943663D01*
X130704563Y-110715408D01*
X130725159Y-110480000D01*
X130722768Y-110452677D01*
X130716766Y-110384066D01*
X130704563Y-110244592D01*
X130643403Y-110016337D01*
X130543535Y-109802171D01*
X130539161Y-109795923D01*
X130407994Y-109608597D01*
X130240902Y-109441506D01*
X130240896Y-109441501D01*
X130055342Y-109311575D01*
X130011717Y-109256998D01*
X130004523Y-109187500D01*
X130036046Y-109125145D01*
X130055342Y-109108425D01*
X130098186Y-109078425D01*
X130240901Y-108978495D01*
X130407995Y-108811401D01*
X130543535Y-108617830D01*
X130643403Y-108403663D01*
X130704563Y-108175408D01*
X130725159Y-107940000D01*
X130722768Y-107912677D01*
X130717070Y-107847544D01*
X130704563Y-107704592D01*
X130643403Y-107476337D01*
X130543535Y-107262171D01*
X130540102Y-107257267D01*
X130407994Y-107068597D01*
X130240902Y-106901506D01*
X130240896Y-106901501D01*
X130055342Y-106771575D01*
X130011717Y-106716998D01*
X130004523Y-106647500D01*
X130008315Y-106639999D01*
X131803841Y-106639999D01*
X131803841Y-106640000D01*
X131824436Y-106875403D01*
X131824438Y-106875413D01*
X131885594Y-107103655D01*
X131885596Y-107103659D01*
X131885597Y-107103663D01*
X131980294Y-107306740D01*
X131985465Y-107317830D01*
X131985467Y-107317834D01*
X132077525Y-107449305D01*
X132121005Y-107511401D01*
X132288099Y-107678495D01*
X132372411Y-107737531D01*
X132481665Y-107814032D01*
X132481667Y-107814033D01*
X132481670Y-107814035D01*
X132695837Y-107913903D01*
X132924092Y-107975063D01*
X133112418Y-107991539D01*
X133159499Y-107995659D01*
X133159500Y-107995659D01*
X133159501Y-107995659D01*
X133198734Y-107992226D01*
X133394908Y-107975063D01*
X133623163Y-107913903D01*
X133837330Y-107814035D01*
X134030901Y-107678495D01*
X134197995Y-107511401D01*
X134333535Y-107317830D01*
X134433403Y-107103663D01*
X134494563Y-106875408D01*
X134515159Y-106640000D01*
X134513190Y-106617500D01*
X134502960Y-106500567D01*
X134494563Y-106404592D01*
X134441500Y-106206554D01*
X134433405Y-106176344D01*
X134433404Y-106176343D01*
X134433403Y-106176337D01*
X134333535Y-105962171D01*
X134264559Y-105863663D01*
X134197996Y-105768600D01*
X134145571Y-105716175D01*
X134076067Y-105646671D01*
X134042584Y-105585351D01*
X134047568Y-105515659D01*
X134089439Y-105459725D01*
X134120415Y-105442810D01*
X134251831Y-105393796D01*
X134367046Y-105307546D01*
X134453296Y-105192331D01*
X134503591Y-105057483D01*
X134510000Y-104997873D01*
X134510000Y-104450949D01*
X135098998Y-104450949D01*
X135139923Y-104603680D01*
X135168858Y-104653795D01*
X135168859Y-104653799D01*
X135168860Y-104653799D01*
X135215866Y-104735218D01*
X135218979Y-104740609D01*
X135218981Y-104740612D01*
X135337849Y-104859480D01*
X135337855Y-104859485D01*
X136063529Y-105585160D01*
X136097014Y-105646483D01*
X136092030Y-105716175D01*
X136063531Y-105760521D01*
X135998672Y-105825380D01*
X135871966Y-106006338D01*
X135871965Y-106006340D01*
X135778607Y-106206548D01*
X135778604Y-106206554D01*
X135721430Y-106419929D01*
X135721429Y-106419937D01*
X135702177Y-106639997D01*
X135702177Y-106640002D01*
X135721429Y-106860062D01*
X135721430Y-106860070D01*
X135778604Y-107073445D01*
X135778605Y-107073447D01*
X135778606Y-107073450D01*
X135792695Y-107103664D01*
X135871966Y-107273662D01*
X135871968Y-107273666D01*
X135998670Y-107454615D01*
X135998675Y-107454621D01*
X136154878Y-107610824D01*
X136154884Y-107610829D01*
X136335833Y-107737531D01*
X136335835Y-107737532D01*
X136335838Y-107737534D01*
X136455248Y-107793215D01*
X136464689Y-107797618D01*
X136517128Y-107843790D01*
X136536280Y-107910984D01*
X136516064Y-107977865D01*
X136464689Y-108022382D01*
X136335840Y-108082465D01*
X136335838Y-108082466D01*
X136154877Y-108209175D01*
X135998675Y-108365377D01*
X135871966Y-108546338D01*
X135871965Y-108546340D01*
X135778607Y-108746548D01*
X135778604Y-108746554D01*
X135721430Y-108959929D01*
X135721429Y-108959937D01*
X135702177Y-109179997D01*
X135702177Y-109180002D01*
X135721429Y-109400062D01*
X135721430Y-109400070D01*
X135778604Y-109613445D01*
X135778605Y-109613447D01*
X135778606Y-109613450D01*
X135823969Y-109710732D01*
X135871966Y-109813662D01*
X135871968Y-109813666D01*
X135998670Y-109994615D01*
X135998675Y-109994621D01*
X136154878Y-110150824D01*
X136154884Y-110150829D01*
X136335833Y-110277531D01*
X136335835Y-110277532D01*
X136335838Y-110277534D01*
X136464689Y-110337618D01*
X136465281Y-110337894D01*
X136517720Y-110384066D01*
X136536872Y-110451260D01*
X136516656Y-110518141D01*
X136465281Y-110562658D01*
X136336090Y-110622901D01*
X136271311Y-110668258D01*
X136885405Y-111282352D01*
X136797929Y-111305792D01*
X136696570Y-111364311D01*
X136613811Y-111447070D01*
X136555292Y-111548429D01*
X136531852Y-111635905D01*
X135917758Y-111021811D01*
X135872401Y-111086590D01*
X135779079Y-111286720D01*
X135779075Y-111286729D01*
X135721926Y-111500013D01*
X135721924Y-111500023D01*
X135702679Y-111719999D01*
X135702679Y-111720000D01*
X135721924Y-111939976D01*
X135721926Y-111939986D01*
X135779075Y-112153270D01*
X135779080Y-112153284D01*
X135872398Y-112353405D01*
X135872401Y-112353411D01*
X135917758Y-112418187D01*
X135917759Y-112418188D01*
X136531852Y-111804094D01*
X136555292Y-111891571D01*
X136613811Y-111992930D01*
X136696570Y-112075689D01*
X136797929Y-112134208D01*
X136885405Y-112157647D01*
X136271310Y-112771740D01*
X136336089Y-112817098D01*
X136465281Y-112877342D01*
X136517720Y-112923514D01*
X136536872Y-112990708D01*
X136516656Y-113057589D01*
X136465281Y-113102106D01*
X136335840Y-113162465D01*
X136335838Y-113162466D01*
X136154877Y-113289175D01*
X135998675Y-113445377D01*
X135871966Y-113626338D01*
X135871965Y-113626340D01*
X135778607Y-113826548D01*
X135778604Y-113826554D01*
X135721430Y-114039929D01*
X135721429Y-114039937D01*
X135702177Y-114259997D01*
X135702177Y-114260002D01*
X135721429Y-114480062D01*
X135721430Y-114480070D01*
X135778604Y-114693445D01*
X135778605Y-114693447D01*
X135778606Y-114693450D01*
X135829346Y-114802262D01*
X135871966Y-114893662D01*
X135871968Y-114893666D01*
X135998670Y-115074615D01*
X135998675Y-115074621D01*
X136154878Y-115230824D01*
X136154884Y-115230829D01*
X136335833Y-115357531D01*
X136335835Y-115357532D01*
X136335838Y-115357534D01*
X136536050Y-115450894D01*
X136749432Y-115508070D01*
X136906623Y-115521822D01*
X136969498Y-115527323D01*
X136969500Y-115527323D01*
X136969502Y-115527323D01*
X137024517Y-115522509D01*
X137189568Y-115508070D01*
X137402950Y-115450894D01*
X137603162Y-115357534D01*
X137784120Y-115230826D01*
X137940326Y-115074620D01*
X138067034Y-114893662D01*
X138160394Y-114693450D01*
X138217570Y-114480068D01*
X138235202Y-114278533D01*
X138236823Y-114260002D01*
X138236823Y-114259997D01*
X138221141Y-114080750D01*
X138217570Y-114039932D01*
X138160394Y-113826550D01*
X138067034Y-113626339D01*
X138002525Y-113534210D01*
X137940327Y-113445381D01*
X137924244Y-113429298D01*
X137784120Y-113289174D01*
X137784116Y-113289171D01*
X137784115Y-113289170D01*
X137603166Y-113162468D01*
X137603162Y-113162466D01*
X137473718Y-113102105D01*
X137421279Y-113055932D01*
X137402127Y-112988739D01*
X137422343Y-112921858D01*
X137473719Y-112877340D01*
X137602916Y-112817095D01*
X137602917Y-112817094D01*
X137667688Y-112771741D01*
X137053595Y-112157647D01*
X137141071Y-112134208D01*
X137242430Y-112075689D01*
X137325189Y-111992930D01*
X137383708Y-111891571D01*
X137407147Y-111804094D01*
X138021241Y-112418188D01*
X138066594Y-112353417D01*
X138066600Y-112353407D01*
X138159919Y-112153284D01*
X138159924Y-112153270D01*
X138217073Y-111939986D01*
X138217075Y-111939976D01*
X138236321Y-111720000D01*
X138236321Y-111719999D01*
X138217075Y-111500023D01*
X138217073Y-111500013D01*
X138159924Y-111286729D01*
X138159920Y-111286720D01*
X138066596Y-111086586D01*
X138021241Y-111021811D01*
X138021240Y-111021810D01*
X137407147Y-111635904D01*
X137383708Y-111548429D01*
X137325189Y-111447070D01*
X137242430Y-111364311D01*
X137141071Y-111305792D01*
X137053595Y-111282352D01*
X137667688Y-110668259D01*
X137667687Y-110668258D01*
X137602911Y-110622901D01*
X137602905Y-110622898D01*
X137473719Y-110562658D01*
X137421279Y-110516486D01*
X137402127Y-110449293D01*
X137422343Y-110382411D01*
X137473719Y-110337894D01*
X137474311Y-110337618D01*
X137603162Y-110277534D01*
X137784120Y-110150826D01*
X137940326Y-109994620D01*
X138067034Y-109813662D01*
X138160394Y-109613450D01*
X138217570Y-109400068D01*
X138236823Y-109180000D01*
X138233038Y-109136741D01*
X138228427Y-109084035D01*
X138217570Y-108959932D01*
X138160394Y-108746550D01*
X138067034Y-108546339D01*
X137951164Y-108380858D01*
X137940327Y-108365381D01*
X137931434Y-108356488D01*
X137784120Y-108209174D01*
X137784116Y-108209171D01*
X137784115Y-108209170D01*
X137603166Y-108082468D01*
X137603158Y-108082464D01*
X137474311Y-108022382D01*
X137421871Y-107976210D01*
X137402719Y-107909017D01*
X137422935Y-107842135D01*
X137474311Y-107797618D01*
X137480302Y-107794824D01*
X137603162Y-107737534D01*
X137784120Y-107610826D01*
X137940326Y-107454620D01*
X138043550Y-107307200D01*
X138098124Y-107263577D01*
X138167623Y-107256383D01*
X138229978Y-107287905D01*
X138232804Y-107290644D01*
X138260450Y-107318290D01*
X138293935Y-107379613D01*
X138288951Y-107449305D01*
X138285157Y-107458363D01*
X138282764Y-107463494D01*
X138282758Y-107463511D01*
X138223866Y-107683302D01*
X138223864Y-107683313D01*
X138204032Y-107909998D01*
X138204032Y-107910001D01*
X138223864Y-108136686D01*
X138223866Y-108136697D01*
X138282758Y-108356488D01*
X138282761Y-108356497D01*
X138378931Y-108562732D01*
X138378932Y-108562734D01*
X138509454Y-108749141D01*
X138670358Y-108910045D01*
X138717193Y-108942839D01*
X138856766Y-109040568D01*
X139063004Y-109136739D01*
X139282808Y-109195635D01*
X139444730Y-109209801D01*
X139509498Y-109215468D01*
X139509500Y-109215468D01*
X139509502Y-109215468D01*
X139571999Y-109210000D01*
X139736192Y-109195635D01*
X139955996Y-109136739D01*
X140162234Y-109040568D01*
X140344377Y-108913030D01*
X140410583Y-108890704D01*
X140478350Y-108907714D01*
X140526163Y-108958663D01*
X140539500Y-109014606D01*
X140539500Y-113263830D01*
X140539499Y-113263848D01*
X140539499Y-113429554D01*
X140539498Y-113429554D01*
X140578343Y-113574526D01*
X140580423Y-113582285D01*
X140596135Y-113609499D01*
X140596136Y-113609501D01*
X140596137Y-113609501D01*
X140622279Y-113654781D01*
X140659479Y-113719214D01*
X140659481Y-113719217D01*
X140778349Y-113838085D01*
X140778355Y-113838090D01*
X141218798Y-114278533D01*
X141252283Y-114339856D01*
X141254337Y-114352330D01*
X141264130Y-114439249D01*
X141323710Y-114609521D01*
X141376447Y-114693451D01*
X141419684Y-114762262D01*
X141547238Y-114889816D01*
X141699978Y-114985789D01*
X141870245Y-115045368D01*
X141870250Y-115045369D01*
X142049496Y-115065565D01*
X142049500Y-115065565D01*
X142049504Y-115065565D01*
X142228749Y-115045369D01*
X142228752Y-115045368D01*
X142228755Y-115045368D01*
X142399022Y-114985789D01*
X142551762Y-114889816D01*
X142679316Y-114762262D01*
X142775289Y-114609522D01*
X142834868Y-114439255D01*
X142834869Y-114439249D01*
X142855065Y-114260003D01*
X142855065Y-114259996D01*
X142834869Y-114080750D01*
X142834868Y-114080745D01*
X142799588Y-113979920D01*
X142775289Y-113910478D01*
X142763298Y-113891395D01*
X142722552Y-113826548D01*
X142679316Y-113757738D01*
X142551762Y-113630184D01*
X142518837Y-113609496D01*
X142399021Y-113534210D01*
X142228749Y-113474630D01*
X142141830Y-113464837D01*
X142077416Y-113437770D01*
X142068033Y-113429298D01*
X141776819Y-113138084D01*
X141743334Y-113076761D01*
X141740500Y-113050403D01*
X141740500Y-104381441D01*
X141737423Y-104369957D01*
X141737423Y-104369958D01*
X141737422Y-104369953D01*
X141710758Y-104270442D01*
X141712421Y-104200596D01*
X141751583Y-104142733D01*
X141810990Y-104117292D01*
X141810777Y-104116080D01*
X141816107Y-104115140D01*
X142035817Y-104056269D01*
X142035826Y-104056265D01*
X142241982Y-103960134D01*
X142428320Y-103829657D01*
X142589157Y-103668820D01*
X142719634Y-103482482D01*
X142815765Y-103276326D01*
X142815769Y-103276317D01*
X142868372Y-103080000D01*
X141905186Y-103080000D01*
X141909580Y-103075606D01*
X141962241Y-102984394D01*
X141989500Y-102882661D01*
X141989500Y-102777339D01*
X141962241Y-102675606D01*
X141909580Y-102584394D01*
X141905186Y-102580000D01*
X142868372Y-102580000D01*
X142868372Y-102579999D01*
X142815769Y-102383682D01*
X142815765Y-102383673D01*
X142719634Y-102177517D01*
X142589157Y-101991179D01*
X142428320Y-101830342D01*
X142241982Y-101699865D01*
X142035828Y-101603734D01*
X141839500Y-101551127D01*
X141839500Y-102514314D01*
X141835106Y-102509920D01*
X141743894Y-102457259D01*
X141642161Y-102430000D01*
X141536839Y-102430000D01*
X141435106Y-102457259D01*
X141343894Y-102509920D01*
X141339500Y-102514314D01*
X141339500Y-101551127D01*
X141143171Y-101603734D01*
X140937017Y-101699865D01*
X140750679Y-101830342D01*
X140589842Y-101991179D01*
X140459365Y-102177517D01*
X140363234Y-102383673D01*
X140363231Y-102383680D01*
X140353775Y-102418972D01*
X140317410Y-102478632D01*
X140254563Y-102509161D01*
X140185187Y-102500866D01*
X140131309Y-102456381D01*
X140110035Y-102389829D01*
X140110000Y-102386878D01*
X140110000Y-98332412D01*
X140129685Y-98265373D01*
X140137055Y-98255097D01*
X140139310Y-98252267D01*
X140139316Y-98252262D01*
X140235289Y-98099522D01*
X140294868Y-97929255D01*
X140295633Y-97922465D01*
X140315065Y-97750003D01*
X140315065Y-97749996D01*
X140294869Y-97570750D01*
X140294868Y-97570745D01*
X140249303Y-97440528D01*
X140235289Y-97400478D01*
X140204452Y-97351402D01*
X140139315Y-97247737D01*
X140011762Y-97120184D01*
X139859023Y-97024211D01*
X139688754Y-96964631D01*
X139688749Y-96964630D01*
X139509504Y-96944435D01*
X139509496Y-96944435D01*
X139330250Y-96964630D01*
X139330245Y-96964631D01*
X139159976Y-97024211D01*
X139007237Y-97120184D01*
X138879684Y-97247737D01*
X138783711Y-97400476D01*
X138724131Y-97570745D01*
X138724130Y-97570750D01*
X138703935Y-97749996D01*
X138703935Y-97750003D01*
X138724130Y-97929249D01*
X138724131Y-97929254D01*
X138783711Y-98099523D01*
X138879685Y-98252263D01*
X138881945Y-98255097D01*
X138882834Y-98257275D01*
X138883389Y-98258158D01*
X138883234Y-98258255D01*
X138908355Y-98319783D01*
X138909000Y-98332412D01*
X138909000Y-102743330D01*
X138908999Y-102743348D01*
X138908999Y-102909054D01*
X138908998Y-102909054D01*
X138949923Y-103061787D01*
X138949924Y-103061788D01*
X138971698Y-103099501D01*
X139028975Y-103198709D01*
X139028981Y-103198717D01*
X139147849Y-103317585D01*
X139147855Y-103317590D01*
X139690836Y-103860571D01*
X139724321Y-103921894D01*
X139719337Y-103991586D01*
X139677465Y-104047519D01*
X139612001Y-104071936D01*
X139592348Y-104071780D01*
X139509502Y-104064532D01*
X139509498Y-104064532D01*
X139282813Y-104084364D01*
X139282802Y-104084366D01*
X139063011Y-104143258D01*
X139063002Y-104143261D01*
X138856767Y-104239431D01*
X138856765Y-104239432D01*
X138670362Y-104369951D01*
X138509449Y-104530865D01*
X138509446Y-104530868D01*
X138470721Y-104586174D01*
X138416144Y-104629799D01*
X138346646Y-104636991D01*
X138284291Y-104605468D01*
X138281466Y-104602731D01*
X138221961Y-104543226D01*
X138188476Y-104481903D01*
X138189868Y-104423450D01*
X138213458Y-104335413D01*
X138217570Y-104320068D01*
X138235416Y-104116080D01*
X138236823Y-104100002D01*
X138236823Y-104099997D01*
X138228427Y-104004035D01*
X138217570Y-103879932D01*
X138160394Y-103666550D01*
X138067034Y-103466339D01*
X137951986Y-103302032D01*
X137940327Y-103285381D01*
X137880463Y-103225517D01*
X137784120Y-103129174D01*
X137784116Y-103129171D01*
X137784115Y-103129170D01*
X137603166Y-103002468D01*
X137603158Y-103002464D01*
X137474311Y-102942382D01*
X137421871Y-102896210D01*
X137402719Y-102829017D01*
X137422935Y-102762135D01*
X137474311Y-102717618D01*
X137480302Y-102714824D01*
X137603162Y-102657534D01*
X137784120Y-102530826D01*
X137940326Y-102374620D01*
X138067034Y-102193662D01*
X138160394Y-101993450D01*
X138217570Y-101780068D01*
X138236823Y-101560000D01*
X138236481Y-101556094D01*
X138217570Y-101339937D01*
X138217570Y-101339932D01*
X138160394Y-101126550D01*
X138067034Y-100926339D01*
X137940326Y-100745380D01*
X137784120Y-100589174D01*
X137784116Y-100589171D01*
X137784115Y-100589170D01*
X137603166Y-100462468D01*
X137603158Y-100462464D01*
X137474311Y-100402382D01*
X137421871Y-100356210D01*
X137402719Y-100289017D01*
X137422935Y-100222135D01*
X137474311Y-100177618D01*
X137515498Y-100158412D01*
X137603162Y-100117534D01*
X137784120Y-99990826D01*
X137940326Y-99834620D01*
X138067034Y-99653662D01*
X138160394Y-99453450D01*
X138217570Y-99240068D01*
X138236823Y-99020000D01*
X138217570Y-98799932D01*
X138160394Y-98586550D01*
X138067034Y-98386339D01*
X137948840Y-98217539D01*
X137940327Y-98205381D01*
X137920349Y-98185403D01*
X137784120Y-98049174D01*
X137784116Y-98049171D01*
X137784115Y-98049170D01*
X137603166Y-97922468D01*
X137603162Y-97922466D01*
X137603160Y-97922465D01*
X137402950Y-97829106D01*
X137402947Y-97829105D01*
X137402945Y-97829104D01*
X137189570Y-97771930D01*
X137189562Y-97771929D01*
X136969502Y-97752677D01*
X136969498Y-97752677D01*
X136749437Y-97771929D01*
X136749429Y-97771930D01*
X136536054Y-97829104D01*
X136536048Y-97829107D01*
X136335840Y-97922465D01*
X136335838Y-97922466D01*
X136154877Y-98049175D01*
X135998675Y-98205377D01*
X135871966Y-98386338D01*
X135871965Y-98386340D01*
X135778607Y-98586548D01*
X135778604Y-98586554D01*
X135721430Y-98799929D01*
X135721429Y-98799937D01*
X135702177Y-99019997D01*
X135702177Y-99020002D01*
X135721429Y-99240062D01*
X135721430Y-99240070D01*
X135778604Y-99453445D01*
X135778605Y-99453447D01*
X135778606Y-99453450D01*
X135862611Y-99633600D01*
X135871966Y-99653662D01*
X135871968Y-99653666D01*
X135998670Y-99834615D01*
X135998675Y-99834621D01*
X136154878Y-99990824D01*
X136154884Y-99990829D01*
X136335833Y-100117531D01*
X136335835Y-100117532D01*
X136335838Y-100117534D01*
X136423502Y-100158412D01*
X136464689Y-100177618D01*
X136517128Y-100223790D01*
X136536280Y-100290984D01*
X136516064Y-100357865D01*
X136464689Y-100402382D01*
X136335840Y-100462465D01*
X136335838Y-100462466D01*
X136154877Y-100589175D01*
X135998675Y-100745377D01*
X135871966Y-100926338D01*
X135871965Y-100926340D01*
X135778607Y-101126548D01*
X135778604Y-101126554D01*
X135721430Y-101339929D01*
X135721429Y-101339937D01*
X135702177Y-101559997D01*
X135702177Y-101560002D01*
X135721429Y-101780062D01*
X135721431Y-101780073D01*
X135749131Y-101883452D01*
X135747468Y-101953302D01*
X135717037Y-102003226D01*
X135330786Y-102389478D01*
X135218981Y-102501282D01*
X135218979Y-102501284D01*
X135202863Y-102529199D01*
X135184792Y-102560500D01*
X135139923Y-102638215D01*
X135098999Y-102790943D01*
X135098999Y-102790945D01*
X135098999Y-102959046D01*
X135099000Y-102959059D01*
X135099000Y-104285225D01*
X135098999Y-104285243D01*
X135098999Y-104450949D01*
X135098998Y-104450949D01*
X134510000Y-104450949D01*
X134509999Y-103202128D01*
X134503591Y-103142517D01*
X134498614Y-103129174D01*
X134453297Y-103007671D01*
X134453293Y-103007664D01*
X134367047Y-102892455D01*
X134367044Y-102892452D01*
X134251835Y-102806206D01*
X134251828Y-102806202D01*
X134116982Y-102755908D01*
X134116983Y-102755908D01*
X134057383Y-102749501D01*
X134057381Y-102749500D01*
X134057373Y-102749500D01*
X134057364Y-102749500D01*
X132261629Y-102749500D01*
X132261623Y-102749501D01*
X132202016Y-102755908D01*
X132067171Y-102806202D01*
X132067164Y-102806206D01*
X131951955Y-102892452D01*
X131951952Y-102892455D01*
X131865706Y-103007664D01*
X131865702Y-103007671D01*
X131815408Y-103142517D01*
X131809001Y-103202116D01*
X131809001Y-103202123D01*
X131809000Y-103202135D01*
X131809000Y-104997870D01*
X131809001Y-104997876D01*
X131815408Y-105057483D01*
X131865702Y-105192328D01*
X131865706Y-105192335D01*
X131951952Y-105307544D01*
X131951955Y-105307547D01*
X132067164Y-105393793D01*
X132067171Y-105393797D01*
X132198581Y-105442810D01*
X132254515Y-105484681D01*
X132278932Y-105550145D01*
X132264080Y-105618418D01*
X132242930Y-105646673D01*
X132121003Y-105768600D01*
X131985465Y-105962169D01*
X131985464Y-105962171D01*
X131885598Y-106176335D01*
X131885594Y-106176344D01*
X131824438Y-106404586D01*
X131824436Y-106404596D01*
X131803841Y-106639999D01*
X130008315Y-106639999D01*
X130036046Y-106585145D01*
X130055342Y-106568425D01*
X130113620Y-106527618D01*
X130240901Y-106438495D01*
X130407995Y-106271401D01*
X130543535Y-106077830D01*
X130643403Y-105863663D01*
X130704563Y-105635408D01*
X130725159Y-105400000D01*
X130722768Y-105372677D01*
X130717070Y-105307544D01*
X130704563Y-105164592D01*
X130643403Y-104936337D01*
X130543535Y-104722171D01*
X130540101Y-104717266D01*
X130407994Y-104528597D01*
X130240902Y-104361506D01*
X130240896Y-104361501D01*
X130055342Y-104231575D01*
X130011717Y-104176998D01*
X130004523Y-104107500D01*
X130036046Y-104045145D01*
X130055342Y-104028425D01*
X130152871Y-103960134D01*
X130240901Y-103898495D01*
X130407995Y-103731401D01*
X130543535Y-103537830D01*
X130643403Y-103323663D01*
X130704563Y-103095408D01*
X130725159Y-102860000D01*
X130724311Y-102850313D01*
X130716842Y-102764936D01*
X130704563Y-102624592D01*
X130643403Y-102396337D01*
X130543535Y-102182171D01*
X130540277Y-102177517D01*
X130407994Y-101988597D01*
X130240902Y-101821506D01*
X130240895Y-101821501D01*
X130047334Y-101685967D01*
X130047330Y-101685965D01*
X129982995Y-101655965D01*
X129833163Y-101586097D01*
X129833159Y-101586096D01*
X129833155Y-101586094D01*
X129604913Y-101524938D01*
X129604903Y-101524936D01*
X129369501Y-101504341D01*
X129369499Y-101504341D01*
X129134096Y-101524936D01*
X129134086Y-101524938D01*
X128905844Y-101586094D01*
X128905835Y-101586098D01*
X128691671Y-101685964D01*
X128691669Y-101685965D01*
X128498097Y-101821505D01*
X128331008Y-101988594D01*
X128199839Y-102175923D01*
X128145262Y-102219547D01*
X128075763Y-102226740D01*
X128013409Y-102195218D01*
X127985881Y-102157203D01*
X127983533Y-102152167D01*
X127847994Y-101958597D01*
X127680902Y-101791506D01*
X127680895Y-101791501D01*
X127487334Y-101655967D01*
X127487330Y-101655965D01*
X127472533Y-101649065D01*
X127273163Y-101556097D01*
X127273159Y-101556096D01*
X127273155Y-101556094D01*
X127044913Y-101494938D01*
X127044903Y-101494936D01*
X126809501Y-101474341D01*
X126809499Y-101474341D01*
X126574096Y-101494936D01*
X126574086Y-101494938D01*
X126345844Y-101556094D01*
X126345837Y-101556096D01*
X126345837Y-101556097D01*
X126337467Y-101560000D01*
X126131671Y-101655964D01*
X126131669Y-101655965D01*
X125938097Y-101791505D01*
X125771005Y-101958597D01*
X125641075Y-102144158D01*
X125586498Y-102187783D01*
X125517000Y-102194977D01*
X125454645Y-102163454D01*
X125437925Y-102144158D01*
X125307994Y-101958597D01*
X125140902Y-101791506D01*
X125140895Y-101791501D01*
X124947334Y-101655967D01*
X124947330Y-101655965D01*
X124932533Y-101649065D01*
X124733163Y-101556097D01*
X124733159Y-101556096D01*
X124733155Y-101556094D01*
X124504913Y-101494938D01*
X124504903Y-101494936D01*
X124269501Y-101474341D01*
X124269499Y-101474341D01*
X124034096Y-101494936D01*
X124034086Y-101494938D01*
X123805844Y-101556094D01*
X123805837Y-101556096D01*
X123805837Y-101556097D01*
X123797467Y-101560000D01*
X123591671Y-101655964D01*
X123591669Y-101655965D01*
X123398097Y-101791505D01*
X123231005Y-101958597D01*
X123095465Y-102152169D01*
X123095464Y-102152171D01*
X122995598Y-102366335D01*
X122995594Y-102366344D01*
X122934438Y-102594586D01*
X122934436Y-102594596D01*
X122913841Y-102829999D01*
X119726413Y-102829999D01*
X119768565Y-102124173D01*
X119768949Y-102119335D01*
X119866744Y-101138908D01*
X119867320Y-101134105D01*
X120004009Y-100158381D01*
X120004780Y-100153574D01*
X120180155Y-99184045D01*
X120181112Y-99179299D01*
X120394888Y-98217528D01*
X120396039Y-98212793D01*
X120647895Y-97260241D01*
X120649214Y-97255625D01*
X120887659Y-96479999D01*
X122913841Y-96479999D01*
X122913841Y-96480000D01*
X122934436Y-96715403D01*
X122934438Y-96715413D01*
X122995594Y-96943655D01*
X122995596Y-96943659D01*
X122995597Y-96943663D01*
X123053670Y-97068201D01*
X123095465Y-97157830D01*
X123095467Y-97157834D01*
X123158419Y-97247738D01*
X123231005Y-97351401D01*
X123398099Y-97518495D01*
X123472720Y-97570745D01*
X123591665Y-97654032D01*
X123591667Y-97654033D01*
X123591670Y-97654035D01*
X123805837Y-97753903D01*
X124034092Y-97815063D01*
X124204819Y-97830000D01*
X124269499Y-97835659D01*
X124269500Y-97835659D01*
X124269501Y-97835659D01*
X124334181Y-97830000D01*
X124504908Y-97815063D01*
X124733163Y-97753903D01*
X124947330Y-97654035D01*
X125140901Y-97518495D01*
X125307995Y-97351401D01*
X125437925Y-97165842D01*
X125492502Y-97122217D01*
X125562000Y-97115023D01*
X125624355Y-97146546D01*
X125641075Y-97165842D01*
X125771000Y-97351395D01*
X125771005Y-97351401D01*
X125938099Y-97518495D01*
X126012720Y-97570745D01*
X126131665Y-97654032D01*
X126131667Y-97654033D01*
X126131670Y-97654035D01*
X126345837Y-97753903D01*
X126574092Y-97815063D01*
X126744819Y-97830000D01*
X126809499Y-97835659D01*
X126809500Y-97835659D01*
X126809501Y-97835659D01*
X126874181Y-97830000D01*
X127044908Y-97815063D01*
X127273163Y-97753903D01*
X127487330Y-97654035D01*
X127680901Y-97518495D01*
X127803217Y-97396178D01*
X127864536Y-97362696D01*
X127934228Y-97367680D01*
X127990162Y-97409551D01*
X128007077Y-97440528D01*
X128056146Y-97572088D01*
X128056149Y-97572093D01*
X128142309Y-97687187D01*
X128142312Y-97687190D01*
X128257406Y-97773350D01*
X128257413Y-97773354D01*
X128392120Y-97823596D01*
X128392127Y-97823598D01*
X128451655Y-97829999D01*
X128451672Y-97830000D01*
X129099500Y-97830000D01*
X129099500Y-96913012D01*
X129156507Y-96945925D01*
X129283674Y-96980000D01*
X129415326Y-96980000D01*
X129542493Y-96945925D01*
X129599500Y-96913012D01*
X129599500Y-97830000D01*
X130247328Y-97830000D01*
X130247344Y-97829999D01*
X130306872Y-97823598D01*
X130306879Y-97823596D01*
X130441586Y-97773354D01*
X130441593Y-97773350D01*
X130556687Y-97687190D01*
X130556690Y-97687187D01*
X130642850Y-97572093D01*
X130642854Y-97572086D01*
X130691922Y-97440529D01*
X130733793Y-97384595D01*
X130799257Y-97360178D01*
X130867530Y-97375030D01*
X130895785Y-97396181D01*
X131018099Y-97518495D01*
X131092720Y-97570745D01*
X131211668Y-97654034D01*
X131211674Y-97654037D01*
X131282509Y-97687068D01*
X131334949Y-97733240D01*
X131354101Y-97800433D01*
X131337492Y-97861450D01*
X131329924Y-97874557D01*
X131329923Y-97874561D01*
X131288999Y-98027289D01*
X131288999Y-98027291D01*
X131288999Y-98195392D01*
X131289000Y-98195405D01*
X131289000Y-98437587D01*
X131269315Y-98504626D01*
X131261950Y-98514896D01*
X131259686Y-98517734D01*
X131163711Y-98670476D01*
X131104131Y-98840745D01*
X131104130Y-98840750D01*
X131083935Y-99019996D01*
X131083935Y-99020003D01*
X131104130Y-99199249D01*
X131104131Y-99199254D01*
X131163711Y-99369523D01*
X131245399Y-99499528D01*
X131264399Y-99566765D01*
X131244031Y-99633600D01*
X131190763Y-99678814D01*
X131140405Y-99689500D01*
X128661912Y-99689500D01*
X128594873Y-99669815D01*
X128584597Y-99662445D01*
X128581763Y-99660185D01*
X128581762Y-99660184D01*
X128524996Y-99624515D01*
X128429023Y-99564211D01*
X128258754Y-99504631D01*
X128258749Y-99504630D01*
X128079504Y-99484435D01*
X128079496Y-99484435D01*
X127900250Y-99504630D01*
X127900245Y-99504631D01*
X127729976Y-99564211D01*
X127577237Y-99660184D01*
X127449684Y-99787737D01*
X127353711Y-99940476D01*
X127294131Y-100110745D01*
X127294130Y-100110750D01*
X127273935Y-100289996D01*
X127273935Y-100290003D01*
X127294130Y-100469249D01*
X127294131Y-100469254D01*
X127353711Y-100639523D01*
X127436025Y-100770524D01*
X127449684Y-100792262D01*
X127577238Y-100919816D01*
X127729978Y-101015789D01*
X127900245Y-101075368D01*
X127900250Y-101075369D01*
X128079496Y-101095565D01*
X128079500Y-101095565D01*
X128079504Y-101095565D01*
X128258749Y-101075369D01*
X128258752Y-101075368D01*
X128258755Y-101075368D01*
X128429022Y-101015789D01*
X128581762Y-100919816D01*
X128581767Y-100919810D01*
X128584597Y-100917555D01*
X128586775Y-100916665D01*
X128587658Y-100916111D01*
X128587755Y-100916265D01*
X128649283Y-100891145D01*
X128661912Y-100890500D01*
X133238555Y-100890500D01*
X133238557Y-100890500D01*
X133391284Y-100849577D01*
X133528216Y-100770520D01*
X133640020Y-100658716D01*
X133719077Y-100521784D01*
X133760000Y-100369057D01*
X133760000Y-98050097D01*
X133779685Y-97983058D01*
X133796319Y-97962416D01*
X135276916Y-96481819D01*
X135338239Y-96448334D01*
X135364597Y-96445500D01*
X142384403Y-96445500D01*
X142451442Y-96465185D01*
X142472084Y-96481819D01*
X147306794Y-101316529D01*
X147340279Y-101377852D01*
X147335295Y-101447544D01*
X147293423Y-101503477D01*
X147251207Y-101523985D01*
X147143180Y-101552931D01*
X147143173Y-101552934D01*
X146937017Y-101649065D01*
X146750679Y-101779542D01*
X146589842Y-101940379D01*
X146459365Y-102126717D01*
X146363234Y-102332873D01*
X146363230Y-102332882D01*
X146310627Y-102529199D01*
X146310628Y-102529200D01*
X147273814Y-102529200D01*
X147269420Y-102533594D01*
X147216759Y-102624806D01*
X147189500Y-102726539D01*
X147189500Y-102831861D01*
X147216759Y-102933594D01*
X147269420Y-103024806D01*
X147273814Y-103029200D01*
X146310628Y-103029200D01*
X146363230Y-103225517D01*
X146363234Y-103225526D01*
X146459365Y-103431682D01*
X146589842Y-103618020D01*
X146750679Y-103778857D01*
X146937017Y-103909334D01*
X147143173Y-104005465D01*
X147143182Y-104005469D01*
X147339499Y-104058072D01*
X147339500Y-104058071D01*
X147339500Y-103094886D01*
X147343894Y-103099280D01*
X147435106Y-103151941D01*
X147536839Y-103179200D01*
X147642161Y-103179200D01*
X147743894Y-103151941D01*
X147835106Y-103099280D01*
X147839500Y-103094886D01*
X147839500Y-104058072D01*
X148035817Y-104005469D01*
X148035826Y-104005465D01*
X148241982Y-103909334D01*
X148428320Y-103778857D01*
X148589157Y-103618020D01*
X148719634Y-103431682D01*
X148815765Y-103225526D01*
X148815769Y-103225517D01*
X148844714Y-103117493D01*
X148881079Y-103057832D01*
X148943926Y-103027303D01*
X149013301Y-103035598D01*
X149052170Y-103061905D01*
X149850836Y-103860571D01*
X149884321Y-103921894D01*
X149879337Y-103991586D01*
X149837465Y-104047519D01*
X149772001Y-104071936D01*
X149752348Y-104071780D01*
X149669502Y-104064532D01*
X149669498Y-104064532D01*
X149442813Y-104084364D01*
X149442802Y-104084366D01*
X149223011Y-104143258D01*
X149223002Y-104143261D01*
X149016767Y-104239431D01*
X149016765Y-104239432D01*
X148830358Y-104369954D01*
X148669454Y-104530858D01*
X148618465Y-104603680D01*
X148539381Y-104716624D01*
X148484807Y-104760248D01*
X148437808Y-104769500D01*
X145780442Y-104769500D01*
X145627713Y-104810423D01*
X145595165Y-104829216D01*
X145595164Y-104829216D01*
X145490787Y-104889477D01*
X145490782Y-104889481D01*
X144108981Y-106271282D01*
X144108979Y-106271285D01*
X144086786Y-106309724D01*
X144064593Y-106348165D01*
X144029923Y-106408215D01*
X143988999Y-106560943D01*
X143988999Y-106560945D01*
X143988999Y-106729046D01*
X143989000Y-106729059D01*
X143989000Y-115443330D01*
X143988999Y-115443348D01*
X143988999Y-115609054D01*
X143988998Y-115609054D01*
X144029923Y-115761785D01*
X144058858Y-115811900D01*
X144058859Y-115811904D01*
X144058860Y-115811904D01*
X144108979Y-115898714D01*
X144108981Y-115898717D01*
X144227849Y-116017585D01*
X144227855Y-116017590D01*
X145030681Y-116820416D01*
X145064166Y-116881739D01*
X145067000Y-116908097D01*
X145067000Y-117998655D01*
X145047315Y-118065694D01*
X145002018Y-118107710D01*
X144941230Y-118140607D01*
X144872901Y-118155202D01*
X144807529Y-118130539D01*
X144782945Y-118105863D01*
X144765686Y-118082809D01*
X144650593Y-117996649D01*
X144650586Y-117996645D01*
X144515879Y-117946403D01*
X144515872Y-117946401D01*
X144456344Y-117940000D01*
X143758500Y-117940000D01*
X143758500Y-118964722D01*
X143682194Y-118920667D01*
X143567744Y-118890000D01*
X143449256Y-118890000D01*
X143334806Y-118920667D01*
X143258500Y-118964722D01*
X143258500Y-117940000D01*
X142560655Y-117940000D01*
X142501127Y-117946401D01*
X142501120Y-117946403D01*
X142366413Y-117996645D01*
X142366406Y-117996649D01*
X142251312Y-118082809D01*
X142251310Y-118082811D01*
X142234052Y-118105865D01*
X142178117Y-118147735D01*
X142108426Y-118152718D01*
X142075770Y-118140607D01*
X141914009Y-118053067D01*
X141914006Y-118053066D01*
X141914003Y-118053064D01*
X141913997Y-118053062D01*
X141913995Y-118053061D01*
X141694484Y-117977702D01*
X141506904Y-117946401D01*
X141465549Y-117939500D01*
X141233451Y-117939500D01*
X141195295Y-117945867D01*
X141004514Y-117977702D01*
X140962623Y-117992083D01*
X140892824Y-117995231D01*
X140832404Y-117960144D01*
X140800545Y-117897960D01*
X140798836Y-117885618D01*
X140795135Y-117843308D01*
X140736239Y-117623504D01*
X140640068Y-117417266D01*
X140509547Y-117230861D01*
X140509545Y-117230858D01*
X140348641Y-117069954D01*
X140162234Y-116939432D01*
X140162232Y-116939431D01*
X139955997Y-116843261D01*
X139955988Y-116843258D01*
X139736197Y-116784366D01*
X139736193Y-116784365D01*
X139736192Y-116784365D01*
X139736191Y-116784364D01*
X139736186Y-116784364D01*
X139509502Y-116764532D01*
X139509498Y-116764532D01*
X139282813Y-116784364D01*
X139282802Y-116784366D01*
X139063011Y-116843258D01*
X139063002Y-116843261D01*
X138856767Y-116939431D01*
X138856765Y-116939432D01*
X138670358Y-117069954D01*
X138509454Y-117230858D01*
X138378932Y-117417265D01*
X138378931Y-117417267D01*
X138282761Y-117623502D01*
X138282758Y-117623511D01*
X138223866Y-117843302D01*
X138223864Y-117843313D01*
X138204032Y-118069998D01*
X138204032Y-118070001D01*
X138223864Y-118296686D01*
X138223866Y-118296697D01*
X138282758Y-118516488D01*
X138282761Y-118516497D01*
X138378931Y-118722732D01*
X138378932Y-118722734D01*
X138509454Y-118909141D01*
X138670358Y-119070045D01*
X138670361Y-119070047D01*
X138856766Y-119200568D01*
X139063004Y-119296739D01*
X139282808Y-119355635D01*
X139444730Y-119369801D01*
X139509498Y-119375468D01*
X139509500Y-119375468D01*
X139509502Y-119375468D01*
X139566173Y-119370509D01*
X139736192Y-119355635D01*
X139797539Y-119339197D01*
X139867388Y-119340859D01*
X139925251Y-119380020D01*
X139952756Y-119444249D01*
X139953209Y-119448731D01*
X139963364Y-119571297D01*
X139963366Y-119571308D01*
X140020342Y-119796300D01*
X140113575Y-120008848D01*
X140240516Y-120203147D01*
X140240519Y-120203151D01*
X140240521Y-120203153D01*
X140397716Y-120373913D01*
X140397719Y-120373915D01*
X140397722Y-120373918D01*
X140580865Y-120516464D01*
X140580871Y-120516468D01*
X140580874Y-120516470D01*
X140687435Y-120574138D01*
X140784989Y-120626932D01*
X140784997Y-120626936D01*
X140898987Y-120666068D01*
X141004515Y-120702297D01*
X141004517Y-120702297D01*
X141004519Y-120702298D01*
X141233451Y-120740500D01*
X141233452Y-120740500D01*
X141465548Y-120740500D01*
X141465549Y-120740500D01*
X141694481Y-120702298D01*
X141914003Y-120626936D01*
X142075770Y-120539391D01*
X142144098Y-120524797D01*
X142209470Y-120549460D01*
X142234053Y-120574136D01*
X142251309Y-120597187D01*
X142251312Y-120597190D01*
X142366406Y-120683350D01*
X142366413Y-120683354D01*
X142501120Y-120733596D01*
X142501127Y-120733598D01*
X142560655Y-120739999D01*
X142560672Y-120740000D01*
X143258500Y-120740000D01*
X143258500Y-119715277D01*
X143334806Y-119759333D01*
X143449256Y-119790000D01*
X143567744Y-119790000D01*
X143682194Y-119759333D01*
X143758500Y-119715277D01*
X143758500Y-120740000D01*
X144456328Y-120740000D01*
X144456344Y-120739999D01*
X144515872Y-120733598D01*
X144515879Y-120733596D01*
X144650586Y-120683354D01*
X144650593Y-120683350D01*
X144765687Y-120597190D01*
X144782944Y-120574138D01*
X144838877Y-120532266D01*
X144908569Y-120527281D01*
X144941229Y-120539392D01*
X145048026Y-120597187D01*
X145102997Y-120626936D01*
X145216987Y-120666068D01*
X145322515Y-120702297D01*
X145322517Y-120702297D01*
X145322519Y-120702298D01*
X145551451Y-120740500D01*
X145551452Y-120740500D01*
X145783548Y-120740500D01*
X145783549Y-120740500D01*
X146012481Y-120702298D01*
X146232003Y-120626936D01*
X146436126Y-120516470D01*
X146619284Y-120373913D01*
X146655769Y-120334278D01*
X146715656Y-120298288D01*
X146785494Y-120300387D01*
X146838231Y-120334279D01*
X146874713Y-120373910D01*
X146874722Y-120373918D01*
X147057865Y-120516464D01*
X147057871Y-120516468D01*
X147057874Y-120516470D01*
X147164435Y-120574138D01*
X147261989Y-120626932D01*
X147261997Y-120626936D01*
X147375987Y-120666068D01*
X147481515Y-120702297D01*
X147481517Y-120702297D01*
X147481519Y-120702298D01*
X147710451Y-120740500D01*
X147710452Y-120740500D01*
X147942548Y-120740500D01*
X147942549Y-120740500D01*
X148171481Y-120702298D01*
X148391003Y-120626936D01*
X148595126Y-120516470D01*
X148778284Y-120373913D01*
X148935479Y-120203153D01*
X149062424Y-120008849D01*
X149155657Y-119796300D01*
X149212634Y-119571305D01*
X149222855Y-119447944D01*
X149248009Y-119382761D01*
X149304411Y-119341522D01*
X149374154Y-119337324D01*
X149378484Y-119338399D01*
X149442808Y-119355635D01*
X149604730Y-119369801D01*
X149669498Y-119375468D01*
X149669500Y-119375468D01*
X149669502Y-119375468D01*
X149726173Y-119370509D01*
X149896192Y-119355635D01*
X150115996Y-119296739D01*
X150322234Y-119200568D01*
X150508639Y-119070047D01*
X150669547Y-118909139D01*
X150800068Y-118722734D01*
X150896239Y-118516496D01*
X150955135Y-118296692D01*
X150973847Y-118082809D01*
X150974968Y-118070001D01*
X150974968Y-118069998D01*
X150964616Y-117951679D01*
X150955135Y-117843308D01*
X150896239Y-117623504D01*
X150800068Y-117417266D01*
X150669547Y-117230861D01*
X150669545Y-117230858D01*
X150508641Y-117069954D01*
X150322234Y-116939432D01*
X150322232Y-116939431D01*
X150115997Y-116843261D01*
X150115988Y-116843258D01*
X149896197Y-116784366D01*
X149896193Y-116784365D01*
X149896192Y-116784365D01*
X149896191Y-116784364D01*
X149896186Y-116784364D01*
X149669502Y-116764532D01*
X149669498Y-116764532D01*
X149442813Y-116784364D01*
X149442802Y-116784366D01*
X149223011Y-116843258D01*
X149223002Y-116843261D01*
X149016767Y-116939431D01*
X149016765Y-116939432D01*
X148830358Y-117069954D01*
X148669454Y-117230858D01*
X148538932Y-117417265D01*
X148538931Y-117417267D01*
X148442761Y-117623502D01*
X148442758Y-117623511D01*
X148383866Y-117843302D01*
X148383864Y-117843312D01*
X148380076Y-117886610D01*
X148354622Y-117951679D01*
X148298031Y-117992656D01*
X148228269Y-117996533D01*
X148216286Y-117993083D01*
X148171481Y-117977701D01*
X147975286Y-117944963D01*
X147942549Y-117939500D01*
X147710451Y-117939500D01*
X147669096Y-117946401D01*
X147481515Y-117977702D01*
X147262004Y-118053061D01*
X147261995Y-118053064D01*
X147057871Y-118163531D01*
X147057865Y-118163535D01*
X146874722Y-118306081D01*
X146874718Y-118306084D01*
X146838230Y-118345722D01*
X146778343Y-118381713D01*
X146708504Y-118379612D01*
X146655770Y-118345722D01*
X146619281Y-118306084D01*
X146619277Y-118306081D01*
X146436134Y-118163535D01*
X146436123Y-118163528D01*
X146332981Y-118107709D01*
X146283391Y-118058489D01*
X146268000Y-117998655D01*
X146268000Y-116528945D01*
X146268000Y-116528943D01*
X146227077Y-116376216D01*
X146227077Y-116376215D01*
X146227077Y-116376214D01*
X146198139Y-116326095D01*
X146198137Y-116326092D01*
X146148020Y-116239284D01*
X146036216Y-116127480D01*
X146036215Y-116127479D01*
X146031885Y-116123149D01*
X146031874Y-116123139D01*
X145226319Y-115317584D01*
X145192834Y-115256261D01*
X145190000Y-115229903D01*
X145190000Y-106940097D01*
X145209685Y-106873058D01*
X145226319Y-106852416D01*
X146071916Y-106006819D01*
X146133239Y-105973334D01*
X146159597Y-105970500D01*
X148437808Y-105970500D01*
X148504847Y-105990185D01*
X148539380Y-106023374D01*
X148615806Y-106132522D01*
X148669454Y-106209141D01*
X148830358Y-106370045D01*
X148830361Y-106370047D01*
X149016766Y-106500568D01*
X149074775Y-106527618D01*
X149127214Y-106573791D01*
X149146366Y-106640984D01*
X149126150Y-106707865D01*
X149074775Y-106752381D01*
X149057772Y-106760310D01*
X149016767Y-106779431D01*
X149016765Y-106779432D01*
X148830358Y-106909954D01*
X148669454Y-107070858D01*
X148639500Y-107113638D01*
X148538932Y-107257266D01*
X148538931Y-107257267D01*
X148442761Y-107463502D01*
X148442758Y-107463511D01*
X148383866Y-107683302D01*
X148383864Y-107683313D01*
X148364032Y-107909998D01*
X148364032Y-107910001D01*
X148383864Y-108136686D01*
X148383866Y-108136697D01*
X148442758Y-108356488D01*
X148442761Y-108356497D01*
X148538931Y-108562732D01*
X148538932Y-108562734D01*
X148669454Y-108749141D01*
X148830358Y-108910045D01*
X148877193Y-108942839D01*
X149016766Y-109040568D01*
X149223004Y-109136739D01*
X149442808Y-109195635D01*
X149604730Y-109209801D01*
X149669498Y-109215468D01*
X149669500Y-109215468D01*
X149669502Y-109215468D01*
X149731999Y-109210000D01*
X149896192Y-109195635D01*
X150115996Y-109136739D01*
X150322234Y-109040568D01*
X150508639Y-108910047D01*
X150669547Y-108749139D01*
X150800068Y-108562734D01*
X150896239Y-108356496D01*
X150955135Y-108136692D01*
X150974968Y-107910000D01*
X150955135Y-107683308D01*
X150901755Y-107484091D01*
X150896241Y-107463511D01*
X150896238Y-107463502D01*
X150857154Y-107379686D01*
X150800068Y-107257266D01*
X150669547Y-107070861D01*
X150669545Y-107070858D01*
X150508641Y-106909954D01*
X150322234Y-106779432D01*
X150322228Y-106779429D01*
X150293354Y-106765965D01*
X150264224Y-106752381D01*
X150211785Y-106706210D01*
X150192633Y-106639017D01*
X150212848Y-106572135D01*
X150264225Y-106527618D01*
X150322234Y-106500568D01*
X150508639Y-106370047D01*
X150669547Y-106209139D01*
X150800068Y-106022734D01*
X150896239Y-105816496D01*
X150955135Y-105596692D01*
X150974968Y-105370000D01*
X150955135Y-105143308D01*
X150901755Y-104944091D01*
X150896241Y-104923511D01*
X150896236Y-104923496D01*
X150893161Y-104916902D01*
X150882670Y-104847824D01*
X150911192Y-104784041D01*
X150969669Y-104745803D01*
X151005544Y-104740500D01*
X151052204Y-104740500D01*
X151119243Y-104760185D01*
X151153779Y-104793377D01*
X151238670Y-104914615D01*
X151238675Y-104914621D01*
X151394878Y-105070824D01*
X151394884Y-105070829D01*
X151575833Y-105197531D01*
X151575835Y-105197532D01*
X151575838Y-105197534D01*
X151695248Y-105253215D01*
X151704689Y-105257618D01*
X151757128Y-105303790D01*
X151776280Y-105370984D01*
X151756064Y-105437865D01*
X151704689Y-105482382D01*
X151575840Y-105542465D01*
X151575838Y-105542466D01*
X151394877Y-105669175D01*
X151238675Y-105825377D01*
X151111966Y-106006338D01*
X151111965Y-106006340D01*
X151018607Y-106206548D01*
X151018604Y-106206554D01*
X150961430Y-106419929D01*
X150961429Y-106419937D01*
X150942177Y-106639997D01*
X150942177Y-106640002D01*
X150961429Y-106860062D01*
X150961430Y-106860070D01*
X151018604Y-107073445D01*
X151018605Y-107073447D01*
X151018606Y-107073450D01*
X151032695Y-107103664D01*
X151111966Y-107273662D01*
X151111968Y-107273666D01*
X151238670Y-107454615D01*
X151238675Y-107454621D01*
X151394878Y-107610824D01*
X151394884Y-107610829D01*
X151575833Y-107737531D01*
X151575835Y-107737532D01*
X151575838Y-107737534D01*
X151695248Y-107793215D01*
X151704689Y-107797618D01*
X151757128Y-107843790D01*
X151776280Y-107910984D01*
X151756064Y-107977865D01*
X151704689Y-108022382D01*
X151575840Y-108082465D01*
X151575838Y-108082466D01*
X151394877Y-108209175D01*
X151238675Y-108365377D01*
X151111966Y-108546338D01*
X151111965Y-108546340D01*
X151018607Y-108746548D01*
X151018604Y-108746554D01*
X150961430Y-108959929D01*
X150961429Y-108959937D01*
X150942177Y-109179997D01*
X150942177Y-109180002D01*
X150961429Y-109400062D01*
X150961430Y-109400070D01*
X151018604Y-109613445D01*
X151018605Y-109613447D01*
X151018606Y-109613450D01*
X151063969Y-109710732D01*
X151111966Y-109813662D01*
X151111968Y-109813666D01*
X151238670Y-109994615D01*
X151238675Y-109994621D01*
X151394878Y-110150824D01*
X151394884Y-110150829D01*
X151575833Y-110277531D01*
X151575835Y-110277532D01*
X151575838Y-110277534D01*
X151695248Y-110333215D01*
X151704689Y-110337618D01*
X151757128Y-110383790D01*
X151776280Y-110450984D01*
X151756064Y-110517865D01*
X151704689Y-110562382D01*
X151575840Y-110622465D01*
X151575838Y-110622466D01*
X151394877Y-110749175D01*
X151238675Y-110905377D01*
X151111966Y-111086338D01*
X151111965Y-111086340D01*
X151018607Y-111286548D01*
X151018604Y-111286554D01*
X150961430Y-111499929D01*
X150961429Y-111499937D01*
X150942177Y-111719997D01*
X150942177Y-111720002D01*
X150961429Y-111940062D01*
X150961430Y-111940070D01*
X151018604Y-112153445D01*
X151018605Y-112153447D01*
X151018606Y-112153450D01*
X151053031Y-112227275D01*
X151111966Y-112353662D01*
X151111968Y-112353666D01*
X151238670Y-112534615D01*
X151238675Y-112534621D01*
X151394878Y-112690824D01*
X151394884Y-112690829D01*
X151575833Y-112817531D01*
X151575835Y-112817532D01*
X151575838Y-112817534D01*
X151695248Y-112873215D01*
X151704689Y-112877618D01*
X151757128Y-112923790D01*
X151776280Y-112990984D01*
X151756064Y-113057865D01*
X151704689Y-113102382D01*
X151575840Y-113162465D01*
X151575838Y-113162466D01*
X151394877Y-113289175D01*
X151238675Y-113445377D01*
X151111967Y-113626336D01*
X151111239Y-113627899D01*
X151110733Y-113628472D01*
X151109258Y-113631029D01*
X151108744Y-113630732D01*
X151065069Y-113680341D01*
X150998854Y-113699500D01*
X147751912Y-113699500D01*
X147684873Y-113679815D01*
X147674597Y-113672445D01*
X147671763Y-113670185D01*
X147671762Y-113670184D01*
X147608529Y-113630452D01*
X147519023Y-113574211D01*
X147348754Y-113514631D01*
X147348749Y-113514630D01*
X147169504Y-113494435D01*
X147169496Y-113494435D01*
X146990250Y-113514630D01*
X146990245Y-113514631D01*
X146819976Y-113574211D01*
X146667237Y-113670184D01*
X146539684Y-113797737D01*
X146443711Y-113950476D01*
X146384131Y-114120745D01*
X146384130Y-114120750D01*
X146363935Y-114299996D01*
X146363935Y-114300003D01*
X146384130Y-114479249D01*
X146384131Y-114479254D01*
X146443711Y-114649523D01*
X146471313Y-114693451D01*
X146539684Y-114802262D01*
X146667238Y-114929816D01*
X146819978Y-115025789D01*
X146959515Y-115074615D01*
X146990245Y-115085368D01*
X146990250Y-115085369D01*
X147169496Y-115105565D01*
X147169500Y-115105565D01*
X147169504Y-115105565D01*
X147348749Y-115085369D01*
X147348752Y-115085368D01*
X147348755Y-115085368D01*
X147519022Y-115025789D01*
X147671762Y-114929816D01*
X147671767Y-114929810D01*
X147674597Y-114927555D01*
X147676775Y-114926665D01*
X147677658Y-114926111D01*
X147677755Y-114926265D01*
X147739283Y-114901145D01*
X147751912Y-114900500D01*
X151052204Y-114900500D01*
X151119243Y-114920185D01*
X151153779Y-114953377D01*
X151238670Y-115074615D01*
X151238675Y-115074621D01*
X151394878Y-115230824D01*
X151394884Y-115230829D01*
X151575833Y-115357531D01*
X151575835Y-115357532D01*
X151575838Y-115357534D01*
X151776050Y-115450894D01*
X151989432Y-115508070D01*
X152146623Y-115521822D01*
X152209498Y-115527323D01*
X152209500Y-115527323D01*
X152209502Y-115527323D01*
X152264517Y-115522509D01*
X152429568Y-115508070D01*
X152642950Y-115450894D01*
X152843162Y-115357534D01*
X153024120Y-115230826D01*
X153180326Y-115074620D01*
X153307034Y-114893662D01*
X153400394Y-114693450D01*
X153457570Y-114480068D01*
X153475202Y-114278533D01*
X153476823Y-114260002D01*
X153476823Y-114259997D01*
X153461141Y-114080750D01*
X153457570Y-114039932D01*
X153400394Y-113826550D01*
X153307034Y-113626339D01*
X153242525Y-113534210D01*
X153180327Y-113445381D01*
X153164244Y-113429298D01*
X153024120Y-113289174D01*
X153024116Y-113289171D01*
X153024115Y-113289170D01*
X152843166Y-113162468D01*
X152843158Y-113162464D01*
X152714311Y-113102382D01*
X152661871Y-113056210D01*
X152642719Y-112989017D01*
X152662935Y-112922135D01*
X152714311Y-112877618D01*
X152720302Y-112874824D01*
X152843162Y-112817534D01*
X153024120Y-112690826D01*
X153180326Y-112534620D01*
X153307034Y-112353662D01*
X153400394Y-112153450D01*
X153457570Y-111940068D01*
X153476823Y-111720000D01*
X153457570Y-111499932D01*
X153454505Y-111488495D01*
X153446774Y-111459643D01*
X153448435Y-111389793D01*
X153478865Y-111339868D01*
X155108006Y-109710728D01*
X155108011Y-109710724D01*
X155118214Y-109700520D01*
X155118216Y-109700520D01*
X155230020Y-109588716D01*
X155309077Y-109451784D01*
X155350000Y-109299057D01*
X155350000Y-109219998D01*
X161254532Y-109219998D01*
X161254532Y-109220001D01*
X161274364Y-109446686D01*
X161274366Y-109446697D01*
X161333258Y-109666488D01*
X161333261Y-109666497D01*
X161429431Y-109872732D01*
X161429432Y-109872734D01*
X161559954Y-110059141D01*
X161720858Y-110220045D01*
X161720861Y-110220047D01*
X161907266Y-110350568D01*
X162024429Y-110405202D01*
X162076868Y-110451374D01*
X162096020Y-110518568D01*
X162075804Y-110585449D01*
X162024429Y-110629966D01*
X161932362Y-110672898D01*
X161932357Y-110672900D01*
X161753121Y-110798402D01*
X161598402Y-110953121D01*
X161472900Y-111132357D01*
X161472898Y-111132361D01*
X161380426Y-111330668D01*
X161380422Y-111330677D01*
X161323793Y-111542020D01*
X161323793Y-111542024D01*
X161304723Y-111759997D01*
X161304723Y-111760002D01*
X161306343Y-111778520D01*
X161320476Y-111940068D01*
X161323793Y-111977975D01*
X161323793Y-111977979D01*
X161380422Y-112189322D01*
X161380424Y-112189326D01*
X161380425Y-112189330D01*
X161398119Y-112227275D01*
X161472897Y-112387638D01*
X161472898Y-112387639D01*
X161598402Y-112566877D01*
X161753123Y-112721598D01*
X161932361Y-112847102D01*
X161997207Y-112877340D01*
X162025019Y-112890309D01*
X162077459Y-112936481D01*
X162096611Y-113003674D01*
X162076395Y-113070556D01*
X162025020Y-113115073D01*
X161907517Y-113169866D01*
X161907512Y-113169868D01*
X161834526Y-113220973D01*
X161834526Y-113220974D01*
X162513553Y-113900000D01*
X162507339Y-113900000D01*
X162405606Y-113927259D01*
X162314394Y-113979920D01*
X162239920Y-114054394D01*
X162187259Y-114145606D01*
X162160000Y-114247339D01*
X162160000Y-114253552D01*
X161480974Y-113574526D01*
X161480973Y-113574526D01*
X161429868Y-113647512D01*
X161429866Y-113647516D01*
X161333734Y-113853673D01*
X161333730Y-113853682D01*
X161274860Y-114073389D01*
X161274858Y-114073400D01*
X161255034Y-114299997D01*
X161255034Y-114300002D01*
X161274858Y-114526599D01*
X161274860Y-114526610D01*
X161333730Y-114746317D01*
X161333735Y-114746331D01*
X161429863Y-114952478D01*
X161480974Y-115025472D01*
X162160000Y-114346446D01*
X162160000Y-114352661D01*
X162187259Y-114454394D01*
X162239920Y-114545606D01*
X162314394Y-114620080D01*
X162405606Y-114672741D01*
X162507339Y-114700000D01*
X162513553Y-114700000D01*
X161834526Y-115379025D01*
X161907513Y-115430132D01*
X161907521Y-115430136D01*
X162113668Y-115526264D01*
X162113682Y-115526269D01*
X162333389Y-115585139D01*
X162333400Y-115585141D01*
X162559998Y-115604966D01*
X162560002Y-115604966D01*
X162786599Y-115585141D01*
X162786610Y-115585139D01*
X163006317Y-115526269D01*
X163006331Y-115526264D01*
X163212478Y-115430136D01*
X163285471Y-115379024D01*
X162606447Y-114700000D01*
X162612661Y-114700000D01*
X162714394Y-114672741D01*
X162805606Y-114620080D01*
X162880080Y-114545606D01*
X162932741Y-114454394D01*
X162960000Y-114352661D01*
X162960000Y-114346447D01*
X163639024Y-115025471D01*
X163690136Y-114952478D01*
X163786264Y-114746331D01*
X163786269Y-114746317D01*
X163845139Y-114526610D01*
X163845141Y-114526599D01*
X163864966Y-114300002D01*
X163864966Y-114299997D01*
X163845141Y-114073400D01*
X163845139Y-114073389D01*
X163786269Y-113853682D01*
X163786264Y-113853668D01*
X163690136Y-113647521D01*
X163690132Y-113647513D01*
X163639025Y-113574526D01*
X162960000Y-114253551D01*
X162960000Y-114247339D01*
X162932741Y-114145606D01*
X162880080Y-114054394D01*
X162805606Y-113979920D01*
X162714394Y-113927259D01*
X162612661Y-113900000D01*
X162606448Y-113900000D01*
X163285472Y-113220974D01*
X163212480Y-113169864D01*
X163094979Y-113115073D01*
X163042540Y-113068901D01*
X163023388Y-113001707D01*
X163043604Y-112934826D01*
X163094976Y-112890311D01*
X163187639Y-112847102D01*
X163366877Y-112721598D01*
X163521598Y-112566877D01*
X163647102Y-112387639D01*
X163739575Y-112189330D01*
X163796207Y-111977977D01*
X163813657Y-111778520D01*
X163815277Y-111760002D01*
X163815277Y-111759997D01*
X163806658Y-111661480D01*
X163796207Y-111542023D01*
X163750241Y-111370476D01*
X163739577Y-111330677D01*
X163739576Y-111330676D01*
X163739575Y-111330670D01*
X163647102Y-111132362D01*
X163647100Y-111132359D01*
X163647099Y-111132357D01*
X163521599Y-110953124D01*
X163473852Y-110905377D01*
X163366877Y-110798402D01*
X163187639Y-110672898D01*
X163177688Y-110668258D01*
X163095571Y-110629966D01*
X163043131Y-110583794D01*
X163023979Y-110516600D01*
X163044195Y-110449719D01*
X163095567Y-110405203D01*
X163212734Y-110350568D01*
X163399139Y-110220047D01*
X163560047Y-110059139D01*
X163690568Y-109872734D01*
X163786739Y-109666496D01*
X163845635Y-109446692D01*
X163865468Y-109220000D01*
X163861968Y-109180000D01*
X163858184Y-109136739D01*
X163845635Y-108993308D01*
X163786739Y-108773504D01*
X163690568Y-108567266D01*
X163560047Y-108380861D01*
X163560045Y-108380858D01*
X163399141Y-108219954D01*
X163212734Y-108089432D01*
X163212732Y-108089431D01*
X163006497Y-107993261D01*
X163006488Y-107993258D01*
X162786697Y-107934366D01*
X162786693Y-107934365D01*
X162786692Y-107934365D01*
X162786691Y-107934364D01*
X162786686Y-107934364D01*
X162560002Y-107914532D01*
X162559998Y-107914532D01*
X162333313Y-107934364D01*
X162333302Y-107934366D01*
X162113511Y-107993258D01*
X162113502Y-107993261D01*
X161907267Y-108089431D01*
X161907265Y-108089432D01*
X161720858Y-108219954D01*
X161559954Y-108380858D01*
X161429432Y-108567265D01*
X161429431Y-108567267D01*
X161333261Y-108773502D01*
X161333258Y-108773511D01*
X161274366Y-108993302D01*
X161274364Y-108993313D01*
X161254532Y-109219998D01*
X155350000Y-109219998D01*
X155350000Y-108114499D01*
X155369685Y-108047460D01*
X155422489Y-108001705D01*
X155474000Y-107990499D01*
X156917371Y-107990499D01*
X156917372Y-107990499D01*
X156976983Y-107984091D01*
X157111831Y-107933796D01*
X157227046Y-107847546D01*
X157313296Y-107732331D01*
X157363591Y-107597483D01*
X157370000Y-107537873D01*
X157369999Y-105742128D01*
X157363591Y-105682517D01*
X157359982Y-105672842D01*
X157313297Y-105547671D01*
X157313293Y-105547664D01*
X157227047Y-105432455D01*
X157227044Y-105432452D01*
X157111835Y-105346206D01*
X157111828Y-105346202D01*
X156980417Y-105297189D01*
X156924483Y-105255318D01*
X156900066Y-105189853D01*
X156914918Y-105121580D01*
X156936063Y-105093332D01*
X157057995Y-104971401D01*
X157193535Y-104777830D01*
X157293403Y-104563663D01*
X157354563Y-104335408D01*
X157375159Y-104100000D01*
X157375159Y-104099999D01*
X163553841Y-104099999D01*
X163553841Y-104100000D01*
X163574436Y-104335403D01*
X163574438Y-104335413D01*
X163635594Y-104563655D01*
X163635596Y-104563659D01*
X163635597Y-104563663D01*
X163727237Y-104760185D01*
X163735465Y-104777830D01*
X163735467Y-104777834D01*
X163837467Y-104923504D01*
X163871005Y-104971401D01*
X164038099Y-105138495D01*
X164122411Y-105197531D01*
X164231665Y-105274032D01*
X164231667Y-105274033D01*
X164231670Y-105274035D01*
X164445837Y-105373903D01*
X164674092Y-105435063D01*
X164850534Y-105450500D01*
X164909499Y-105455659D01*
X164909500Y-105455659D01*
X164909501Y-105455659D01*
X164968466Y-105450500D01*
X165144908Y-105435063D01*
X165373163Y-105373903D01*
X165587330Y-105274035D01*
X165780901Y-105138495D01*
X165947995Y-104971401D01*
X166083535Y-104777830D01*
X166183403Y-104563663D01*
X166244563Y-104335408D01*
X166265159Y-104100000D01*
X166263190Y-104077500D01*
X166249576Y-103921894D01*
X166244563Y-103864592D01*
X166191500Y-103666554D01*
X166183405Y-103636344D01*
X166183404Y-103636343D01*
X166183403Y-103636337D01*
X166083535Y-103422171D01*
X166042493Y-103363557D01*
X165947996Y-103228600D01*
X165898596Y-103179200D01*
X165826067Y-103106671D01*
X165792584Y-103045351D01*
X165797568Y-102975659D01*
X165839439Y-102919725D01*
X165870415Y-102902810D01*
X166001831Y-102853796D01*
X166117046Y-102767546D01*
X166203296Y-102652331D01*
X166253591Y-102517483D01*
X166260000Y-102457873D01*
X166259999Y-100662128D01*
X166253591Y-100602517D01*
X166248614Y-100589174D01*
X166203297Y-100467671D01*
X166203293Y-100467664D01*
X166117047Y-100352455D01*
X166117044Y-100352452D01*
X166001835Y-100266206D01*
X166001828Y-100266202D01*
X165866982Y-100215908D01*
X165866983Y-100215908D01*
X165807383Y-100209501D01*
X165807381Y-100209500D01*
X165807373Y-100209500D01*
X165807364Y-100209500D01*
X164011629Y-100209500D01*
X164011623Y-100209501D01*
X163952016Y-100215908D01*
X163817171Y-100266202D01*
X163817164Y-100266206D01*
X163701955Y-100352452D01*
X163701952Y-100352455D01*
X163615706Y-100467664D01*
X163615702Y-100467671D01*
X163565408Y-100602517D01*
X163559001Y-100662116D01*
X163559001Y-100662123D01*
X163559000Y-100662135D01*
X163559000Y-102457870D01*
X163559001Y-102457876D01*
X163565408Y-102517483D01*
X163615702Y-102652328D01*
X163615706Y-102652335D01*
X163701952Y-102767544D01*
X163701955Y-102767547D01*
X163817164Y-102853793D01*
X163817171Y-102853797D01*
X163948581Y-102902810D01*
X164004515Y-102944681D01*
X164028932Y-103010145D01*
X164014080Y-103078418D01*
X163992930Y-103106673D01*
X163871003Y-103228600D01*
X163735465Y-103422169D01*
X163735464Y-103422171D01*
X163635598Y-103636335D01*
X163635594Y-103636344D01*
X163574438Y-103864586D01*
X163574436Y-103864596D01*
X163553841Y-104099999D01*
X157375159Y-104099999D01*
X157373190Y-104077500D01*
X157359576Y-103921894D01*
X157354563Y-103864592D01*
X157301500Y-103666554D01*
X157293405Y-103636344D01*
X157293404Y-103636343D01*
X157293403Y-103636337D01*
X157193535Y-103422171D01*
X157152494Y-103363557D01*
X157057994Y-103228597D01*
X156890902Y-103061506D01*
X156890895Y-103061501D01*
X156889201Y-103060315D01*
X156842056Y-103027303D01*
X156697334Y-102925967D01*
X156697330Y-102925965D01*
X156647674Y-102902810D01*
X156483163Y-102826097D01*
X156483159Y-102826096D01*
X156483155Y-102826094D01*
X156254913Y-102764938D01*
X156254903Y-102764936D01*
X156019501Y-102744341D01*
X156019499Y-102744341D01*
X155784096Y-102764936D01*
X155784086Y-102764938D01*
X155555844Y-102826094D01*
X155555835Y-102826098D01*
X155526403Y-102839822D01*
X155457326Y-102850313D01*
X155393542Y-102821792D01*
X155355303Y-102763315D01*
X155350000Y-102727439D01*
X155350000Y-95130945D01*
X155350000Y-95130943D01*
X155309077Y-94978216D01*
X155309073Y-94978209D01*
X155230024Y-94841290D01*
X155230021Y-94841286D01*
X155230020Y-94841284D01*
X155118216Y-94729480D01*
X155118215Y-94729479D01*
X155113885Y-94725149D01*
X155113874Y-94725139D01*
X153058732Y-92669997D01*
X156224723Y-92669997D01*
X156224723Y-92670002D01*
X156243793Y-92887975D01*
X156243793Y-92887979D01*
X156300422Y-93099322D01*
X156300424Y-93099326D01*
X156300425Y-93099330D01*
X156326212Y-93154630D01*
X156392897Y-93297638D01*
X156392898Y-93297639D01*
X156518402Y-93476877D01*
X156673123Y-93631598D01*
X156852361Y-93757102D01*
X157050670Y-93849575D01*
X157262023Y-93906207D01*
X157444926Y-93922208D01*
X157479998Y-93925277D01*
X157480000Y-93925277D01*
X157480002Y-93925277D01*
X157508254Y-93922805D01*
X157697977Y-93906207D01*
X157909330Y-93849575D01*
X158107639Y-93757102D01*
X158286877Y-93631598D01*
X158441598Y-93476877D01*
X158567102Y-93297639D01*
X158659575Y-93099330D01*
X158716207Y-92887977D01*
X158735277Y-92670000D01*
X158734921Y-92665934D01*
X158730833Y-92619200D01*
X158716207Y-92452023D01*
X158659575Y-92240670D01*
X158567102Y-92042362D01*
X158567100Y-92042359D01*
X158567099Y-92042357D01*
X158441599Y-91863124D01*
X158369794Y-91791319D01*
X158286877Y-91708402D01*
X158107639Y-91582898D01*
X158107640Y-91582898D01*
X158107638Y-91582897D01*
X158008484Y-91536661D01*
X157909330Y-91490425D01*
X157909326Y-91490424D01*
X157909322Y-91490422D01*
X157697977Y-91433793D01*
X157480002Y-91414723D01*
X157479998Y-91414723D01*
X157346516Y-91426401D01*
X157262023Y-91433793D01*
X157262020Y-91433793D01*
X157050677Y-91490422D01*
X157050668Y-91490426D01*
X156852361Y-91582898D01*
X156852357Y-91582900D01*
X156673121Y-91708402D01*
X156518402Y-91863121D01*
X156392900Y-92042357D01*
X156392898Y-92042361D01*
X156300426Y-92240668D01*
X156300422Y-92240677D01*
X156243793Y-92452020D01*
X156243793Y-92452024D01*
X156224723Y-92669997D01*
X153058732Y-92669997D01*
X152646290Y-92257555D01*
X152646288Y-92257552D01*
X152527417Y-92138681D01*
X152527409Y-92138675D01*
X152407593Y-92069500D01*
X152407593Y-92069499D01*
X152407588Y-92069498D01*
X152401620Y-92066052D01*
X152390486Y-92059623D01*
X152352303Y-92049392D01*
X152237757Y-92018699D01*
X152079643Y-92018699D01*
X152072047Y-92018699D01*
X152072031Y-92018700D01*
X148821192Y-92018700D01*
X148754153Y-91999015D01*
X148719619Y-91965825D01*
X148589547Y-91780061D01*
X148589545Y-91780058D01*
X148428641Y-91619154D01*
X148242234Y-91488632D01*
X148242232Y-91488631D01*
X148035997Y-91392461D01*
X148035988Y-91392458D01*
X147821907Y-91335096D01*
X147762246Y-91298731D01*
X147731717Y-91235884D01*
X147730000Y-91215321D01*
X147730000Y-90129997D01*
X158764723Y-90129997D01*
X158764723Y-90130002D01*
X158783793Y-90347975D01*
X158783793Y-90347979D01*
X158840422Y-90559322D01*
X158840424Y-90559326D01*
X158840425Y-90559330D01*
X158866212Y-90614630D01*
X158932897Y-90757638D01*
X158941682Y-90770184D01*
X159058402Y-90936877D01*
X159213123Y-91091598D01*
X159392361Y-91217102D01*
X159590670Y-91309575D01*
X159802023Y-91366207D01*
X159984926Y-91382208D01*
X160019998Y-91385277D01*
X160020000Y-91385277D01*
X160020002Y-91385277D01*
X160048254Y-91382805D01*
X160237977Y-91366207D01*
X160449330Y-91309575D01*
X160647639Y-91217102D01*
X160826877Y-91091598D01*
X160981598Y-90936877D01*
X161107102Y-90757639D01*
X161199575Y-90559330D01*
X161256207Y-90347977D01*
X161275277Y-90130000D01*
X161273754Y-90112596D01*
X161268361Y-90050945D01*
X161256207Y-89912023D01*
X161199575Y-89700670D01*
X161107102Y-89502362D01*
X161107100Y-89502359D01*
X161107099Y-89502357D01*
X160981599Y-89323124D01*
X160950990Y-89292515D01*
X160826877Y-89168402D01*
X160647639Y-89042898D01*
X160647640Y-89042898D01*
X160647638Y-89042897D01*
X160548484Y-88996661D01*
X160449330Y-88950425D01*
X160449326Y-88950424D01*
X160449322Y-88950422D01*
X160237977Y-88893793D01*
X160020002Y-88874723D01*
X160019998Y-88874723D01*
X159874682Y-88887436D01*
X159802023Y-88893793D01*
X159802020Y-88893793D01*
X159590677Y-88950422D01*
X159590668Y-88950426D01*
X159392361Y-89042898D01*
X159392357Y-89042900D01*
X159213121Y-89168402D01*
X159058402Y-89323121D01*
X158932900Y-89502357D01*
X158932898Y-89502361D01*
X158840426Y-89700668D01*
X158840422Y-89700677D01*
X158783793Y-89912020D01*
X158783793Y-89912024D01*
X158764723Y-90129997D01*
X147730000Y-90129997D01*
X147730000Y-89202946D01*
X147749685Y-89135907D01*
X147802489Y-89090152D01*
X147871647Y-89080208D01*
X147935203Y-89109233D01*
X147945217Y-89118951D01*
X147973767Y-89149964D01*
X147973770Y-89149966D01*
X147973771Y-89149967D01*
X147973773Y-89149969D01*
X148156916Y-89292515D01*
X148156922Y-89292519D01*
X148156925Y-89292521D01*
X148361048Y-89402987D01*
X148475038Y-89442119D01*
X148580566Y-89478348D01*
X148580568Y-89478348D01*
X148580570Y-89478349D01*
X148809502Y-89516551D01*
X148809503Y-89516551D01*
X149041599Y-89516551D01*
X149041600Y-89516551D01*
X149270532Y-89478349D01*
X149490054Y-89402987D01*
X149694177Y-89292521D01*
X149877335Y-89149964D01*
X150034530Y-88979204D01*
X150161475Y-88784900D01*
X150254708Y-88572351D01*
X150311685Y-88347356D01*
X150311686Y-88347348D01*
X150330851Y-88116057D01*
X150330851Y-88116044D01*
X150311686Y-87884753D01*
X150311684Y-87884742D01*
X150254708Y-87659750D01*
X150161475Y-87447202D01*
X150034534Y-87252903D01*
X150034531Y-87252900D01*
X150034530Y-87252898D01*
X149877335Y-87082138D01*
X149877330Y-87082134D01*
X149877328Y-87082132D01*
X149694185Y-86939586D01*
X149694174Y-86939579D01*
X149591032Y-86883760D01*
X149541442Y-86834540D01*
X149530539Y-86792155D01*
X156230000Y-86792155D01*
X156230000Y-87340000D01*
X157164314Y-87340000D01*
X157159920Y-87344394D01*
X157107259Y-87435606D01*
X157080000Y-87537339D01*
X157080000Y-87642661D01*
X157107259Y-87744394D01*
X157159920Y-87835606D01*
X157164314Y-87840000D01*
X156230000Y-87840000D01*
X156230000Y-88387844D01*
X156236401Y-88447372D01*
X156236403Y-88447379D01*
X156286645Y-88582086D01*
X156286649Y-88582093D01*
X156372809Y-88697187D01*
X156372812Y-88697190D01*
X156487906Y-88783350D01*
X156487913Y-88783354D01*
X156622620Y-88833596D01*
X156622627Y-88833598D01*
X156682155Y-88839999D01*
X156682172Y-88840000D01*
X157230000Y-88840000D01*
X157230000Y-87905686D01*
X157234394Y-87910080D01*
X157325606Y-87962741D01*
X157427339Y-87990000D01*
X157532661Y-87990000D01*
X157634394Y-87962741D01*
X157725606Y-87910080D01*
X157730000Y-87905686D01*
X157730000Y-88840000D01*
X158277828Y-88840000D01*
X158277844Y-88839999D01*
X158337372Y-88833598D01*
X158337379Y-88833596D01*
X158472086Y-88783354D01*
X158472093Y-88783350D01*
X158587187Y-88697190D01*
X158587190Y-88697187D01*
X158673350Y-88582093D01*
X158673354Y-88582086D01*
X158723596Y-88447379D01*
X158723598Y-88447372D01*
X158729999Y-88387844D01*
X158730000Y-88387827D01*
X158730000Y-87840000D01*
X157795686Y-87840000D01*
X157800080Y-87835606D01*
X157852741Y-87744394D01*
X157880000Y-87642661D01*
X157880000Y-87537339D01*
X157852741Y-87435606D01*
X157800080Y-87344394D01*
X157795686Y-87340000D01*
X158730000Y-87340000D01*
X158730000Y-86792172D01*
X158729999Y-86792155D01*
X158723598Y-86732627D01*
X158723596Y-86732620D01*
X158673354Y-86597913D01*
X158673350Y-86597906D01*
X158587190Y-86482812D01*
X158587187Y-86482809D01*
X158472093Y-86396649D01*
X158472086Y-86396645D01*
X158337379Y-86346403D01*
X158337372Y-86346401D01*
X158277844Y-86340000D01*
X157730000Y-86340000D01*
X157730000Y-87274314D01*
X157725606Y-87269920D01*
X157634394Y-87217259D01*
X157532661Y-87190000D01*
X157427339Y-87190000D01*
X157325606Y-87217259D01*
X157234394Y-87269920D01*
X157230000Y-87274314D01*
X157230000Y-86340000D01*
X156682155Y-86340000D01*
X156622627Y-86346401D01*
X156622620Y-86346403D01*
X156487913Y-86396645D01*
X156487906Y-86396649D01*
X156372812Y-86482809D01*
X156372809Y-86482812D01*
X156286649Y-86597906D01*
X156286645Y-86597913D01*
X156236403Y-86732620D01*
X156236401Y-86732627D01*
X156230000Y-86792155D01*
X149530539Y-86792155D01*
X149526051Y-86774706D01*
X149526051Y-85284892D01*
X149542665Y-85222890D01*
X149549076Y-85211785D01*
X149549077Y-85211784D01*
X149590001Y-85059057D01*
X149590001Y-84900942D01*
X149549077Y-84748215D01*
X149470020Y-84611284D01*
X149358216Y-84499480D01*
X149358215Y-84499479D01*
X149353885Y-84495149D01*
X149353874Y-84495139D01*
X147827090Y-82968355D01*
X147827088Y-82968352D01*
X147708217Y-82849481D01*
X147708216Y-82849480D01*
X147621404Y-82799360D01*
X147621404Y-82799359D01*
X147621400Y-82799358D01*
X147571285Y-82770423D01*
X147418557Y-82729499D01*
X147260443Y-82729499D01*
X147252847Y-82729499D01*
X147252831Y-82729500D01*
X145792961Y-82729500D01*
X145725922Y-82709815D01*
X145680167Y-82657011D01*
X145670223Y-82587853D01*
X145699248Y-82524297D01*
X145718650Y-82506234D01*
X145765013Y-82471525D01*
X145797046Y-82447546D01*
X145883296Y-82332331D01*
X145933591Y-82197483D01*
X145940000Y-82137873D01*
X145939999Y-80342128D01*
X145933591Y-80282517D01*
X145883296Y-80147669D01*
X145883295Y-80147668D01*
X145883293Y-80147664D01*
X145797047Y-80032455D01*
X145797044Y-80032452D01*
X145681835Y-79946206D01*
X145681828Y-79946202D01*
X145546982Y-79895908D01*
X145546983Y-79895908D01*
X145487383Y-79889501D01*
X145487381Y-79889500D01*
X145487373Y-79889500D01*
X145487364Y-79889500D01*
X143691629Y-79889500D01*
X143691623Y-79889501D01*
X143632016Y-79895908D01*
X143497171Y-79946202D01*
X143497164Y-79946206D01*
X143381955Y-80032452D01*
X143381952Y-80032455D01*
X143295706Y-80147664D01*
X143295702Y-80147671D01*
X143245408Y-80282517D01*
X143243553Y-80299777D01*
X143239001Y-80342123D01*
X143239000Y-80342135D01*
X143239000Y-82137870D01*
X143239001Y-82137876D01*
X143245408Y-82197483D01*
X143295702Y-82332328D01*
X143295706Y-82332335D01*
X143381952Y-82447544D01*
X143381955Y-82447547D01*
X143460350Y-82506234D01*
X143502221Y-82562168D01*
X143507205Y-82631859D01*
X143473719Y-82693182D01*
X143412396Y-82726666D01*
X143386039Y-82729500D01*
X141967864Y-82729500D01*
X141929320Y-82721834D01*
X141929135Y-82722527D01*
X141921286Y-82720424D01*
X141921285Y-82720423D01*
X141768558Y-82679499D01*
X141610443Y-82679499D01*
X141457715Y-82720423D01*
X141320996Y-82799358D01*
X141320781Y-82799482D01*
X139772928Y-84347335D01*
X139760090Y-84369573D01*
X139741768Y-84401308D01*
X139693872Y-84484266D01*
X139652948Y-84636994D01*
X139652948Y-84636996D01*
X139652948Y-84805097D01*
X139652949Y-84805110D01*
X139652949Y-86774706D01*
X139633264Y-86841745D01*
X139587968Y-86883760D01*
X139484825Y-86939579D01*
X139484814Y-86939586D01*
X139301671Y-87082132D01*
X139301668Y-87082135D01*
X139144465Y-87252903D01*
X139017524Y-87447202D01*
X138924291Y-87659750D01*
X138867315Y-87884742D01*
X138867313Y-87884753D01*
X138848149Y-88116044D01*
X138848149Y-88116057D01*
X138867313Y-88347348D01*
X138867315Y-88347359D01*
X138924291Y-88572349D01*
X138924293Y-88572353D01*
X138967741Y-88671407D01*
X138976644Y-88740707D01*
X138946666Y-88803819D01*
X138941866Y-88808897D01*
X138257584Y-89493181D01*
X138196261Y-89526666D01*
X138169903Y-89529500D01*
X138160442Y-89529500D01*
X138007715Y-89570423D01*
X138007714Y-89570423D01*
X138007712Y-89570424D01*
X138007709Y-89570425D01*
X137957596Y-89599359D01*
X137957595Y-89599360D01*
X137914189Y-89624420D01*
X137870785Y-89649479D01*
X137870782Y-89649481D01*
X137758978Y-89761286D01*
X136950965Y-90569298D01*
X136889642Y-90602783D01*
X136877168Y-90604837D01*
X136790250Y-90614630D01*
X136619978Y-90674210D01*
X136467237Y-90770184D01*
X136339684Y-90897737D01*
X136243711Y-91050476D01*
X136184131Y-91220745D01*
X136184130Y-91220750D01*
X136163935Y-91399996D01*
X136163935Y-91400003D01*
X136184130Y-91579249D01*
X136184131Y-91579254D01*
X136243711Y-91749523D01*
X136320766Y-91872155D01*
X136339684Y-91902262D01*
X136467238Y-92029816D01*
X136619978Y-92125789D01*
X136790245Y-92185368D01*
X136790250Y-92185369D01*
X136969496Y-92205565D01*
X136969500Y-92205565D01*
X136969504Y-92205565D01*
X137148749Y-92185369D01*
X137148752Y-92185368D01*
X137148755Y-92185368D01*
X137319022Y-92125789D01*
X137471762Y-92029816D01*
X137599316Y-91902262D01*
X137695289Y-91749522D01*
X137754868Y-91579255D01*
X137764661Y-91492329D01*
X137791726Y-91427918D01*
X137800190Y-91418543D01*
X138451915Y-90766820D01*
X138513238Y-90733335D01*
X138539596Y-90730501D01*
X138549054Y-90730501D01*
X138549057Y-90730501D01*
X138701785Y-90689577D01*
X138751904Y-90660639D01*
X138838716Y-90610520D01*
X138950520Y-90498716D01*
X138950520Y-90498714D01*
X138960728Y-90488507D01*
X138960730Y-90488504D01*
X139916827Y-89532406D01*
X139978148Y-89498923D01*
X140024912Y-89497780D01*
X140137400Y-89516551D01*
X140137401Y-89516551D01*
X140369497Y-89516551D01*
X140369498Y-89516551D01*
X140598430Y-89478349D01*
X140817952Y-89402987D01*
X141022075Y-89292521D01*
X141205233Y-89149964D01*
X141233772Y-89118962D01*
X141293656Y-89082973D01*
X141363494Y-89085072D01*
X141421111Y-89124596D01*
X141448213Y-89188995D01*
X141449000Y-89202946D01*
X141449000Y-91266121D01*
X141429315Y-91333160D01*
X141376511Y-91378915D01*
X141357093Y-91385896D01*
X141143011Y-91443258D01*
X141143002Y-91443261D01*
X140936767Y-91539431D01*
X140936765Y-91539432D01*
X140750358Y-91669954D01*
X140589454Y-91830858D01*
X140458932Y-92017265D01*
X140458931Y-92017267D01*
X140360473Y-92228410D01*
X140359025Y-92227735D01*
X140335312Y-92264951D01*
X140298981Y-92301283D01*
X140298978Y-92301286D01*
X139490965Y-93109298D01*
X139429642Y-93142783D01*
X139417168Y-93144837D01*
X139330250Y-93154630D01*
X139159978Y-93214210D01*
X139007237Y-93310184D01*
X138879684Y-93437737D01*
X138783711Y-93590476D01*
X138724131Y-93760745D01*
X138724130Y-93760750D01*
X138703935Y-93939996D01*
X138703935Y-93940003D01*
X138724130Y-94119249D01*
X138724131Y-94119254D01*
X138783711Y-94289523D01*
X138879684Y-94442262D01*
X139007238Y-94569816D01*
X139159978Y-94665789D01*
X139329591Y-94725139D01*
X139330245Y-94725368D01*
X139330250Y-94725369D01*
X139509496Y-94745565D01*
X139509500Y-94745565D01*
X139509504Y-94745565D01*
X139688749Y-94725369D01*
X139688752Y-94725368D01*
X139688755Y-94725368D01*
X139859022Y-94665789D01*
X140011762Y-94569816D01*
X140139316Y-94442262D01*
X140235289Y-94289522D01*
X140294868Y-94119255D01*
X140304661Y-94032329D01*
X140331726Y-93967918D01*
X140340190Y-93958543D01*
X140605225Y-93693508D01*
X140666546Y-93660025D01*
X140736238Y-93665009D01*
X140764027Y-93679616D01*
X140936766Y-93800568D01*
X141143004Y-93896739D01*
X141143009Y-93896740D01*
X141143011Y-93896741D01*
X141178339Y-93906207D01*
X141362808Y-93955635D01*
X141524730Y-93969801D01*
X141589498Y-93975468D01*
X141589500Y-93975468D01*
X141589502Y-93975468D01*
X141646173Y-93970509D01*
X141816192Y-93955635D01*
X142035996Y-93896739D01*
X142242234Y-93800568D01*
X142428639Y-93670047D01*
X142589547Y-93509139D01*
X142720068Y-93322734D01*
X142816239Y-93116496D01*
X142875135Y-92896692D01*
X142894968Y-92670000D01*
X142875135Y-92443308D01*
X142821363Y-92242626D01*
X142816241Y-92223511D01*
X142816238Y-92223502D01*
X142776685Y-92138681D01*
X142720068Y-92017266D01*
X142672424Y-91949222D01*
X142650097Y-91883015D01*
X142650000Y-91878100D01*
X142650000Y-87751467D01*
X142669685Y-87684428D01*
X142686319Y-87663786D01*
X143189437Y-87160668D01*
X143710049Y-86640056D01*
X143747669Y-86593373D01*
X143807457Y-86462457D01*
X143827939Y-86320000D01*
X143807457Y-86177543D01*
X143747669Y-86046627D01*
X143710050Y-85999944D01*
X143710045Y-85999939D01*
X143710041Y-85999934D01*
X142369563Y-84659458D01*
X142369556Y-84659451D01*
X142322873Y-84621831D01*
X142299776Y-84611283D01*
X142191955Y-84562042D01*
X142191957Y-84562042D01*
X142049500Y-84541561D01*
X141907043Y-84562042D01*
X141776129Y-84621829D01*
X141729434Y-84659458D01*
X141065630Y-85323263D01*
X141004307Y-85356748D01*
X140934615Y-85351764D01*
X140878682Y-85309892D01*
X140854265Y-85244428D01*
X140853949Y-85235582D01*
X140853949Y-85016148D01*
X140873634Y-84949109D01*
X140890268Y-84928467D01*
X141851917Y-83966819D01*
X141913240Y-83933334D01*
X141939598Y-83930500D01*
X147039403Y-83930500D01*
X147106442Y-83950185D01*
X147127084Y-83966819D01*
X148288732Y-85128467D01*
X148322217Y-85189790D01*
X148325051Y-85216148D01*
X148325051Y-85235583D01*
X148305366Y-85302622D01*
X148252562Y-85348377D01*
X148183404Y-85358321D01*
X148119848Y-85329296D01*
X148113370Y-85323264D01*
X147449563Y-84659458D01*
X147449556Y-84659451D01*
X147402873Y-84621831D01*
X147379776Y-84611283D01*
X147271955Y-84562042D01*
X147271957Y-84562042D01*
X147129500Y-84541561D01*
X146987043Y-84562042D01*
X146856129Y-84621829D01*
X146809434Y-84659458D01*
X145468958Y-85999936D01*
X145468952Y-85999943D01*
X145431330Y-86046628D01*
X145431329Y-86046630D01*
X145371542Y-86177543D01*
X145351061Y-86320000D01*
X145371542Y-86462456D01*
X145431329Y-86593370D01*
X145431330Y-86593371D01*
X145431331Y-86593373D01*
X145468950Y-86640056D01*
X145468953Y-86640059D01*
X145468958Y-86640065D01*
X146492681Y-87663786D01*
X146526166Y-87725109D01*
X146529000Y-87751467D01*
X146529000Y-91827300D01*
X146509315Y-91894339D01*
X146506576Y-91898422D01*
X146458931Y-91966467D01*
X146362761Y-92172702D01*
X146362758Y-92172711D01*
X146303866Y-92392502D01*
X146303864Y-92392513D01*
X146284032Y-92619198D01*
X146284032Y-92619201D01*
X146303864Y-92845886D01*
X146303866Y-92845897D01*
X146362758Y-93065688D01*
X146362761Y-93065697D01*
X146458931Y-93271932D01*
X146458932Y-93271934D01*
X146589454Y-93458341D01*
X146750358Y-93619245D01*
X146750361Y-93619247D01*
X146936766Y-93749768D01*
X147143004Y-93845939D01*
X147143009Y-93845940D01*
X147143011Y-93845941D01*
X147156581Y-93849577D01*
X147362808Y-93904835D01*
X147524730Y-93919001D01*
X147589498Y-93924668D01*
X147589500Y-93924668D01*
X147589502Y-93924668D01*
X147646173Y-93919709D01*
X147816192Y-93904835D01*
X148035996Y-93845939D01*
X148242234Y-93749768D01*
X148428639Y-93619247D01*
X148589547Y-93458339D01*
X148719618Y-93272575D01*
X148774193Y-93228952D01*
X148821192Y-93219700D01*
X151858603Y-93219700D01*
X151925642Y-93239385D01*
X151946284Y-93256019D01*
X154112681Y-95422416D01*
X154146166Y-95483739D01*
X154149000Y-95510097D01*
X154149000Y-108919902D01*
X154129315Y-108986941D01*
X154112681Y-109007583D01*
X153673291Y-109446972D01*
X153611968Y-109480457D01*
X153542276Y-109475473D01*
X153486343Y-109433601D01*
X153461926Y-109368137D01*
X153462081Y-109348495D01*
X153476823Y-109180000D01*
X153473038Y-109136741D01*
X153468427Y-109084035D01*
X153457570Y-108959932D01*
X153400394Y-108746550D01*
X153307034Y-108546339D01*
X153191164Y-108380858D01*
X153180327Y-108365381D01*
X153171434Y-108356488D01*
X153024120Y-108209174D01*
X153024116Y-108209171D01*
X153024115Y-108209170D01*
X152843166Y-108082468D01*
X152843158Y-108082464D01*
X152714311Y-108022382D01*
X152661871Y-107976210D01*
X152642719Y-107909017D01*
X152662935Y-107842135D01*
X152714311Y-107797618D01*
X152720302Y-107794824D01*
X152843162Y-107737534D01*
X153024120Y-107610826D01*
X153180326Y-107454620D01*
X153307034Y-107273662D01*
X153400394Y-107073450D01*
X153457570Y-106860068D01*
X153476823Y-106640000D01*
X153457570Y-106419932D01*
X153400394Y-106206550D01*
X153307034Y-106006339D01*
X153191986Y-105842032D01*
X153180327Y-105825381D01*
X153115467Y-105760521D01*
X153024120Y-105669174D01*
X153024116Y-105669171D01*
X153024115Y-105669170D01*
X152843166Y-105542468D01*
X152843158Y-105542464D01*
X152714311Y-105482382D01*
X152661871Y-105436210D01*
X152642719Y-105369017D01*
X152662935Y-105302135D01*
X152714311Y-105257618D01*
X152720302Y-105254824D01*
X152843162Y-105197534D01*
X153024120Y-105070826D01*
X153180326Y-104914620D01*
X153307034Y-104733662D01*
X153400394Y-104533450D01*
X153457570Y-104320068D01*
X153475416Y-104116080D01*
X153476823Y-104100002D01*
X153476823Y-104099997D01*
X153468427Y-104004035D01*
X153457570Y-103879932D01*
X153400394Y-103666550D01*
X153307034Y-103466339D01*
X153191986Y-103302032D01*
X153180327Y-103285381D01*
X153120463Y-103225517D01*
X153024120Y-103129174D01*
X153024116Y-103129171D01*
X153024115Y-103129170D01*
X152843166Y-103002468D01*
X152843158Y-103002464D01*
X152714311Y-102942382D01*
X152661871Y-102896210D01*
X152642719Y-102829017D01*
X152662935Y-102762135D01*
X152714311Y-102717618D01*
X152720302Y-102714824D01*
X152843162Y-102657534D01*
X153024120Y-102530826D01*
X153180326Y-102374620D01*
X153307034Y-102193662D01*
X153400394Y-101993450D01*
X153457570Y-101780068D01*
X153476823Y-101560000D01*
X153476481Y-101556094D01*
X153457570Y-101339937D01*
X153457570Y-101339932D01*
X153400394Y-101126550D01*
X153307034Y-100926339D01*
X153180326Y-100745380D01*
X153024120Y-100589174D01*
X153024116Y-100589171D01*
X153024115Y-100589170D01*
X152843166Y-100462468D01*
X152843158Y-100462464D01*
X152714311Y-100402382D01*
X152661871Y-100356210D01*
X152642719Y-100289017D01*
X152662935Y-100222135D01*
X152714311Y-100177618D01*
X152755498Y-100158412D01*
X152843162Y-100117534D01*
X153024120Y-99990826D01*
X153180326Y-99834620D01*
X153307034Y-99653662D01*
X153400394Y-99453450D01*
X153457570Y-99240068D01*
X153476823Y-99020000D01*
X153457570Y-98799932D01*
X153400394Y-98586550D01*
X153307034Y-98386339D01*
X153188840Y-98217539D01*
X153180327Y-98205381D01*
X153160349Y-98185403D01*
X153024120Y-98049174D01*
X153024116Y-98049171D01*
X153024115Y-98049170D01*
X152843166Y-97922468D01*
X152843162Y-97922466D01*
X152843160Y-97922465D01*
X152642950Y-97829106D01*
X152642947Y-97829105D01*
X152642945Y-97829104D01*
X152429570Y-97771930D01*
X152429562Y-97771929D01*
X152209502Y-97752677D01*
X152209498Y-97752677D01*
X151989437Y-97771929D01*
X151989429Y-97771930D01*
X151776054Y-97829104D01*
X151776048Y-97829107D01*
X151575840Y-97922465D01*
X151575838Y-97922466D01*
X151394877Y-98049175D01*
X151238675Y-98205377D01*
X151111966Y-98386338D01*
X151111965Y-98386340D01*
X151018607Y-98586548D01*
X151018604Y-98586554D01*
X150961430Y-98799929D01*
X150961429Y-98799937D01*
X150942177Y-99019997D01*
X150942177Y-99020002D01*
X150961429Y-99240062D01*
X150961430Y-99240070D01*
X151018604Y-99453445D01*
X151018605Y-99453447D01*
X151018606Y-99453450D01*
X151102611Y-99633600D01*
X151111966Y-99653662D01*
X151111968Y-99653666D01*
X151238670Y-99834615D01*
X151238675Y-99834621D01*
X151394878Y-99990824D01*
X151394884Y-99990829D01*
X151575833Y-100117531D01*
X151575835Y-100117532D01*
X151575838Y-100117534D01*
X151663502Y-100158412D01*
X151704689Y-100177618D01*
X151757128Y-100223790D01*
X151776280Y-100290984D01*
X151756064Y-100357865D01*
X151704689Y-100402382D01*
X151575840Y-100462465D01*
X151575838Y-100462466D01*
X151394877Y-100589175D01*
X151238675Y-100745377D01*
X151111966Y-100926338D01*
X151111965Y-100926340D01*
X151018607Y-101126548D01*
X151018604Y-101126554D01*
X150961430Y-101339929D01*
X150961429Y-101339937D01*
X150942177Y-101559997D01*
X150942177Y-101560002D01*
X150961429Y-101780062D01*
X150961430Y-101780070D01*
X151018604Y-101993445D01*
X151018605Y-101993447D01*
X151018606Y-101993450D01*
X151106607Y-102182169D01*
X151111966Y-102193662D01*
X151111968Y-102193666D01*
X151238670Y-102374615D01*
X151238675Y-102374621D01*
X151394878Y-102530824D01*
X151394884Y-102530829D01*
X151575833Y-102657531D01*
X151575835Y-102657532D01*
X151575838Y-102657534D01*
X151614594Y-102675606D01*
X151704689Y-102717618D01*
X151757128Y-102763790D01*
X151776280Y-102830984D01*
X151756064Y-102897865D01*
X151704689Y-102942382D01*
X151575840Y-103002465D01*
X151575838Y-103002466D01*
X151394881Y-103129172D01*
X151238671Y-103285383D01*
X151214479Y-103319933D01*
X151159902Y-103363557D01*
X151090403Y-103370749D01*
X151028049Y-103339226D01*
X151025224Y-103336489D01*
X143172090Y-95483355D01*
X143172088Y-95483352D01*
X143053217Y-95364481D01*
X143053216Y-95364480D01*
X142951864Y-95305965D01*
X142951863Y-95305964D01*
X142916283Y-95285422D01*
X142844724Y-95266248D01*
X142763557Y-95244499D01*
X142605443Y-95244499D01*
X142597847Y-95244499D01*
X142597831Y-95244500D01*
X135154000Y-95244500D01*
X135086961Y-95224815D01*
X135041206Y-95172011D01*
X135030000Y-95120500D01*
X135030000Y-90050945D01*
X135030000Y-90050943D01*
X134989077Y-89898216D01*
X134989073Y-89898209D01*
X134910024Y-89761290D01*
X134910018Y-89761282D01*
X134798217Y-89649481D01*
X134798209Y-89649475D01*
X134661290Y-89570426D01*
X134661286Y-89570424D01*
X134661284Y-89570423D01*
X134508557Y-89529500D01*
X134508556Y-89529500D01*
X130710655Y-89529500D01*
X130643616Y-89509815D01*
X130609080Y-89476623D01*
X130501599Y-89323124D01*
X130470990Y-89292515D01*
X130346877Y-89168402D01*
X130167639Y-89042898D01*
X130167640Y-89042898D01*
X130167638Y-89042897D01*
X130068484Y-88996661D01*
X129969330Y-88950425D01*
X129969326Y-88950424D01*
X129969322Y-88950422D01*
X129757977Y-88893793D01*
X129540002Y-88874723D01*
X129539998Y-88874723D01*
X129394682Y-88887436D01*
X129322023Y-88893793D01*
X129322020Y-88893793D01*
X129110677Y-88950422D01*
X129110668Y-88950426D01*
X128912361Y-89042898D01*
X128912357Y-89042900D01*
X128733121Y-89168402D01*
X128578402Y-89323121D01*
X128452900Y-89502357D01*
X128452898Y-89502361D01*
X128360426Y-89700668D01*
X128360422Y-89700677D01*
X128303793Y-89912020D01*
X128303793Y-89912024D01*
X128284723Y-90129997D01*
X128284723Y-90130002D01*
X128303793Y-90347975D01*
X128303793Y-90347979D01*
X128360422Y-90559322D01*
X128360424Y-90559326D01*
X128360425Y-90559330D01*
X128386212Y-90614630D01*
X128452897Y-90757638D01*
X128461682Y-90770184D01*
X128578402Y-90936877D01*
X128733123Y-91091598D01*
X128912361Y-91217102D01*
X129110670Y-91309575D01*
X129322023Y-91366207D01*
X129504926Y-91382208D01*
X129539998Y-91385277D01*
X129540000Y-91385277D01*
X129540002Y-91385277D01*
X129568254Y-91382805D01*
X129757977Y-91366207D01*
X129969330Y-91309575D01*
X130167639Y-91217102D01*
X130346877Y-91091598D01*
X130501598Y-90936877D01*
X130609081Y-90783374D01*
X130663657Y-90739751D01*
X130710655Y-90730500D01*
X133705000Y-90730500D01*
X133772039Y-90750185D01*
X133817794Y-90802989D01*
X133829000Y-90854500D01*
X133829000Y-95266248D01*
X133809315Y-95333287D01*
X133792681Y-95353929D01*
X133278088Y-95868521D01*
X133216765Y-95902006D01*
X133147073Y-95897022D01*
X133091140Y-95855150D01*
X133078025Y-95833245D01*
X133068796Y-95813454D01*
X133063535Y-95802171D01*
X133063532Y-95802167D01*
X133063532Y-95802166D01*
X132927994Y-95608597D01*
X132760902Y-95441506D01*
X132760895Y-95441501D01*
X132567334Y-95305967D01*
X132567330Y-95305965D01*
X132567328Y-95305964D01*
X132353163Y-95206097D01*
X132353159Y-95206096D01*
X132353155Y-95206094D01*
X132124913Y-95144938D01*
X132124903Y-95144936D01*
X131889501Y-95124341D01*
X131889499Y-95124341D01*
X131654096Y-95144936D01*
X131654086Y-95144938D01*
X131425844Y-95206094D01*
X131425835Y-95206098D01*
X131211671Y-95305964D01*
X131211669Y-95305965D01*
X131018100Y-95441503D01*
X130895784Y-95563819D01*
X130834461Y-95597303D01*
X130764769Y-95592319D01*
X130708836Y-95550447D01*
X130691921Y-95519470D01*
X130642854Y-95387913D01*
X130642850Y-95387906D01*
X130556690Y-95272812D01*
X130556687Y-95272809D01*
X130441593Y-95186649D01*
X130441586Y-95186645D01*
X130306879Y-95136403D01*
X130306872Y-95136401D01*
X130247344Y-95130000D01*
X129599500Y-95130000D01*
X129599500Y-96046988D01*
X129542493Y-96014075D01*
X129415326Y-95980000D01*
X129283674Y-95980000D01*
X129156507Y-96014075D01*
X129099500Y-96046988D01*
X129099500Y-95130000D01*
X128451655Y-95130000D01*
X128392127Y-95136401D01*
X128392120Y-95136403D01*
X128257413Y-95186645D01*
X128257406Y-95186649D01*
X128142312Y-95272809D01*
X128142309Y-95272812D01*
X128056149Y-95387906D01*
X128056145Y-95387913D01*
X128007078Y-95519470D01*
X127965207Y-95575404D01*
X127899742Y-95599821D01*
X127831469Y-95584969D01*
X127803215Y-95563819D01*
X127749493Y-95510097D01*
X127680901Y-95441505D01*
X127680897Y-95441502D01*
X127680896Y-95441501D01*
X127487334Y-95305967D01*
X127487330Y-95305965D01*
X127487328Y-95305964D01*
X127273163Y-95206097D01*
X127273159Y-95206096D01*
X127273155Y-95206094D01*
X127044913Y-95144938D01*
X127044903Y-95144936D01*
X126809501Y-95124341D01*
X126809499Y-95124341D01*
X126574096Y-95144936D01*
X126574086Y-95144938D01*
X126345844Y-95206094D01*
X126345835Y-95206098D01*
X126131671Y-95305964D01*
X126131669Y-95305965D01*
X125938097Y-95441505D01*
X125771005Y-95608597D01*
X125641075Y-95794158D01*
X125586498Y-95837783D01*
X125517000Y-95844977D01*
X125454645Y-95813454D01*
X125437925Y-95794158D01*
X125307994Y-95608597D01*
X125140902Y-95441506D01*
X125140895Y-95441501D01*
X124947334Y-95305967D01*
X124947330Y-95305965D01*
X124947328Y-95305964D01*
X124733163Y-95206097D01*
X124733159Y-95206096D01*
X124733155Y-95206094D01*
X124504913Y-95144938D01*
X124504903Y-95144936D01*
X124269501Y-95124341D01*
X124269499Y-95124341D01*
X124034096Y-95144936D01*
X124034086Y-95144938D01*
X123805844Y-95206094D01*
X123805835Y-95206098D01*
X123591671Y-95305964D01*
X123591669Y-95305965D01*
X123398097Y-95441505D01*
X123231005Y-95608597D01*
X123095465Y-95802169D01*
X123095464Y-95802171D01*
X122995598Y-96016335D01*
X122995594Y-96016344D01*
X122934438Y-96244586D01*
X122934436Y-96244596D01*
X122913841Y-96479999D01*
X120887659Y-96479999D01*
X120938743Y-96313831D01*
X120940262Y-96309220D01*
X121266990Y-95379721D01*
X121268684Y-95375190D01*
X121632112Y-94459406D01*
X121634015Y-94454877D01*
X121707373Y-94289523D01*
X122033531Y-93554339D01*
X122035591Y-93549932D01*
X122470638Y-92665898D01*
X122472866Y-92661589D01*
X122901156Y-91872155D01*
X130830000Y-91872155D01*
X130830000Y-92420000D01*
X131764314Y-92420000D01*
X131759920Y-92424394D01*
X131707259Y-92515606D01*
X131680000Y-92617339D01*
X131680000Y-92722661D01*
X131707259Y-92824394D01*
X131759920Y-92915606D01*
X131764314Y-92920000D01*
X130830000Y-92920000D01*
X130830000Y-93467844D01*
X130836401Y-93527372D01*
X130836403Y-93527379D01*
X130886645Y-93662086D01*
X130886649Y-93662093D01*
X130972809Y-93777187D01*
X130972812Y-93777190D01*
X131087906Y-93863350D01*
X131087913Y-93863354D01*
X131222620Y-93913596D01*
X131222627Y-93913598D01*
X131282155Y-93919999D01*
X131282172Y-93920000D01*
X131830000Y-93920000D01*
X131830000Y-92985686D01*
X131834394Y-92990080D01*
X131925606Y-93042741D01*
X132027339Y-93070000D01*
X132132661Y-93070000D01*
X132234394Y-93042741D01*
X132325606Y-92990080D01*
X132330000Y-92985686D01*
X132330000Y-93920000D01*
X132877828Y-93920000D01*
X132877844Y-93919999D01*
X132937372Y-93913598D01*
X132937379Y-93913596D01*
X133072086Y-93863354D01*
X133072093Y-93863350D01*
X133187187Y-93777190D01*
X133187190Y-93777187D01*
X133273350Y-93662093D01*
X133273354Y-93662086D01*
X133323596Y-93527379D01*
X133323598Y-93527372D01*
X133329999Y-93467844D01*
X133330000Y-93467827D01*
X133330000Y-92920000D01*
X132395686Y-92920000D01*
X132400080Y-92915606D01*
X132452741Y-92824394D01*
X132480000Y-92722661D01*
X132480000Y-92617339D01*
X132452741Y-92515606D01*
X132400080Y-92424394D01*
X132395686Y-92420000D01*
X133330000Y-92420000D01*
X133330000Y-91872172D01*
X133329999Y-91872155D01*
X133323598Y-91812627D01*
X133323596Y-91812620D01*
X133273354Y-91677913D01*
X133273350Y-91677906D01*
X133187190Y-91562812D01*
X133187187Y-91562809D01*
X133072093Y-91476649D01*
X133072086Y-91476645D01*
X132937379Y-91426403D01*
X132937372Y-91426401D01*
X132877844Y-91420000D01*
X132330000Y-91420000D01*
X132330000Y-92354314D01*
X132325606Y-92349920D01*
X132234394Y-92297259D01*
X132132661Y-92270000D01*
X132027339Y-92270000D01*
X131925606Y-92297259D01*
X131834394Y-92349920D01*
X131830000Y-92354314D01*
X131830000Y-91420000D01*
X131282155Y-91420000D01*
X131222627Y-91426401D01*
X131222620Y-91426403D01*
X131087913Y-91476645D01*
X131087906Y-91476649D01*
X130972812Y-91562809D01*
X130972809Y-91562812D01*
X130886649Y-91677906D01*
X130886645Y-91677913D01*
X130836403Y-91812620D01*
X130836401Y-91812627D01*
X130830000Y-91872155D01*
X122901156Y-91872155D01*
X122942697Y-91795585D01*
X122945111Y-91791338D01*
X123448993Y-90944710D01*
X123451590Y-90940539D01*
X123479426Y-90897738D01*
X123988724Y-90114623D01*
X123991448Y-90110612D01*
X124561005Y-89306687D01*
X124563889Y-89302782D01*
X125164979Y-88522108D01*
X125168026Y-88518310D01*
X125799656Y-87762175D01*
X125802847Y-87758507D01*
X125955385Y-87589997D01*
X130824723Y-87589997D01*
X130824723Y-87590002D01*
X130843793Y-87807975D01*
X130843793Y-87807979D01*
X130900422Y-88019322D01*
X130900424Y-88019326D01*
X130900425Y-88019330D01*
X130920353Y-88062065D01*
X130992897Y-88217638D01*
X130992898Y-88217639D01*
X131118402Y-88396877D01*
X131273123Y-88551598D01*
X131452361Y-88677102D01*
X131650670Y-88769575D01*
X131862023Y-88826207D01*
X132044926Y-88842208D01*
X132079998Y-88845277D01*
X132080000Y-88845277D01*
X132080002Y-88845277D01*
X132108254Y-88842805D01*
X132297977Y-88826207D01*
X132509330Y-88769575D01*
X132707639Y-88677102D01*
X132886877Y-88551598D01*
X133041598Y-88396877D01*
X133167102Y-88217639D01*
X133259575Y-88019330D01*
X133316207Y-87807977D01*
X133335277Y-87590000D01*
X133316207Y-87372023D01*
X133259575Y-87160670D01*
X133167102Y-86962362D01*
X133167100Y-86962359D01*
X133167099Y-86962357D01*
X133041599Y-86783124D01*
X132991095Y-86732620D01*
X132886877Y-86628402D01*
X132707639Y-86502898D01*
X132707640Y-86502898D01*
X132707638Y-86502897D01*
X132608484Y-86456661D01*
X132509330Y-86410425D01*
X132509326Y-86410424D01*
X132509322Y-86410422D01*
X132297977Y-86353793D01*
X132080002Y-86334723D01*
X132079998Y-86334723D01*
X131946516Y-86346401D01*
X131862023Y-86353793D01*
X131862020Y-86353793D01*
X131650677Y-86410422D01*
X131650668Y-86410426D01*
X131452361Y-86502898D01*
X131452357Y-86502900D01*
X131273121Y-86628402D01*
X131118402Y-86783121D01*
X130992900Y-86962357D01*
X130992898Y-86962361D01*
X130900426Y-87160668D01*
X130900422Y-87160677D01*
X130843793Y-87372020D01*
X130843793Y-87372024D01*
X130824723Y-87589997D01*
X125955385Y-87589997D01*
X126464058Y-87028062D01*
X126467374Y-87024542D01*
X127157121Y-86320941D01*
X127160566Y-86317564D01*
X127877701Y-85641981D01*
X127881321Y-85638703D01*
X128624765Y-84992148D01*
X128628471Y-84989052D01*
X129397047Y-84372554D01*
X129400886Y-84369599D01*
X130193351Y-83784153D01*
X130197296Y-83781357D01*
X131012400Y-83227888D01*
X131016495Y-83225225D01*
X131852929Y-82704616D01*
X131857133Y-82702113D01*
X132713621Y-82215160D01*
X132717913Y-82212832D01*
X133593063Y-81760325D01*
X133597460Y-81758161D01*
X134489913Y-81340802D01*
X134494348Y-81338834D01*
X135402706Y-80957280D01*
X135407264Y-80955470D01*
X136330089Y-80610324D01*
X136334644Y-80608724D01*
X137270441Y-80300545D01*
X137275131Y-80299103D01*
X138222460Y-80028367D01*
X138227130Y-80027132D01*
X139184477Y-79794271D01*
X139189216Y-79793218D01*
X140155055Y-79598603D01*
X140159827Y-79597740D01*
X141132644Y-79441677D01*
X141137482Y-79441000D01*
X142115713Y-79323739D01*
X142120573Y-79323255D01*
X143102656Y-79244980D01*
X143107572Y-79244687D01*
X144091980Y-79205520D01*
X144096910Y-79205422D01*
X145082090Y-79205422D01*
X145087020Y-79205520D01*
G37*
%TD.AperFunction*%
%TD*%
M02*
