%TF.GenerationSoftware,KiCad,Pcbnew,8.0.2-1*%
%TF.CreationDate,2025-03-04T20:19:02+09:00*%
%TF.ProjectId,test,74657374-2e6b-4696-9361-645f70636258,rev?*%
%TF.SameCoordinates,Original*%
%TF.FileFunction,Legend,Bot*%
%TF.FilePolarity,Positive*%
%FSLAX46Y46*%
G04 Gerber Fmt 4.6, Leading zero omitted, Abs format (unit mm)*
G04 Created by KiCad (PCBNEW 8.0.2-1) date 2025-03-04 20:19:02*
%MOMM*%
%LPD*%
G01*
G04 APERTURE LIST*
%ADD10C,0.100000*%
G04 APERTURE END LIST*
D10*
X139176643Y-82740657D02*
X139224262Y-82693038D01*
X139224262Y-82693038D02*
X139319500Y-82645419D01*
X139319500Y-82645419D02*
X139557595Y-82645419D01*
X139557595Y-82645419D02*
X139652833Y-82693038D01*
X139652833Y-82693038D02*
X139700452Y-82740657D01*
X139700452Y-82740657D02*
X139748071Y-82835895D01*
X139748071Y-82835895D02*
X139748071Y-82931133D01*
X139748071Y-82931133D02*
X139700452Y-83073990D01*
X139700452Y-83073990D02*
X139129024Y-83645419D01*
X139129024Y-83645419D02*
X139748071Y-83645419D01*
X140176643Y-83550180D02*
X140224262Y-83597800D01*
X140224262Y-83597800D02*
X140176643Y-83645419D01*
X140176643Y-83645419D02*
X140129024Y-83597800D01*
X140129024Y-83597800D02*
X140176643Y-83550180D01*
X140176643Y-83550180D02*
X140176643Y-83645419D01*
X141129023Y-82645419D02*
X140652833Y-82645419D01*
X140652833Y-82645419D02*
X140605214Y-83121609D01*
X140605214Y-83121609D02*
X140652833Y-83073990D01*
X140652833Y-83073990D02*
X140748071Y-83026371D01*
X140748071Y-83026371D02*
X140986166Y-83026371D01*
X140986166Y-83026371D02*
X141081404Y-83073990D01*
X141081404Y-83073990D02*
X141129023Y-83121609D01*
X141129023Y-83121609D02*
X141176642Y-83216847D01*
X141176642Y-83216847D02*
X141176642Y-83454942D01*
X141176642Y-83454942D02*
X141129023Y-83550180D01*
X141129023Y-83550180D02*
X141081404Y-83597800D01*
X141081404Y-83597800D02*
X140986166Y-83645419D01*
X140986166Y-83645419D02*
X140748071Y-83645419D01*
X140748071Y-83645419D02*
X140652833Y-83597800D01*
X140652833Y-83597800D02*
X140605214Y-83550180D01*
X142033785Y-82978752D02*
X142033785Y-83645419D01*
X141795690Y-82597800D02*
X141557595Y-83312085D01*
X141557595Y-83312085D02*
X142176642Y-83312085D01*
X142748071Y-82645419D02*
X142843309Y-82645419D01*
X142843309Y-82645419D02*
X142938547Y-82693038D01*
X142938547Y-82693038D02*
X142986166Y-82740657D01*
X142986166Y-82740657D02*
X143033785Y-82835895D01*
X143033785Y-82835895D02*
X143081404Y-83026371D01*
X143081404Y-83026371D02*
X143081404Y-83264466D01*
X143081404Y-83264466D02*
X143033785Y-83454942D01*
X143033785Y-83454942D02*
X142986166Y-83550180D01*
X142986166Y-83550180D02*
X142938547Y-83597800D01*
X142938547Y-83597800D02*
X142843309Y-83645419D01*
X142843309Y-83645419D02*
X142748071Y-83645419D01*
X142748071Y-83645419D02*
X142652833Y-83597800D01*
X142652833Y-83597800D02*
X142605214Y-83550180D01*
X142605214Y-83550180D02*
X142557595Y-83454942D01*
X142557595Y-83454942D02*
X142509976Y-83264466D01*
X142509976Y-83264466D02*
X142509976Y-83026371D01*
X142509976Y-83026371D02*
X142557595Y-82835895D01*
X142557595Y-82835895D02*
X142605214Y-82740657D01*
X142605214Y-82740657D02*
X142652833Y-82693038D01*
X142652833Y-82693038D02*
X142748071Y-82645419D01*
X143700452Y-82645419D02*
X143795690Y-82645419D01*
X143795690Y-82645419D02*
X143890928Y-82693038D01*
X143890928Y-82693038D02*
X143938547Y-82740657D01*
X143938547Y-82740657D02*
X143986166Y-82835895D01*
X143986166Y-82835895D02*
X144033785Y-83026371D01*
X144033785Y-83026371D02*
X144033785Y-83264466D01*
X144033785Y-83264466D02*
X143986166Y-83454942D01*
X143986166Y-83454942D02*
X143938547Y-83550180D01*
X143938547Y-83550180D02*
X143890928Y-83597800D01*
X143890928Y-83597800D02*
X143795690Y-83645419D01*
X143795690Y-83645419D02*
X143700452Y-83645419D01*
X143700452Y-83645419D02*
X143605214Y-83597800D01*
X143605214Y-83597800D02*
X143557595Y-83550180D01*
X143557595Y-83550180D02*
X143509976Y-83454942D01*
X143509976Y-83454942D02*
X143462357Y-83264466D01*
X143462357Y-83264466D02*
X143462357Y-83026371D01*
X143462357Y-83026371D02*
X143509976Y-82835895D01*
X143509976Y-82835895D02*
X143557595Y-82740657D01*
X143557595Y-82740657D02*
X143605214Y-82693038D01*
X143605214Y-82693038D02*
X143700452Y-82645419D01*
X145224262Y-83645419D02*
X145224262Y-82978752D01*
X145224262Y-83073990D02*
X145271881Y-83026371D01*
X145271881Y-83026371D02*
X145367119Y-82978752D01*
X145367119Y-82978752D02*
X145509976Y-82978752D01*
X145509976Y-82978752D02*
X145605214Y-83026371D01*
X145605214Y-83026371D02*
X145652833Y-83121609D01*
X145652833Y-83121609D02*
X145652833Y-83645419D01*
X145652833Y-83121609D02*
X145700452Y-83026371D01*
X145700452Y-83026371D02*
X145795690Y-82978752D01*
X145795690Y-82978752D02*
X145938547Y-82978752D01*
X145938547Y-82978752D02*
X146033786Y-83026371D01*
X146033786Y-83026371D02*
X146081405Y-83121609D01*
X146081405Y-83121609D02*
X146081405Y-83645419D01*
X146557595Y-83645419D02*
X146557595Y-82978752D01*
X146557595Y-83073990D02*
X146605214Y-83026371D01*
X146605214Y-83026371D02*
X146700452Y-82978752D01*
X146700452Y-82978752D02*
X146843309Y-82978752D01*
X146843309Y-82978752D02*
X146938547Y-83026371D01*
X146938547Y-83026371D02*
X146986166Y-83121609D01*
X146986166Y-83121609D02*
X146986166Y-83645419D01*
X146986166Y-83121609D02*
X147033785Y-83026371D01*
X147033785Y-83026371D02*
X147129023Y-82978752D01*
X147129023Y-82978752D02*
X147271880Y-82978752D01*
X147271880Y-82978752D02*
X147367119Y-83026371D01*
X147367119Y-83026371D02*
X147414738Y-83121609D01*
X147414738Y-83121609D02*
X147414738Y-83645419D01*
X142049500Y-85820000D02*
X142049500Y-83701580D01*
X144589500Y-85820000D02*
X144589500Y-83701580D01*
X142049500Y-84288000D02*
X144589500Y-84288000D01*
X142049500Y-84288000D02*
X144589500Y-84288000D01*
X142049500Y-84288000D02*
X143176004Y-83701579D01*
X142049500Y-84288000D02*
X143176004Y-84874421D01*
X144589500Y-84288000D02*
X143462996Y-84874421D01*
X144589500Y-84288000D02*
X143462996Y-83701579D01*
X141716643Y-82740657D02*
X141764262Y-82693038D01*
X141764262Y-82693038D02*
X141859500Y-82645419D01*
X141859500Y-82645419D02*
X142097595Y-82645419D01*
X142097595Y-82645419D02*
X142192833Y-82693038D01*
X142192833Y-82693038D02*
X142240452Y-82740657D01*
X142240452Y-82740657D02*
X142288071Y-82835895D01*
X142288071Y-82835895D02*
X142288071Y-82931133D01*
X142288071Y-82931133D02*
X142240452Y-83073990D01*
X142240452Y-83073990D02*
X141669024Y-83645419D01*
X141669024Y-83645419D02*
X142288071Y-83645419D01*
X142716643Y-83550180D02*
X142764262Y-83597800D01*
X142764262Y-83597800D02*
X142716643Y-83645419D01*
X142716643Y-83645419D02*
X142669024Y-83597800D01*
X142669024Y-83597800D02*
X142716643Y-83550180D01*
X142716643Y-83550180D02*
X142716643Y-83645419D01*
X143669023Y-82645419D02*
X143192833Y-82645419D01*
X143192833Y-82645419D02*
X143145214Y-83121609D01*
X143145214Y-83121609D02*
X143192833Y-83073990D01*
X143192833Y-83073990D02*
X143288071Y-83026371D01*
X143288071Y-83026371D02*
X143526166Y-83026371D01*
X143526166Y-83026371D02*
X143621404Y-83073990D01*
X143621404Y-83073990D02*
X143669023Y-83121609D01*
X143669023Y-83121609D02*
X143716642Y-83216847D01*
X143716642Y-83216847D02*
X143716642Y-83454942D01*
X143716642Y-83454942D02*
X143669023Y-83550180D01*
X143669023Y-83550180D02*
X143621404Y-83597800D01*
X143621404Y-83597800D02*
X143526166Y-83645419D01*
X143526166Y-83645419D02*
X143288071Y-83645419D01*
X143288071Y-83645419D02*
X143192833Y-83597800D01*
X143192833Y-83597800D02*
X143145214Y-83550180D01*
X144573785Y-82978752D02*
X144573785Y-83645419D01*
X144335690Y-82597800D02*
X144097595Y-83312085D01*
X144097595Y-83312085D02*
X144716642Y-83312085D01*
X145288071Y-82645419D02*
X145383309Y-82645419D01*
X145383309Y-82645419D02*
X145478547Y-82693038D01*
X145478547Y-82693038D02*
X145526166Y-82740657D01*
X145526166Y-82740657D02*
X145573785Y-82835895D01*
X145573785Y-82835895D02*
X145621404Y-83026371D01*
X145621404Y-83026371D02*
X145621404Y-83264466D01*
X145621404Y-83264466D02*
X145573785Y-83454942D01*
X145573785Y-83454942D02*
X145526166Y-83550180D01*
X145526166Y-83550180D02*
X145478547Y-83597800D01*
X145478547Y-83597800D02*
X145383309Y-83645419D01*
X145383309Y-83645419D02*
X145288071Y-83645419D01*
X145288071Y-83645419D02*
X145192833Y-83597800D01*
X145192833Y-83597800D02*
X145145214Y-83550180D01*
X145145214Y-83550180D02*
X145097595Y-83454942D01*
X145097595Y-83454942D02*
X145049976Y-83264466D01*
X145049976Y-83264466D02*
X145049976Y-83026371D01*
X145049976Y-83026371D02*
X145097595Y-82835895D01*
X145097595Y-82835895D02*
X145145214Y-82740657D01*
X145145214Y-82740657D02*
X145192833Y-82693038D01*
X145192833Y-82693038D02*
X145288071Y-82645419D01*
X146240452Y-82645419D02*
X146335690Y-82645419D01*
X146335690Y-82645419D02*
X146430928Y-82693038D01*
X146430928Y-82693038D02*
X146478547Y-82740657D01*
X146478547Y-82740657D02*
X146526166Y-82835895D01*
X146526166Y-82835895D02*
X146573785Y-83026371D01*
X146573785Y-83026371D02*
X146573785Y-83264466D01*
X146573785Y-83264466D02*
X146526166Y-83454942D01*
X146526166Y-83454942D02*
X146478547Y-83550180D01*
X146478547Y-83550180D02*
X146430928Y-83597800D01*
X146430928Y-83597800D02*
X146335690Y-83645419D01*
X146335690Y-83645419D02*
X146240452Y-83645419D01*
X146240452Y-83645419D02*
X146145214Y-83597800D01*
X146145214Y-83597800D02*
X146097595Y-83550180D01*
X146097595Y-83550180D02*
X146049976Y-83454942D01*
X146049976Y-83454942D02*
X146002357Y-83264466D01*
X146002357Y-83264466D02*
X146002357Y-83026371D01*
X146002357Y-83026371D02*
X146049976Y-82835895D01*
X146049976Y-82835895D02*
X146097595Y-82740657D01*
X146097595Y-82740657D02*
X146145214Y-82693038D01*
X146145214Y-82693038D02*
X146240452Y-82645419D01*
X147764262Y-83645419D02*
X147764262Y-82978752D01*
X147764262Y-83073990D02*
X147811881Y-83026371D01*
X147811881Y-83026371D02*
X147907119Y-82978752D01*
X147907119Y-82978752D02*
X148049976Y-82978752D01*
X148049976Y-82978752D02*
X148145214Y-83026371D01*
X148145214Y-83026371D02*
X148192833Y-83121609D01*
X148192833Y-83121609D02*
X148192833Y-83645419D01*
X148192833Y-83121609D02*
X148240452Y-83026371D01*
X148240452Y-83026371D02*
X148335690Y-82978752D01*
X148335690Y-82978752D02*
X148478547Y-82978752D01*
X148478547Y-82978752D02*
X148573786Y-83026371D01*
X148573786Y-83026371D02*
X148621405Y-83121609D01*
X148621405Y-83121609D02*
X148621405Y-83645419D01*
X149097595Y-83645419D02*
X149097595Y-82978752D01*
X149097595Y-83073990D02*
X149145214Y-83026371D01*
X149145214Y-83026371D02*
X149240452Y-82978752D01*
X149240452Y-82978752D02*
X149383309Y-82978752D01*
X149383309Y-82978752D02*
X149478547Y-83026371D01*
X149478547Y-83026371D02*
X149526166Y-83121609D01*
X149526166Y-83121609D02*
X149526166Y-83645419D01*
X149526166Y-83121609D02*
X149573785Y-83026371D01*
X149573785Y-83026371D02*
X149669023Y-82978752D01*
X149669023Y-82978752D02*
X149811880Y-82978752D01*
X149811880Y-82978752D02*
X149907119Y-83026371D01*
X149907119Y-83026371D02*
X149954738Y-83121609D01*
X149954738Y-83121609D02*
X149954738Y-83645419D01*
X147129500Y-85820000D02*
X147129500Y-83701580D01*
X144589500Y-85820000D02*
X144589500Y-83701580D01*
X147129500Y-84288000D02*
X144589500Y-84288000D01*
X147129500Y-84288000D02*
X144589500Y-84288000D01*
X147129500Y-84288000D02*
X146002996Y-84874421D01*
X147129500Y-84288000D02*
X146002996Y-83701579D01*
X144589500Y-84288000D02*
X145716004Y-83701579D01*
X144589500Y-84288000D02*
X145716004Y-84874421D01*
M02*
